/* XPM */
static char *_036_9c02ed0f38543769737aaa91c7c84551e54b22f00ce49cca1a61b15e35bbad3e[] = {
/* columns rows colors chars-per-pixel */
"64 64 216 2 ",
"   c #05050F",
".  c #08070F",
"X  c #19060F",
"o  c #0E100F",
"O  c #10190D",
"+  c #090711",
"@  c #060B16",
"#  c #0B0A14",
"$  c #0E0D1A",
"%  c #190811",
"&  c #110F1D",
"*  c #1C0E1C",
"=  c #131A11",
"-  c #151719",
";  c #12121D",
":  c #191D1D",
">  c #230D1A",
",  c #380C17",
"<  c #23111F",
"1  c #39131E",
"2  c #192514",
"3  c #1C241D",
"4  c #1E2C1C",
"5  c #1D3312",
"6  c #212E1E",
"7  c #332814",
"8  c #243C14",
"9  c #223518",
"0  c #253A1D",
"q  c #001524",
"w  c #0D1322",
"e  c #0C1A2B",
"r  c #141323",
"t  c #1A1725",
"y  c #161923",
"u  c #1A1B25",
"i  c #171728",
"p  c #181728",
"a  c #13192A",
"s  c #1B1B2C",
"d  c #0F1F31",
"f  c #1D1F30",
"g  c #241623",
"h  c #2C1827",
"j  c #211D2D",
"k  c #371826",
"l  c #251F31",
"z  c #1C2425",
"x  c #1E2924",
"c  c #1E232C",
"v  c #092134",
"b  c #132134",
"n  c #1E2133",
"m  c #212927",
"M  c #232C2D",
"N  c #243323",
"B  c #263A22",
"V  c #293D23",
"C  c #283529",
"Z  c #2B3D2C",
"A  c #353A2C",
"S  c #222234",
"D  c #282436",
"F  c #252C33",
"G  c #252539",
"H  c #29273C",
"J  c #2A2A3D",
"K  c #362433",
"L  c #2A3634",
"P  c #36393A",
"I  c #430B14",
"U  c #4C0A11",
"Y  c #450E19",
"T  c #550D16",
"R  c #5C0C11",
"E  c #47121B",
"W  c #790B0F",
"Q  c #660C10",
"!  c #6B0E14",
"~  c #740C13",
"^  c #7B0C11",
"/  c #63141E",
"(  c #7B1115",
")  c #74141D",
"_  c #7A1819",
"`  c #562B16",
"'  c #6A2C17",
"]  c #78291E",
"[  c #6B351B",
"{  c #663B1F",
"}  c #481925",
"|  c #591925",
" . c #691A26",
".. c #711823",
"X. c #532534",
"o. c #7E2624",
"O. c #6B3D23",
"+. c #773829",
"@. c #294616",
"#. c #29431A",
"$. c #2A4918",
"%. c #2D4A1C",
"&. c #30501C",
"*. c #32541D",
"=. c #355C1D",
"-. c #3C5F1D",
";. c #356017",
":. c #37621B",
">. c #3A651D",
",. c #3C681E",
"<. c #2C4423",
"1. c #2E4B20",
"2. c #2E462A",
"3. c #2F4828",
"4. c #314D24",
"5. c #304529",
"6. c #334D2B",
"7. c #335424",
"8. c #365A22",
"9. c #385E22",
"0. c #37532B",
"q. c #3B5C2B",
"w. c #334B31",
"e. c #344438",
"r. c #3A5637",
"t. c #3B6620",
"y. c #3D6822",
"u. c #3C632A",
"i. c #3E653C",
"p. c #4C4D1A",
"a. c #455C1E",
"s. c #54511D",
"d. c #63461B",
"f. c #43601E",
"g. c #455E21",
"h. c #475826",
"j. c #4A512F",
"k. c #545422",
"l. c #5A5527",
"z. c #5C5D33",
"x. c #6C4E34",
"c. c #436322",
"v. c #406B23",
"b. c #486A2C",
"n. c #536A2A",
"m. c #486436",
"M. c #5D6934",
"N. c #6B6839",
"B. c #62743B",
"V. c #1C3049",
"C. c #252C43",
"Z. c #2D2C42",
"A. c #312E46",
"S. c #342F47",
"D. c #2B324B",
"F. c #34324B",
"G. c #373849",
"H. c #3B3C4D",
"J. c #2D3650",
"K. c #393651",
"L. c #3A3955",
"P. c #3C3954",
"I. c #453246",
"U. c #3D424A",
"Y. c #4A4F4D",
"T. c #4F6A4E",
"R. c #72764C",
"E. c #5D7367",
"W. c #860B0F",
"Q. c #970B0F",
"!. c #9D0B0F",
"~. c #840C11",
"^. c #8B0C11",
"/. c #930C10",
"(. c #9C0C11",
"). c #821415",
"_. c #86151A",
"`. c #931617",
"'. c #A50B0F",
"]. c #A30D11",
"[. c #AB0C11",
"{. c #B30C11",
"}. c #BB0C12",
"|. c #A71014",
" X c #87231B",
".X c #832322",
"XX c #842927",
"oX c #8A312C",
"OX c #AF2627",
"+X c #C90A0D",
"@X c #C30E13",
"#X c #854D44",
"$X c #8B724A",
"%X c #966653",
"&X c #867B56",
"*X c #967B57",
"=X c #A86A5D",
"-X c #B46D62",
";X c #AD7766",
":X c #B97667",
">X c #C3796C",
",X c #779476",
"<X c #B18C6D",
"1X c #A49B72",
"2X c #C3816E",
"3X c #CA8774",
"4X c #D3937C",
"5X c #849F85",
"6X c #DDA486",
"7X c #DDA893",
"8X c #E0A789",
"9X c #E0BCA2",
"0X c #D6C5B6",
"qX c #EFCDB9",
"wX c #FEDEC6",
"eX c #FFEBD4",
/* pixels */
":.:.>.y.,.v.y.v.>.,.v.v.y.y.>.>.y.v.v.y.>.>.>.v.>.:.:.>.y.y.y.t.y.>.y.y.y.y.>.>.>.y.v.y.>.>.>.>.y.:.=.:.>.y.y.v.y.y.>.y.y.v.v.>.",
":.:.>.y.v.v.y.y.>.>.y.v.y.y.>.>.>.y.y.y.>.>.>.>.>.:.:.>.y.y.y.y.y.t.y.y.,.y.>.y.>.>.v.>.>.>.,.>.y.:.;.>.>.>.y.y.y.t.>.>.>.y.y.>.",
":.>.>.>.>.y.>.v.>.>.,.,.y.y.y.>.y.y.y.,.>.>.>.,.>.:.:.>.>.>.y.y.t.>.>.>.>.y.>.y.y.>.>.>.>.>.y.>.>.:.>.:.>.>.>.y.y.y.y.t.>.>.>.>.",
">.>.>.>.>.>.>.>.,.>.>.>.t.y.y.y.v.y.>.>.>.>.v.,.>.:.>.>.>.>.>.y.y.>.,.>.>.y.y.y.y.y.y.>.>.>.t.>.,.>.>.>.>.:.>.>.y.t.y.t.>.>.>.>.",
">.>.>.>.>.>.>.>.>.y.>.>.>.t.y.y.v.y.,.>.y.,.>.y.y.>.>.,.>.:.>.>.>.>.y.>.>.>.>.y.y.y.y.>.>.,.,.>.y.y.y.>.>.>.>.y.>.>.,.y.>.>.:.>.",
"v.>.:.>.>.>.>.>.,.v.y.g.+.+.l.t.y.y.>.>.>.y.>.>.>.>.>.>.>.>.>.>.>.y.y.v.>.:.:.>.,.v.v.>.>.>.>.>.y.v.y.>.>.>.t.t.>.>.>.,.y.>.:.:.",
"y.>.>.>.v.v.>.>.,.y.N.+._.XXk.>.y.y.>.>.>.y.>.:.>.>.y.y.y.y.y.,.,.y.v.>.>.:.>.>.>.>.>.>.>.>.>.:.>.y.y.y.>.y.y.y.,.>.y.y.>.>.>.>.",
"y.>.y.v.v.y.>.>.>.y.j.+.XX+.g.>.>.y.>.:.>.>.y.>.>.,.y.y.y.y.y.>.y.y.>.>.>.>.>.>.>.>.>.:.>.>.>.:.>.y.y.y.y.y.y.y.>.>.,.c.>.>.>.>.",
"y.v.y.y.,.>.>.>.>.>.g.XXoXB.v.>.>.>.:.:.:.>.y.y.v.>.v.>.>.y.>.>.y.>.:.>.>.y.y.>.:.:.:.>.:.,.>.>.t.t.y.y.v.v.>.>.,.>.>.>.:.>.y.>.",
"y.v.y.>.>.:.>.>.:.>.k.XX_ #XR.y.,.,.>.>.>.>.y.y.v.y.v.,.>.>.>.t.y.>.:.>.y.y.y.y.y.>.>.:.>.t.y.>.y.y.y.v.v.>.>.>.>.>.>.:.:.y.y.v.",
">.y.y.>.:.:.>.>.>.a.[ `./..Xl.y.y.y.>.y.y.y.>.y.y.y.v.>.:.>.>.t.y.>.:.>.t.y.v.y.v.y.y.>.>.,.y.y.y.y.y.y.>.>.:.>.,.,.>.>.y.y.y.y.",
"y.y.>.>.>.>.,.,.,.a.).{.{.oXl.y.y.y.y.y.y.y.>.,.y.>.y.y.:.>.>.y.y.,.>.>.y.y.y.y.v.v.y.y.>.>.>.,.v.y.y.y.>.>.>.y.y.,.:.>.y.y.y.y.",
">.y.y.y.>.,.,.y.a.{ ).[.@XOXO.c.y.y.y.y.y.>.>.>.>.>.y.y.,.*.%.1.4.1.8.y.y.y.>.y.y.>.y.y.y.>.,.>.y.>.>.y.>.>.>.>.y.y.:.>.y.y.y.y.",
"y.>.y.y.>.p.a.k.] ( ^ [.@X[...+.f.y.y.y.y.>.,.>.>.>.y.>.%.c S D D r N 8.y.y.>.y.>.>.>.y.y.y.>.>.y.>.t.y.y.:.:.>.>.y.y.y.y.y.y.y.",
"y.y.t.>.p._ ] ] ( ~ ^.{.@X[.^._.s.,.y.y.y.y.t.t.y.y.y.<.u s Z.F.F.G r z 4.y.>.>.>.>.v.v.t.y.>.y.y.t.t.y.>.>.:.:.>.v.y.y.y.y.t.:.",
"y.y.,.>.p.o.^ ( W ^.{.@X@X@X[.`.+.k.>.y.y.y.y.y.y.t.V r d e e e d D.H i z 8.y.:.>.>.y.>.>.y.y.y.y.y.y.>.>.>.:.:.y.y.>.>.y.>.>.>.",
"y.t.>.>.p.o.( W /.{.}.{.{.}.@X{.`.O.,.,.y.y.y.y.y.#.r j } 1 w g Y l D.Z.S <.y.y.y.y.y.>.>.y.y.y.v.y.y.t.>.>.>.>.y.y.>.>.>.>.>.v.",
"y.>.>.>.s.XX^ (.{.'.'.W.! Q.@X}.^.{ >.>.>.y.t.y.,.0 @ K }.^.w  .+X} V.Z.& u 4.y.y.y.y.>.>.y.y.>.y.y.t.>.>.y.y.y.y.y.:.:.:.:.>.y.",
"t.:.,.:.s..X(.{.'.'.Q.W R Q ^.{.^.{ >.>.>.>.>.y.y.V $ l } , r g } r J.A.& p <.v.y.y.t.u.>.t.y.t.y.,.>.>.>.,.,.y.y.y.:.:.:.:.>.y.",
"t.>.,.,.s..X[.{.!.W.U W W.R ^ {.^.[ t.>.>.t.t.9.i.Z $ f r w & w q e F.Z.$ t V y.y.t.0.r.u.,.y.y.y.y.>.>.>.>.>.>.>.>.>.:.>.>.y.>.",
"t.,.t.t.k..X[.].! , X W.(.^ ~.{./.[ >.>.>.,.8.: c F s p s p r r w n L.Z.$ r u 3.q.e.H.U.q.,.y.y.y.t.>.>.,.>.>.>.>.y.>.>.>.>.>.>.",
"t.,.,.t.s. X[.].R U W Q.^./.{.}.^.[ >.>.>.>.7.y & & p ; r s s G F.K.J p $ $ f G Z.G.L.D.8.>.t.y.y.y.,.>.y.y.>.y.v.y.>.,.y.>.>.>.",
"y.y.y.y.k. X|.}.(./.!.W.U ^ }./.W.' >.y.>.*.: r r + w Z.p & p s S G r l Z.a s F.K.F.F.G.0.:.>.y.y.v.y.y.y.y.>.>.y.>.>.>.>.>.>.v.",
"y.y.y.y.a.d.`.[.{.~.^ U X ~ {.^ ^ [ >.>.:.V u $ & $ & G A.l @ $ $ Z.a f C.G S.S.J Z.F.Z.6.>.>.y.y.v.y.y.v.t.:.>.>.>.>.>.>.>.>.y.",
",.,.,.y.y.>.d. X].].Q.U   R Q.~.XXk.y.>.<.: * & & & # @ l F.G r r V.b }  .G P.K.S D G G P 8.t.>.>.>.>.v.v.,.>.>.,.>.y.y.>.>.:.>.",
">.:.,.t.y.y.>.d. X'.!.U   U ( [ k.y.,.>.N r & & & @ % Y > f F.C.p | ..( U w Z.P.Z.p s G D.e.y.:.>.;.;.>.>.,.>.>.y.y.y.>.>.>.:.>.",
">.>.y.,.>.>.>.>.p.' ` 7 - 1 ` 9.y.y.y.>.A j $ & $ @ & Y Y l D.F. .~ ) k h T < G G p s S n Z y.>.>.;.;.;.>.>.>.>.>.>.y.>.>.>.>.:.",
"y.>.y.y.>.>.>.>.>.f.>.-.3 $ 9 t.y.y.y.8.C p # # r g 1 * 1 X.X...) t v K ..! p a s s s f z w.y.b.B.1X1X1X*X&Xn.>.>.>.>.,.>.>.>.>.",
"y.,.y.v.y.y.>.t.>.,.y.9.3 . = -.t.y.q.U.D ; # i M A } E ; K  . .D } | ) / s n n r p s s <.y.b.*X7XqXeXwX7X3X$XM.>.>.>.y.y.,.>.>.",
"y.t.y.y.y.y.>.>.>.,.y.-.3 + = -.,.0.U.L.F.r ; L u.y.j.T Y K C.D | ~._.| s G w.c r r s S 6.,.m.%X=X6XqX0X9X4X>XN.>.>.t.y.v.y.>.>.",
"y.>.y.y.y.t.:.>.>.,.,.-.2 . = =.t.U.F.S S G p 5.u.y.m.L E } }  .( k c f f 6.>.1.s S l H L 9.c.x.#X>X<X#X-X3X>XN.:.>.,.y.y.,.>.>.",
"y.t.t.t.y.y.>.:.;.,.,.:.9 o $ 7.6.P.Z.n G F 3.y.y.y.T.E.s , ) ~ h f b b c 8.>.7.H Z.C.S.l C h.#X:X6X8X3X>X-X-XN.;.:.>.>.>.,.,.f.",
">.y.>.y.y.y.y.:.:.>.>.y.:.2 : %.F G S S Z.2.y.v.v.>.*.E.K < * g b d h D i.t.>.7.J F.F.S n S P m.;X2X8X6X3X:XB.v.>.>.>.>.>.t.>.>.",
":.>.>.y.y.y.y.>.>.:.y.y.>.4 : N n G G A.K.5.,.v.>.*.0 * U Y * h I.k _ X.r.u.>.t.8.F Z.F.i c S.m.%X>X8X4X:XB.v.y.y.,.>.>.y.y.y.,.",
":.>.>.y.y.y.y.y.>.>.>.y.y.6 o ; F.J Z.P.K.6.y.y.>.0 @ # % I R ! _.^.} l c 4.>.y.>.7.L G s G F.Y.z.N.&XR.M.>.y.y.y.y.t.>.,.y.y.,.",
":.:.>.>.>.>.y.y.>.>.t.y.t.N & r Z.J H G.w.y.y.v.>.0 # . @ % > > k k f d s c 3.y.t.y.V G F.P.F.H.q.:.h.t.>.>.>.>.y.>.>.>.>.y.y.>.",
">.>.>.:.>.>.y.y.>.>.y.>.:.C p S F.F.J 0.f.>.,.y.9.3 # & & w   i D.b i f n p c 5.y.y.0.Z J S S.G.U.3.L 0.>.:.>.>.t.>.y.>.>.>.>.>.",
"y.y.:.>.>.>.>.y.y.v.y.>.:.Z S p S F 7.,.>.>.,.,.6 & # r f p & & s s s s a f f c 1.v.y.y.<.S f A.F.n s 2.>.:.>.>.>.,.t.y.,.>.:.>.",
"y.y.>.>.y.>.>.>.y.y.y.>.:.7.N ; x 8.y.,.>.>.>.8.: # & r i f s @ & A.Z.i r s S i V 9.,.,.y.3.c n n n n <.>.>.>.>.,.>.>.y.t.>.>.>.",
"y.y.:.y.v.v.>.:.>.y.y.>.:.>.9 # %.,.>.>.>.>.=.z # # r & & f D s r s S s r s i r r M :.>.>.>.*.c n n 3.=.>.y.y.y.,.:.>.y.>.:.>.>.",
"y.v.>.v.v.y.>.:.>.,.>.>.>.y.9 $ #.>.:.:.>.y.8.$ . # r r & i p i & . & r p l r & s f z *.:.>.>.1.B <.9.y.y.y.y.>.y.,.>.>.>.>.>.>.",
"y.v.>.y.y.>.>.>.>.>.:.>.y.y.*.4 2 @.>.:.>.y.=.- $ $ & r i i r & # & H D p f r s f r r *.>.>.y.>.,.y.y.v.y.y.y.>.,.,.>.:.:.>.>.>.",
"y.v.y.>.:.>.>.>.>.:.:.,.y.v.y.*.# 8 :.>.y.y.7.- ; r r s n n p & # r H S.C.r r f p ; y *.>.t.y.y.v.y.y.y.>.>.>.:.>.>.>.:.>.y.y.>.",
"y.y.y.:.>.:.>.y.>.:.>.t.y.y.y.*.O 8 y.y.t.y.*.- $ r s n f S s & # i r G S.H r i f a ; =.,.y.y.y.v.v.v.>.>.:.>.:.>.t.:.:.,.v.y.y.",
">.y.y.:.:.>.y.y.:.>.>.y.,.,.y.*.O @.y.,.,.,.*.- r s G S L e.t & # e.c G Z.A.G p i s N =.y.y.y.>.>.>.y.>.>.>.>.>.t.y.>.>.y.y.v.y.",
">.y.y.>.>.>.y.>.>.,.y.y.,.,.,.&.O @.y.y.:.,.8.- r S s S c P u & y 6.s Z.J n L.l t C u.y.y.>.>.>.y.>.y.y.t.y.>.>.y.y.:.>.>.>.y.y.",
"y.t.y.t.>.:.t.t.,.,.y.y.t.>.>.*.5 5 $.t.:.,.=.: p u ; p n c m m 7.u.z f s S F.f t V ,.,.>.>.,.>.y.>.y.>.,.t.:.>.>.y.>.>.y.>.>.>.",
"y.t.y.y.:.:.:.y.y.y.t.y.t.t.:.:.8.O 5 t.t.t.8.x a # & ; p p Z q.y.y.i.S i S n s r 3 c.,.y.y.y.y.y.y.y.y.>.:.:.>.>.y.,.y.y.y.,.>.",
"y.>.y.>.:.:.y.y.y.>.>.y.>.y.>.>.=.2 5 >.>.y.=.x r # ; r $ # ; 7.y.t.5XY.r n S S s z <.t.y.y.y.>.y.y.y.y.>.>.:.:.y.y.y.y.y.>.y.y.",
"y.>.y.>.>.>.>.v.>.>.y.>.>.>.v.>.>.9 8 >.,.v.9.= # . # $ r & ; 4.y.y.,XY.; p n S S p w 8.y.y.y.,.y.y.y.y.>.>.y.>.y.y.>.>.>.:.>.y.",
"y.>.y.>.>.v.y.y.>.:.>.:.:.>.v.y.y.#.@.>.,.,.-.4 # . # # & r u 7.y.t.u.Y.P w r S S f z =.,.t.t.y.v.y.>.:.>.t.y.y.y.y.:.:.>.:.>.>.",
">.>.y.>.,.y.y.y.:.:.:.:.:.>.y.y.y.*.%.:.>.>.>.*.6 # . . # r 6.y.t.>.-.b.K t p s p c 3.:.>.>.t.t.y.>.>.:.>.y.y.y.y.>.;.:.:.:.>.>.",
">.:.>.>.y.y.>.>.>.:.:.:.>.>.>.y.,.:.%.@.:.>.>.,.t.x # # # $ z 7.,.>.:.t.q.V u p s M 7.,.>.>.>.>.y.y.>.>.>.y.y.y.y.y.:.:.>.>.>.>.",
">.>.>.>.>.>.>.>.>.>.>.y.y.y.y.y.>.>.@.8 :.>.y.y.y.:.N # . . ; 4.y.>.>.t.,.>.0 s n S F t.,.>.y.t.y.>.>.>.,.>.>.>.y.y.>.>.>.>.>.>.",
"y.>.y.y.>.:.>.y.>.>.y.y.>.y.y.y.>.>.&.8 -.>.y.v.y.y.7.o . # r 4.y.>.>.y.>.,.<.n c S F 9.y.>.>.y.y.v.y.>.>.>.>.>.>.y.>.>.y.>.v.>.",
"y.y.v.y.,.>.>.>.>.>.y.>.>.>.v.v.,.;.=.-.>.>.y.v.v.y.1.$ # : #.9.y.>.>.y.,.,.<.f r s F 9.y.:.>.y.v.v.y.y.v.y.>.>.>.y.>.y.>.>.>.v.",
"y.>.,.v.v.>.>.,.>.>.>.>.;.>.,.v.>.>.y.>.:.>.>.>.y.<.: ; # m >.>.>.>.>.>.>.,.<.u r p F 6.:.:.>.t.y.v.v.y.v.>.>.>.>.y.v.y.>.>.>.>.",
":.>.>.,.>.>.>.>.>.>.,.,.>.>.>.,.t.>.t.>.>.>.>.>.>.V & t u 4.>.,.y.,.,.>.>.:.*.N s r f F 7.:.y.>.:.>.>.>.>.>.>.>.>.y.,.>.>.:.>.>.",
";.:.>.,.,.>.>.>.>.>.,.;.>.>.>.y.>.y.>.:.>.y.>.:.>.<.t m =.>.,.y.t.,.>.y.>.>.>.=.M r a J 7.>.y.>.>.:.:.>.>.v.>.>.>.>.>.>.:.>.:.>.",
">.:.,.,.>.>.;.f.f.,.>.,.>.:.>.>.y.v.y.>.>.y.,.y.,.&.0 =.v.>.>.>.:.,.,.y.>.>.:.=.x r p F 7.>.y.y.v.v.:.:.y.y.>.>.>.>.>.>.>.>.>.:.",
",.>.y.y.>.>.>.>.>.,.y.y.>.:.>.>.y.v.y.y.y.v.y.y.y.t.t.y.,.>.>.>.>.>.y.y.t.>.>.:.<.u s Z :.>.v.v.v.y.>.>.v.y.>.:.>.>.>.>.v.y.>.:.",
"v.>.y.y.>.>.>.>.>.y.y.y.y.>.>.>.y.y.y.y.y.y.y.y.y.y.y.y.v.>.:.:.>.>.y.y.t.>.>.>.t.V C 9.v.>.v.v.v.v.>.y.v.y.>.-.>.>.>.y.v.y.>.:.",
"y.,.y.y.>.>.>.>.y.y.v.v.,.>.>.>.>.>.y.y.y.y.y.y.y.y.y.y.v.,.>.>.>.,.y.y.y.>.>.>.y.t.>.y.y.y.y.v.v.y.y.y.v.y.y.:.>.>.y.v.v.y.>.>.",
"y.>.y.y.v.>.>.>.,.y.v.,.,.>.f.>.>.>.y.y.y.y.y.y.y.y.y.y.y.,.>.>.>.y.y.y.y.>.>.>.>.y.>.y.y.y.:.v.y.y.y.v.v.y.y.>.>.>.y.y.y.y.>.>."
};
