/* XPM */
static char *_8201_52fb2ab535edf95987522e067c10e2c3f56140eab1af66fdbffd3ed5080b3440[] = {
/* columns rows colors chars-per-pixel */
"64 64 207 2 ",
"   c #06060F",
".  c #11060E",
"X  c #1D090F",
"o  c #010510",
"O  c #050A14",
"+  c #0B0A13",
"@  c #0E0D1B",
"#  c #1B0911",
"$  c #110F1D",
"%  c #1A0D1A",
"&  c #12111E",
"*  c #1A1B1D",
"=  c #240E19",
"-  c #3B0D14",
";  c #3C101D",
":  c #080F21",
">  c #120F20",
",  c #0B1322",
"<  c #071928",
"1  c #141323",
"2  c #191021",
"3  c #171A25",
"4  c #1B1B26",
"5  c #151728",
"6  c #181728",
"7  c #141829",
"8  c #1B1B2C",
"9  c #161E34",
"0  c #1E1F30",
"q  c #231423",
"w  c #2A1927",
"e  c #221F2E",
"r  c #331623",
"t  c #341A26",
"y  c #3B1D2D",
"u  c #301F32",
"i  c #0C202F",
"p  c #1E2123",
"a  c #1A222B",
"s  c #082135",
"d  c #152235",
"f  c #1D2132",
"g  c #13263B",
"h  c #22232D",
"j  c #252929",
"k  c #26292B",
"l  c #3C212F",
"z  c #2B312D",
"x  c #222335",
"c  c #262C37",
"v  c #2A2C35",
"b  c #25253A",
"n  c #2A263D",
"m  c #2B2B3C",
"M  c #392231",
"N  c #2D3134",
"B  c #2E313B",
"V  c #343C35",
"C  c #33373B",
"Z  c #353B3C",
"A  c #460B10",
"S  c #4C0C10",
"D  c #530E15",
"F  c #5B0D11",
"G  c #44101A",
"H  c #491018",
"J  c #58141B",
"K  c #790C0F",
"L  c #630E10",
"P  c #690E13",
"I  c #730D13",
"U  c #7B0D11",
"Y  c #760F1A",
"T  c #681018",
"R  c #78151C",
"E  c #7E211E",
"W  c #431A25",
"Q  c #4B1925",
"!  c #591C29",
"~  c #641A25",
"^  c #691C28",
"/  c #741620",
"(  c #721924",
")  c #4A202B",
"_  c #57312F",
"`  c #562637",
"'  c #782628",
"]  c #673F39",
"[  c #335F16",
"{  c #356016",
"}  c #35621C",
"|  c #3A651C",
" . c #3B433B",
".. c #3E493D",
"X. c #3C6621",
"o. c #3C6822",
"O. c #4A473C",
"+. c #416B23",
"@. c #456E2A",
"#. c #457026",
"$. c #47702D",
"%. c #49712D",
"&. c #476E30",
"*. c #477130",
"=. c #4C7333",
"-. c #4E7639",
";. c #53763A",
":. c #55793C",
">. c #18334C",
",. c #222C43",
"<. c #2C2B42",
"1. c #322D46",
"2. c #322F48",
"3. c #2D334D",
"4. c #333441",
"5. c #353B45",
"6. c #34324B",
"7. c #38364E",
"8. c #393651",
"9. c #3A3955",
"0. c #3C3A54",
"q. c #46334C",
"w. c #413E59",
"e. c #3A4547",
"r. c #3C4544",
"t. c #434B46",
"y. c #41454C",
"u. c #444D4B",
"i. c #494F4A",
"p. c #475146",
"a. c #495346",
"s. c #47514B",
"d. c #4A554B",
"f. c #4D594C",
"g. c #555348",
"h. c #525D4C",
"j. c #414551",
"k. c #444B53",
"l. c #4D5754",
"z. c #4E5A52",
"x. c #535D5C",
"c. c #54644E",
"v. c #586B4D",
"b. c #5A7741",
"n. c #567A41",
"m. c #5B7B45",
"M. c #5C734E",
"N. c #5E7C4C",
"B. c #556553",
"V. c #566953",
"C. c #5B6D53",
"Z. c #57645A",
"A. c #5B6D5A",
"S. c #5D7353",
"D. c #5E7A52",
"F. c #5F715C",
"G. c #657A45",
"H. c #607D4D",
"J. c #6C7E4C",
"K. c #73794E",
"L. c #6E6A54",
"P. c #607554",
"I. c #627B54",
"U. c #6C7A51",
"Y. c #61755B",
"T. c #647C5A",
"R. c #797954",
"E. c #7F7A57",
"W. c #596163",
"Q. c #647860",
"!. c #870B0F",
"~. c #960B0F",
"^. c #9C0C0F",
"/. c #850D11",
"(. c #8C0D11",
"). c #930D11",
"_. c #9C0D11",
"`. c #910E1A",
"'. c #85141A",
"]. c #8D1D1C",
"[. c #A60B0F",
"{. c #A20E12",
"}. c #AC0D11",
"|. c #B30D12",
" X c #BA0E12",
".X c #A61416",
"XX c #B51114",
"oX c #832A26",
"OX c #92322C",
"+X c #8C3830",
"@X c #CB0A0E",
"#X c #C30D13",
"$X c #C31219",
"%X c #89493C",
"&X c #9D4339",
"*X c #8A5546",
"=X c #885848",
"-X c #8B5949",
";X c #965142",
":X c #AA5F4D",
">X c #8A674E",
",X c #906A51",
"<X c #877756",
"1X c #62814D",
"2X c #6B814D",
"3X c #648152",
"4X c #748255",
/* pixels */
"| } o.o.{ | o.+.+.o.| | +.+.+.o.+.| o.#.#.| | | #.| | | o.o.o.| o.| +.| #.| o.| o.#.| | o.| o.{ } | o.+.+.o.| | +.#.+.| | | +.#.",
"o.o.o.| { | o.o.+.o.+.+.+.o.+.o.o.| o.o.o.| | | | | } | o.o.o.o.o.| +.| +.| o.| | +.} | o.| o.{ | | o.o.o.o.o.| o.o.o.| | o.o.| ",
"+.o.o.| | | | | o.o.+.| o.| o.o.+.| o.o.o.| o.| o.| | | o.o.o.o.o.| o.| +.| o.o.| o.| | o.| +.| | | | | o.o.o.o.| | o.| o.o.o.| ",
"o.| | | | | | | | | | | o.| o.o.| o.o.o.| | o.| o.| | | | | | o.o.| o.| o.| o.o.| o.} o.o.| | | o.| | | o.o.o.o.| | | | o.o.o.| ",
"| | | o.o.| | | | | o.| +.| o.| o.o.#.o.| o.o.| o.o.| o.| } | o.o.o.o.| | | o.o.+.o.| o.o.| o.o.o.| | | o.o.| o.+.| | | o.+.o.| ",
"} | o.o.+.| | | o.| o.o.+.o.| [ o.o.o.+.| o.o.| o.| | o.o.| | o.| o.#.| | | | o.+.o.o.o.| | o.+.o.| J.2XX.| | | +.o.| | | o.o.o.",
"| o.| | o.| | +.o.| o.| +.o.| } o.| +.o.| | o.o.| | o.o.o.o.o.o.o.o.o.| | | | | o.| | | | | | o.o.o.>XoXR.| | o.o.o.| | | o.o.o.",
"| X.| } o.o.o.@.+.| o.| +.| o.| o.| | o.| | | o.| | o.o.o.o.o.| o.o.o.| | | | | | | | | | | | +.o.o.;.E.2X| o.+.| | | | | | | o.",
"o.o.| o.o.@.+.X.| o.o.| | | o.+.o.| | | | } | +.o.+.| +.| o.| o.o.| | | #.o.o.| | | | o.o.| o.o.o.+.o.;.2X| | | | | o.+.| | | | ",
"o.@.| +.| +.| | | | | } } | o.+.o.o.o.| | | | o.o.@.o.@.} o.| X.o.| | o.o.o.o.o.| | | o.o.o.o.o.+.+.:.=X-X+.o.| | o.o.o.+.o.o.| ",
"o.@.| #.| +.| | | | | | | | o.+.o.+.+.o.| o.o.| X.+.+.+.| } | o.o.| } o.| +.o.+.o.o.} | o.o.+.+.+.+.,X/.&X4X| | | o.o.o.o.#.o.| ",
"| +.| #.| +.| | | o.o.o.| | o.o.| +.@.o.o.+.o.| o.o.| +.| | | +.o.| | o.o.o.o.#.o.o.| | o.o.+.o.o.o.<X}.|.%X=.| o.+.o.o.o.+.+.o.",
"| | o.| o.o.o.+.o.o.o.o.o.+.o.o.o.o.o.o.o.o.o.| o.| | o.| | N.3X3X1X;.o.o.| o.+.o.+.o.o.| | o.| X.m.:X#X|.+X4X| o.o.o.o.o.| o.+.",
"o.| o.| o.| o.| | o.o.o.o.o.o.o.+.| | o.+.o.| o.o.| | o.| T.v m 4.v V.n.+.| o.| | +.o.o.| | +.| 2X%X.X#X}.K ' 4X+.o.;.o.o.| | +.",
"+.o.o.| o.o.o.| } | o.o.o.o.| o.o.| | o.o.+.o.o.o.o.o.%.S.h x 7.8.<.8 a.1X| | | | +.o.o.o.o.+.%.%X/.|.#X|.!.I E E.<X-X*.| | | +.",
"o.o.| +.o.+.| | { | +.o.| | | o.o.| | | | +.o.o.| +.+.Y.8 n 3.i < < < s r.1X| | o.+.| o.o.+.+.4XOX}.#X#X#XXX(.K E E *X+.| o.o.o.",
"o.o.o.o.o.| o.| o.| +.| | o.} o.o.o.o.o.| o.+.o.o.o.-.h.<.3.h G q < w W f V 1Xo.o.o.| o.+.| 2X+XXX#X XXX|. X|.).K K -X@.| | +.| ",
"| o.o.o.o.| o.| +.| +.| | o.| o.o.o.+.o.| o.o.o.o.o.Z.4 <.>.) @X~ < `.$XM a 1Xo.o.o.| o.o.| 4X]. X X).P /.[.[.|._.K *X+.| +.+.| ",
"| o.| o.o.| o.| +.o.o.| | X.} | o.+.+.X.| | | | o.@.i.@ 1.3.8 G w : ; Q h p 1X+.o.o.| o.o.| R.].|.(.P L K ^.^.[.|._.=Xo.o.o.+.| ",
"| o.| +.o.| +.| o.o.o.| | | | | o.+.+.@.T.m.| o.o.=.p.@ <.8.< < , > , < 8 k 1Xo.o.o.| o.o.o.J.].|.U F /.K S (.^.|.}.-X| o.| +.| ",
"| o.o.o.o.| o.o.| | o.| } | | o.| o.X.@.W.x.m.+.=.B.8 @ <.8.f 1 1 > 8 8 8 y.m.I.I.| | | o.o.J.].|./.U ^./.X - L }.}.-X| o.| +.| ",
"| o.o.+.o.| o.o.| | o.o.o.o.o.o.| X.| @.x.w.z.A.f.x & @ 6 <.8.6.b 8 8 1 $ v a.v c.| o.| | +.J.]. X|.(.!.^.K S F {.}.*X| o.| | | ",
"| o.o.@.+.o.o.o.} | | o.o.o.o.| +.+.| @.Z.1.2.8.2.8 6 <.e 1 b b 0 6 $ 8 <.1 + 1 v D.o.| | +.J.].~. XU S /.^.~._.XX}.*X+.o.o.| | ",
"{ | o.+.+.| +.+.| | | | o.o.| } @.+.| &.l.6.1.<.6.1.b ,.9 9 n @ @ + e 1.b @ @ & @ i.o.| | +.2X/ K |.I . S K /.XX}.;X:.+.o.+.| o.",
"o.o.| o.| | o.o.o.| +.| o.} o.| | +.@.T.B b x e 8.9.b ! Q g ,.1 > b 2.b @ O > : @ k P.+.+.| X.R.oX).F o S _.{.^.>X;.| | +.X.| +.",
"o.o.| o.| | o.o.o.| o.| o.| o.} | +.N.j.c 8 6 <.9.<.7 D Y ( ! e ,.2.9 = - # + > 1 @ v ;.o.[ | | K.' A o S _..X,X=.| | | +.| X.+.",
"+.+.| +.| | o.| o.| o.| o.| o.| | o.N.B x f 6 b ,.q D w y ( Y ^ q.,.n H G % O @ $ $ Z %.+.| +.| | G._  .U.R.R.%.| { | | o.o.X.+.",
"@.+.+.+.o.| +.o.| | o.| o.| o.| | o.-.F.m 8 8 8 7 w T / M s 8 ( ( ` ` - 2 t g. .+ + h P.+.o.+.o.| m. .S.| } | | +.+.| | +.o.o.+.",
"+.+.+.+.| | +.+.o.| o.| +.| +.| | o.o.:.i.8 6 1 n B.B J / ^ ! x ^ ^ y > ) L.=.H.t.@ & m T.+.@.o.o.p.+ P.| | | o.o.+.| | X.o.o.+.",
"| +.+.+.o.| @.+.o.| o.| +.o.+.| | o.| =.s.8 1 c T.o.D.4.! '.'.! b ,.1.A ] :.| o.I.4 3 6.0.Y.%.o.o.p.. S.| | | o.+.+.o.| | | o.+.",
"| X.@.o.+.| +.o.o.} | | o.o.+.| | | | 3Xy.0 e A.+.o.| V.9 f t Y ^ l Q _ L.%.| o.:.u.x x x 7.Q.| | a.+ v.| | | o.o.o.o.| | | | o.",
"| o.+.+.+.| o.| o.| | | o.| o.| o.| I.Z 2.n <.Q.+.o.| I.4.s d q Y Y ; h.@.| | +.| -.Z.B f <.A.+.| t.z I.| | | o.| o.o.| | | } | ",
"| o.+.o.| o.| o.o.o.| | | o.o.| o.H.m 0 b 6.y.T.o.o.| o.I.t s g 8 % 2 g.m.| o.| | o.@.l.b x x V.| a.I.o.| | | | o.o.o.| | | | | ",
"o.| +.o.| | o.o.o.o.o.| | o.o.o.| T.x 6 7.k.I.o.+.| | | K.R y q.u % G D O.m.o.| o.+.o.Z.6.x b d.n...I.+.o.o.o.| o.o.o.o.| | o.#.",
"+.| o.| { | o.o.o.+.+.| | +.+.X.H.k.c 8 4.D.o.o.+.| } C.b ! (.`.T F S X + V 1X| o.o.o.Y.j.2.<.0.N * H.X.o.o.o.o.| o.o.o.| o.+.+.",
"o.| o.o.} | o.| | o.o.| | o.X.| Y.6.0.0.e.n.o.o.+.o.B.x d f r r = X # O + * 1Xo.o.o.| @.F.<.,.b 1 1 H.| o.o.o.| | o.o.o.| o.| | ",
"o.| +.o.| | | | | o.o.| N.A.:.P.j.1.c s.b.| o.o.:.f.4 0 e 7 d 3.1 O : 1 $ p 3Xo.o.o.o.| o.T.k.7.x 4 H.| o.o.o.o.| | | | o.o.| | ",
"| | o.o.o.o.| | | o.o.o.N.B t.y.<.x f.n.o.o.| -.s.x 0 6 6 8 8 8 1 > 6 8 1 + V 3X@.+.o.o.| | T.B 6 B H.| | | o.o.o.| | | o.o.o.o.",
"| o.o.| o.o.| o.o.| | o.1Xe.x x c B.=.+.o.| | N.x f 8 1 6 <.<.@ @ 6 0 6 1 $ + D.+.o.o.o.| | o.T.N I.| | | | | o.o.| | | o.o.o.+.",
"| o.| | o.o.} #.+.| | o.+.N.r.c C.@.| X.X.| b.t.5 6 8 1 6 c 8 1 8 f 8 > > > + V 3X| | | | | | :. .H.| o.X.X.| o.o.| | o.o.| | o.",
"| +.| o.o.@.| o.+.| | o.o.} b.1X+.| } | | M.r.6 > 1 e 6 6 1   $ 6 6 5 1 1 $ + + c.| | | o.| | ;. .2Xo.+.} o.o.o.| | | o.o.| | | ",
"| +.| +.o.+.| o.| | | o.| } | @.| X.o.| } h.7 8 6 5 0 5 e <.@ @ 1 & 6 6 1 > $ @ c.| | | o.| ;.S.I.%.X.+.| o.| | | | o.| | | | | ",
"o.o.| +.o.@.| o.} | X.| | } X.+.o.+.+.| } B.1 6 0 1 1 <.2.<.8 + @ 8 f x 8 5 1 $ c.| | o.o.o.I. .*.o.| | | | | | | o.+.| | o.o.| ",
"+.| o.#.| o.o.| | o.X.| | | o.+.o.+.o.o.| c.6 8 6 > n 1.e k.C.j @ 8 l.Y.B 6 1 $ v.o.| o.o.o.N.O.*.| } | } o.o.} | o.+.o.o.+.o.| ",
"o.| | #.| o.+.| | o.o.| | o.o.| o.o.o.o.o.N.t.6 6 n 1.1.b S.=.Z > z.1Xm.e.f 8 1 c.+.o.o.o.| H. .=.| o.| o.o.o.| o.o.+.o.o.+.+.+.",
"o.| | o.| o.+.| | +.o.| o.+.o.| o.| o.+.+.| n.a.b 0.e <.<.B.X.D.h I.@.T.B a f 3 c.+.o.o.| | m. .=.o.o.| o.o.o.| o.| o.o.o.o.X.+.",
"o.| | o.o.o.o.| | | o.| o.+.o.| | | o.o.o.| @.A.b 2.e 8 r.D.} o.D.n.N.m 7 $ 5 4 V.o.| o.o.@.P.P.o.| o.} | | o.| o.o.| o.| | o.+.",
"+.| o.o.o.o.o.| { | o.o.o.o.o.+.| | X.+.o.o.I.6 9 f b 6 D.| [ | o.=.C.h @ 1 + 4 S.o.o.o.o.M.h.| o.| o.[ | | #.| +.o.o.| | | | o.",
"+.o.o.o.+.| +.| | | +.o.| o.| o.| | o.o.| =.B.8 x x x 5 D.} | | | C.& @ & $ + 1 C.o.o.+.o.v.h.o.o.o.| | | X.+.| +.| o.o.| | o.o.",
"o.o.o.o.o.| | | o.o.o.o.| o.| | +.X.X.o.| V.x x f f 6 C 1X| o.o.+.v.@ 1 $ + O + c.o.o.+.+.M.f.| +.X.o.| | o.+.| o.| | o.o.o.o.o.",
"| | | +.o.o.o.| o.o.+.| } | | | @.o.+.o.| P.n x 0 1 e N.o.| o.#.o.N.N @ +   + p S.| o.| +.v.f.| | | o.o.o.+.| [ | } | o.o.@.o.| ",
"| | | +.| o.o.| +.o.o.| } | | | o.o.+.+.o.+.D.8 0 6 Z :.o.| o.o.X.| v.& + + k D.+.| | } +.P.S.| | } o.o.X.o.| [ | | | | o.+.+.| ",
"| o.| +.| | o.| o.| o.} | | | o.| o.o.o.o.o.D.0 6 r.b.o.o.| o.o.o.M.h + + V N.| #.} o.} C.S.%.| o.| o.o.o.+.o.| | | | | | o.+.| ",
"o.o.o.+.| } o.| o.| o.| | X.o.X.o.X.| | | P.4.h r.m.| o.o.| | | o.v..   z m.X.| o.| +.| a.S.X.| o.o.o.| | o.o.} o.| o.o.| o.+.| ",
"| o.+.+.| | +.o.| | o.| o.+.o.o.+.+.| } | A.x 8 d.$.o.o.o.| | | o.M.*   V @.+.| | | +.o.h.P.o.o.| | o.| | o.o.| o.| o.o.o.o.| | ",
"| | o.+.@.| +.+.| | o.o.o.X.| } +.+.| o.o.B.8 6 i.=.X.o.o.| o.| o.+.C.+ V =.+.+.| | o.| =.=.+.#.| o.o.o.| o.o.| o.| o.+.+.o.| | ",
"| | o.#.| o.o.o.| | | | | | | | o.#.| o.F.5.6 1 i.*.o.o.@.o.| | | | N.3 4 h.@.+.| | o.[ o.o.o.#.o.o.o.| o.| +.+.o.| | o.+.o.| o.",
"o.o.| o.{ | | | | o.o.| | o.| | | +.| -.s.a 5 t.n.| | | o.o.o.o.o.o.*.M.a h :.+.| | o.{ o.| | | | o.o.| o.| | o.| | } o.+.| | o.",
"o.o.| | { | | #.o.o.o.| | o.| | | o.| -.s.3 5 c.| } | | o.| o.o.o.o.o.o.M.Z :.X.| o.o.| +.| | | | | o.| o.| | | | | | | o.| o.o.",
"o.o.o.o.| | o.o.| | | | | o.| | | o.o.:.s.7 1 c.o.o.| | o.| | o.| | o.o.| b.$.+.o.+.| | +.| +.| | o.o.| o.o.| | | o.| | | o.o.+.",
"o.o.#.o.o.o.o.o.| | | | o.o.o.| | | #.#.D.C p.1Xo.o.o.| +.| | | | | o.+.o.| o.+.o.+.| | +.o.#.+.| o.+.o.| | | o.o.o.| | o.o.o.o.",
"o.o.+.+.o.| o.o.| | | o.o.o.o.o.| | | #.o.1Xm.o.+.o.o.o.+.| | | | o.o.| o.| | o.o.+.o.o.+.o.#.o.| o.o.o.| | | o.+.+.| | o.o.+.o.",
"+.o.+.o.+.| +.+.| | | o.o.#.o.| | | o.| o.o.o.o.+.o.o.| #.o.| | o.o.+.+.o.| | o.o.| +.o.o.+.+.o.| @.o.o.| o.| o.+.+.| | o.| | o.",
"o.| +.o.| | +.+.| | | o.+.+.o.| | o.| | o.+.| o.+.o.+.| #.o.| | o.o.o.+.o.| | o.| | +.o.| +.o.+.| #.o.o.| +.| +.o.| | | | | | o."
};
