/* XPM */
static char *_6248_9c53446452ba5ffc8b51e5b1c6c626b70279f72d5c4b178fc4bacb832c298316[] = {
/* columns rows colors chars-per-pixel */
"64 64 227 2 ",
"   c #345F16",
".  c #356016",
"X  c #35621C",
"o  c #3A651C",
"O  c #3C6621",
"+  c #3C6822",
"@  c #416B23",
"#  c #446E29",
"$  c #486F2B",
"%  c #457026",
"&  c #47702E",
"*  c #4A722E",
"=  c #4D7433",
"-  c #517635",
";  c #527834",
":  c #56793B",
">  c #5A7D3D",
",  c #5E8042",
"<  c #648345",
"1  c #6A8647",
"2  c #6B8649",
"3  c #6C8A4D",
"4  c #758C4D",
"5  c #7C8B4F",
"6  c #768D52",
"7  c #7C9354",
"8  c #7B9458",
"9  c #BE8B01",
"0  c #BE8906",
"q  c #BF9002",
"w  c #B78D1C",
"e  c #BD921A",
"r  c #AE9228",
"t  c #B6922A",
"y  c #A98E35",
"u  c #AA933C",
"i  c #B99836",
"p  c #C18E03",
"a  c #C49203",
"s  c #C99603",
"d  c #C79805",
"f  c #CD9B03",
"g  c #C6970E",
"h  c #CD9B0A",
"j  c #D39C03",
"k  c #D79C05",
"l  c #D39D0B",
"z  c #C79812",
"x  c #C59B12",
"c  c #C4961D",
"v  c #C69C1B",
"b  c #CB9D1C",
"n  c #D19C10",
"m  c #D5A103",
"M  c #DCA503",
"N  c #DEA905",
"B  c #D6A30A",
"V  c #DBA50A",
"C  c #DDAA0D",
"Z  c #CEA113",
"A  c #D5A313",
"S  c #D7A914",
"D  c #DDAB13",
"F  c #D2A51A",
"G  c #D5A81A",
"H  c #DCAC1C",
"J  c #E1A505",
"K  c #E4AB03",
"L  c #EAAE03",
"P  c #E1A70F",
"I  c #E3AC0A",
"U  c #EAAE09",
"Y  c #E6B102",
"T  c #EDB304",
"R  c #EEB907",
"E  c #E5B10D",
"W  c #EDB40B",
"Q  c #EFBA0A",
"!  c #F1B503",
"~  c #FAB704",
"^  c #F4BA04",
"/  c #FDBD04",
"(  c #F1B60B",
")  c #FBB70A",
"_  c #F4BA0A",
"`  c #FCBD0A",
"'  c #E4AD12",
"]  c #E2AF1B",
"[  c #E6B212",
"{  c #ECB513",
"}  c #EEBB15",
"|  c #E5B31C",
" . c #E9B51D",
".. c #EDBA1B",
"X. c #F2B715",
"o. c #F3BC13",
"O. c #FFBF11",
"+. c #F3BB1C",
"@. c #C59B27",
"#. c #C49C34",
"$. c #CBA224",
"%. c #CAA428",
"&. c #D2A626",
"*. c #D6AA23",
"=. c #DBAC24",
"-. c #D3A428",
";. c #D6AA2C",
":. c #D9AC2D",
">. c #C6A638",
",. c #D4AB37",
"<. c #DCB133",
"1. c #DBB23B",
"2. c #D8B53B",
"3. c #E1AF28",
"4. c #E4B424",
"5. c #ECBC25",
"6. c #E4B52C",
"7. c #EDBD2D",
"8. c #F3BE23",
"9. c #F3BE2B",
"0. c #E3B533",
"q. c #E4BA34",
"w. c #EBBD33",
"e. c #E4B93C",
"r. c #E7BB3C",
"t. c #F2BF37",
"y. c #FDC104",
"u. c #FDC10C",
"i. c #FCC314",
"p. c #F5C11C",
"a. c #FAC519",
"s. c #FBC31C",
"d. c #EFC129",
"f. c #F3C124",
"g. c #FBC522",
"h. c #FEC926",
"j. c #F3C12C",
"k. c #FAC729",
"l. c #FEC92C",
"z. c #EEC334",
"x. c #EDC33B",
"c. c #F2C233",
"v. c #FBC633",
"b. c #F6CA35",
"n. c #FECB33",
"m. c #F2C43C",
"M. c #F9C63B",
"N. c #F5C93C",
"B. c #FCCD3C",
"V. c #898C4A",
"C. c #968E44",
"Z. c #87904F",
"A. c #8A914F",
"S. c #93944D",
"D. c #9B954B",
"F. c #9C9948",
"G. c #848E52",
"H. c #8A9755",
"J. c #8C9B5B",
"K. c #959A58",
"L. c #A79444",
"P. c #B29E45",
"I. c #A59E57",
"U. c #97A35C",
"Y. c #ADA95E",
"T. c #BBAB53",
"R. c #BCB25D",
"E. c #8EA063",
"W. c #91A261",
"Q. c #9AA362",
"!. c #A3AA63",
"~. c #AAAE63",
"^. c #AFAF64",
"/. c #B8B467",
"(. c #C4AA45",
"). c #CAB44B",
"_. c #D4B645",
"`. c #DDB541",
"'. c #C8B557",
"]. c #CCBA5D",
"[. c #D6BC55",
"{. c #E2B744",
"}. c #E4BB43",
"|. c #E3BE4B",
" X c #EABF48",
".X c #C3BA60",
"XX c #D2BE63",
"oX c #EBC444",
"OX c #E8C647",
"+X c #E5C24C",
"@X c #ECC44B",
"#X c #F2C644",
"$X c #F4CA44",
"%X c #FACD44",
"&X c #F3C64B",
"*X c #F4CA4C",
"=X c #F9CC4B",
"-X c #FFD245",
";X c #FCD34E",
":X c #E4C253",
">X c #ECC452",
",X c #EDC953",
"<X c #EAC55C",
"1X c #F4CC53",
"2X c #FACF57",
"3X c #F4CD5A",
"4X c #F4D155",
"5X c #FCD454",
"6X c #F5D25D",
"7X c #FCD45C",
"8X c #FED85D",
"9X c #F4CE64",
"0X c #F9CF66",
"qX c #F4CF6B",
"wX c #EFD369",
"eX c #F4D365",
"rX c #FBD563",
"tX c #FDDA64",
"yX c #F3D26A",
"uX c #FBD569",
"iX c #FDDB6C",
"pX c #F9D673",
"aX c #FEDB73",
"sX c #FEDC79",
"dX c #FCE17E",
"fX c #FDDD82",
"gX c #FCE181",
/* pixels */
"o X + + . o @ @ @ o @ o @ @ @ + % o o % + o o o % o o o + + + o + o @ o @ o + o + % o o + o + . X o + + % o o o % + % o o o + % ",
"+ + + o . X + + @ @ @ o o + @ + + o + + + o + o o o X o + + + + # o @ o @ o @ o o + o o + o + . o o + + + + + o + + + o o o + + ",
"@ + + o o o + o + + @ o + o + + + o + + + o + o o o o o + + + @ + o + X @ o @ + o + o o + o + o o o o o + + + + o o + o + + + o ",
"+ o o o o o o o o o + o + o + + + + + + o o + + + o o o o X o + + o + X + o + + o + o + + o + o + o o o + + + + o o o o + @ + X ",
"X o o + + o o o o X + o @ o + o + + + o o + + o + + & , 8 W.!.~.~.Q.U.H.6 : & + % o o + + o + + + o o o + + o + @ o o o + @ + o ",
"X o + @ @ o o o + o + + @ + o   + + + % o + % , E./.XX<X3X4X=X$XB.%XN.B.oX:X].!.8 : + + o o + @ + o o + + o o o @ + o o o + + + ",
"X + o o + o o @ @ o + o # + o X + o + + * 7 /.<X=X;X5XtXtXiXtX;Xb.n.l.h.h.n.n.b.OX[.!.< # X o + + + + + + o o + o + o o o + + + ",
"o @ X o + + + @ @ o + o @ o + o + o & 8 .XOXN.B.B.5XtXiXaXiXaXtX%Xh.a.a.a.a.a.h.l.b.b.OX/.1 o @ + + + % + o + + o o o o o o o + ",
"+ + o + + # @ + o o + o X o + @ O , /.&X$Xn.l.h.k.b.;XtXiXpXaXaXtXB.h.a.u.i.u.a.a.i.h.l.N.:X!.= o @ @ @ o o o o o o + @ + o o o ",
"@ @ o # o @ o o o o o o o o + * Q.|.M.n.n.n.l.h.h.h.n.-XuXiXaXsXaXtXB.h.i.i.u.u.u.u.u.i.g.k.M.XX6 @ + o o + + o o + + + @ + + o ",
"+ @ o % o # o o X o o o o o , /.#Xn.n.n.l.l.h.h.h.h.h.k.;XtXaXaXaXaX8XB.k.i.i.u.u.u.u.u.i.a.h.l.+XW.@ o o + + X o + + + o # + o ",
"o @ o @ o @ o o o + + + o 3 ].m.b.n.l.n.l.l.h.h.h.h.h.g.l.;XtXaXaXaXaXtXB.s.i.u.i.u.i.u.u.u.u.a.h.x.!.& o @ + X + @ + + + @ @ + ",
"o o + o + + + + + + + O 3 [.m.B.n.n.l.l.l.h.h.h.h.h.h.s.f.j.#X*X1X,X3XrX5XB.s.i.u.u.u.u.u.y.u.y.u.h.b.~.= + + o @ + + + + o + # ",
"+ o + o + o + o O O + 3 ].N.%Xn.n.n.n.n.l.h.h.h.h.s.+.[ I C V A F n F *.*.4.8.+.i.i.u.y.u.u.` y.y.u.a.b.^.& + + @ + + + + o o @ ",
"+ + + o + + + o X o , ].#Xn.n.n.n.n.l.l.l.l.h.s.} I K K K T W T T R T Y N k k k Q _ i.u.u.y.y.y.` u.i.s.c.!.% + o + + + o o o @ ",
"+ + + @ + + o O   $ .Xr.n.n.n.n.n.n.l.l.l.h.o.Y K Y T ^ _ ^ ` ~ ^ ^ ^ ~ ` ^ U J m m E i.u.y.y.y.u.u.y.u.h.x.J.o + + o o o + + + ",
"+ + + + + o + o + K.}.M.B.n.n.n.n.l.l.h.s.{ L Y ! ^ ^ _ ^ ^ ^ ^ / ^ ^ ^ ~ / ~ ~ ( V h m ( ` / ` u.y.u.y.u.h.|., + X o @ X @ @ o ",
"o + + + + o + o 2 [.*X5X%XB.n.n.n.n.h.+.U U ( ^ _ ! ^ ^ ^ ^ ! ) ^ ~ ~ ) ^ / / / ` ) W f j X.u./ / u.y.u./ i.f.R.@ X o @ o @ @ o ",
"o + o + + o + @ /.@XuXiX5Xn.B.n.n.l.s.( U ( ! ! ^ ^ ^ ^ ) X.o.+.+.8.8.X.~ ^ ^ / ^ / ` Q k j U O.u.u.u.y.y.` s.d.H.X + + + @ @ . ",
"o @ o @ + o + 7 _.3XiXiXiX5XB.n.l.g.X.U ! ( ! ! ! ! Q } c.1XrXiXiXiXrX2Xc.o.~ ^ ~ ~ ~ ) ) k f X.O.` y.y./ y.u.g.[.= + X @ o @ o ",
"o @ + + + o # ^.`.uXaXaXiXiX;XB.9.( L ! L ! ! T R Q 7.3XtXdXsXsXdXaXdXaXiX1X8.) ~ ~ ~ ) ^ ! j k X.` y./ y.y.y.i.j.J.@ o + o @ X ",
"  + + @ + o 2 (.OXtXaXaXaXiXtX-X+.L ! ! ! ! ! T Q z.7XpXaXaXaXaXiXiXaXaXsXaX7X9.( ) ~ ~ ^ y.U j J u.y./ y.y.y.y.a.'.% o + o o o ",
"o + + # @ + !.,.oX4XtXiXaXiXtXB.) ! T T T T T { z.tXaXaXpXdXaXaXaXaXaXaXaXaXiX5Xd.R ^ ^ ^ ^ _ I f W y.y.y.y./ y.y.w.7 o @ o o o ",
"  o + @ @ $ T.0.x.x.4XtXdXiX4Xd.T L T L T L W 7.6XiXiXdXpXiXaXaXaXaXaXaXaXaXaXdX5Xd.! ^ ^ ^ ^ ( m m y.y.y.u.y./ ` 8.Y.@ + @ o + ",
"+ +   @ o 2 (.r.#Xt.m.5XtXiX%X{ L K T L E Y  .4XiXaXaXaXaXpXsXpXaXaXaXaXaXaXsXaXiX-X{ ( ^ ^ ^ ^ K f T / / ` y.y.y.o.).% + + o @ ",
"@ + O +   J.,.&X&Xt.z.B.;X8Xz.R L K U L Y Y c.rXaXaXaXaXpXsXaXsXaXsXaXaXaXaXsXaXaX5X+.Q Q ^ ! ^ ( f V i.u.y.y.y.y.i.z.3 + + o @ ",
"@ @ o @ o ^.1.3X3X@Xx.b.B.B.+.U K L L L Y [ $XiXaXaXaXaXpXaXsXaXaXaXaXaXaXaXaXaXaXtXc.( Q ( ^ ^ ! J l j.i.y.y./ ^ i.5.U.+ + + + ",
"@ # @ @ & T.`.eXeX3X#Xx.b.g.T K K K K L Y ] 4XtXaXaXaXaXpXsXpXaXaXsXaXaXaXaXaXaXaXtX%X{ T ! R ! ! W l r.n.s.u./ y.u.} Y.+ + + % ",
"@ @ @ + > (.|.wXqXqX3XoXj.i.T K K K K K I H 6XdXpXaXaXaXaXaXaXaXaXaXaXaXaXaXaXiXiXiX5XX.T R R ! ! ! h r.5Xn.O./ y.y.} ).% + + # ",
"O @ @ @ 3 #.+XyXwXwXyX3Xm.+.U K K K K K N 3.rXaXpXsXaXiXiXiXiXaXaXaXsXaXaXiXaXaXaXaX2XX.T ! R ! ! T l <.uX8XB.i.y.y.} ).& o + @ ",
"o O # + 8 >.|.9XwXwXwXqX=X .K J J J K K N =.eXiXaXaXpXaXpXaXaXaXdXiXdXaXdXiXaXpXaXaX2X..( T T ! ! ! B :.uXiX8XB.i.y.o._.; o o + ",
"o + @ @ 8 %.}.3X9XqXqXyX*X .J V M M M J N *.6XaXaXaXaXiXaXiXaXaXiXdXiXiXtXrXtXdXaXaX5XX.Q ! T ! T T V ;.uXaXaX8XB.i.( 2.> X o X ",
"o + % + G.$.r.&X3X9XyXyX*X4.m m B M M M V G 4XaXeXoXe.{.`.,XiXaXaXiXrXOXq.6.2.,XrXiX=X{ U T T T T T V ;.uXaXsXiX7XB...2.> o o o ",
"+ o + + 6 @.q.#X#X3XeXeX4X .k j B M N J M F 3X6X0.S S B G &.OXtXaXtXx.D N N D G {.rX=X{ L T T Y T L V =.8XaXiXaXiX8Xm._.: o + # ",
"+ o + o < #.0.t.z.#X3XrX4X5.m h f B V V B Z ,X*XG M M N C F 2.iXiX7X4.I K U U J =.1XN.E L U T Y L L k ' =XtXtXaXaXaX@X_.* + + @ ",
"@ o + + : i <.t.z.x.#X4X3X7.M s f j j B m A OX1XH V M N M G >XiXdXrXw.C K U K I <.4Xx.I K T K W L L k I g.-XtXtXaXiX X).% + o o ",
"+ o @ + $ P.;.m.c.z.x.#X1Xc.I s s f j m m n |.uX X*.V B S }.eXiXiXiX6Xq.P ' ' 3.3XrXz.I K W Y U L K k T ` s.$XtXiXtX{.'.# + o o ",
"o o + + + I.$.x.c.c.b.x.#Xk.[ j s s s f m f 1.iXsX9X@X+X,XiXdX1X2.6XiXeX<X X>XrXaXrX4.K U K I Y K K J ^ y.u.a.%XtX7Xe.~.+ + + + ",
"o + + o + J.@.w.z.c.z.z.c.j.{ B s s d d f l $.3XaXdXdXgXdXdXtXq.Z 2.eXdXsXfXfXpXiX#X' K K K K K K M K ^ y.y.` i.-X=X<.J.+ + + @ ",
"o + o o + 2 @.0.m.c.z.j.c.9.X.P s a a a s h h -.>XyXaXsXdXiX4XG m &.9XaXsXsXiX8X#X| M J I I K N K M L / ` y.y.y.s.8.,.< @ o X + ",
"o @ X + + : L.=.c.c.c.j.c.9.8.U j a a a a g h g Z 2.3XaXaXaX,X:.;.2.eXaXaXaX1X3.D J J M K N K K M K ` / / y.y.` _ E T.+ + o o o ",
"o @ X + + @ K.c w.c.z.c.c.c.8.o.K a a p p a a d h x 2.yXaXaXdXpXdXwXaXaXaX2X3.k M J J M M N M N M T y./ y./ / y.^ H J.o o o o o ",
"+ + o % + # < t =.c.c.c.c.j.9.8.{ l a p p p a a a d v 3XaXaXsXsXsXsXsXaXiX XV M M N M M M M N M K ` y.y.y.y./ y.Y >.> o o + + o ",
"@ o + % o @ + D.v 7.c.c.j.t.j.8...I d 9 p p p p p a z e.iXaXaXaXaXaXaXaX8X3.j B M m m M M M M I ( y.y./ y./ ` y.E U.% + + + + o ",
"@ o o @ o + + 2 r 3.c.j.c.c.j.j.+...C f 0 9 9 p p p p c |.uXiXiXiXiXtX7Xe.A j j j m m m M M N ^ y./ y.` y./ ` E >., % + + % + @ ",
"+ o o + o + @ + S.v w.c.j.j.j.8.f.8.X.P d 9 9 0 0 0 9 0 e %.1.{.+X2.<.*.l j j j j m m m M K T y.y.y./ y.y.u.^ C H.o o + + + + @ ",
"+ o o + + + + o : u &.c.c.9.j.f.d.8.+.X.I f 9 9 0 9 9 p 0 0 0 g z z h h h j j j j j m M K R y.y.y.` u./ y.y.Y P.; + o + o o + @ ",
"@ o + + + + + o . 4 t 0.j.j.f.f.5.f.8.+...E j p 0 0 0 9 9 0 9 9 a a d f f f f j j m N Y ^ y.y.` / y./ y.y.T %.1 % + + o o o + + ",
"@ + + + @ X @ o o o Z.@.6.j.d.f.8.d.8.f.+.+.W C f a 9 9 9 9 9 9 9 9 q a d f f k V | 8.+.y.` ` y.y.y.` ` ( F A.+ + o + + o o + + ",
"+ + + + + o o o + + = C.v 7.d.j.8.d.8.+.+.+.+.o.W N m d p p 9 9 9 9 9 a d f B | 9.%X;XB.i.` y.y.u./ ` ^ A S.% o + o o + + + + + ",
"o o o @ + + @ o + + @ - C.c 7.8.8.d.f.+.8.+.+.+.i.Q } | ] H A B l B B B K I 5.#X7XiXiX8XN.p.` y.u.u.( V F.= o   o o X + # @ + o ",
"X + X @ o + + o @ + + o - C.b 7.j.j.f.8.+.8.8.i.} o.8.m.&X#XoXr.x.d.5.{ Q { v.=XqXqXyXuXrX%Xf.` ` ( B F.; + o   o o o o + @ @ o ",
"o @ o @ X o + o + o O o   - C.c 4.f.f.f.+.8.+.o.Q p...d.,X6XeX9X3X3X$X9.X.( } m.3XyXyXyXuXeXm...I l F.; + # + X o o o o o + @ o ",
"+ + o @ o o + o + o + o o @ = V.w H d.+.+.+.+.o.} } ....z.*XyXyXyXqX7X*X7.W ( ..m.3XqXqXyXyX1X4.e A.* o o + + X + o + + o + + o ",
"o + @ @ @ o @ + o o + O O @ O @ 5 y x  .f.+.+.+.o.} } }  .w.1XeXeXwXqX9X1X7.( ( ..c.1XuX9X|.,.i 4 + + o o + + X + o + + + + + o ",
"X o @ @ @ o @ @ o o + O + + O   @ < V.r F  ...+.+.+.} } o.} 7.1XeXwXyXeXrX*X9.( T } m. X1.i S.< o + @ + o + + o + o o @ @ + o o ",
"X o + % o + + +   + o o o o o o + @ + 1 V.r x | 5...+.X.( X.+.w.1X6XqXqXqX0X=X5.E C b t F.2 @ # + @ @ X + o o % + o X + # + X + ",
"+ + o + . o o + o O + o o + o o o # o + @ < A.y c b H ' { X.X.+.z.,X9X9X<X<X{.-.e r A.< $ o o o o + + o + o + + o o o + @ o o + ",
"+ + o o . o o + O + + o o + o o o + o @ o X @ - 1 G.D.y w c z z x @.>.#.i u D.V.2 > + o @ o o o o o + o + o o o o o o o + o + @ ",
"+ + + + o o + + o o o o o + o X o + + @ + o @ + O O @ ; 1 2 5 V.Z.Z.G.6 1 : $ @ + @ o o @ o @ o o + + o + + o o o + o o o + o @ ",
"+ + % @ % o + + o o o o + + + o o o @ @ + + @ + @ + + o # o o o o X + + o o + @ + @ o o % o % @ X o @ + o o o + + + o o + + + + ",
"@ + # + + o + + o o o + + # + + o o @ @ + @ @ + @ + + + @ o o o o + + O + o o + @ + + + + @ % + o # + + o o o + @ @ o o + + + + ",
"@ + @ o @ o @ o o @ o + @ % + o o o + o + @ + @ + + + o # + o o + @ @ @ + o o + + o @ + + @ @ + o # + + o + o + @ @ o o + o o @ ",
"+ o @ + o o @ @ o o o + + + + o o + o X + @ o o @ + @ o @ + o o + o + @ @ o o + o o @ + o @ + + o % + + o + o @ + o o o o o o + "
};
