/* XPM */
static char *_6028_b8a14ade6fa43c070675207e8e4aa9d0ce95cac88c1ae86229125d83f83205d8[] = {
/* columns rows colors chars-per-pixel */
"64 64 82 1 ",
"  c #335F16",
". c #356016",
"X c #35621C",
"o c #3A651C",
"O c #3E681E",
"+ c #3F6720",
"@ c #3C6822",
"# c #436A1F",
"$ c #6E791D",
"% c #416721",
"& c #416B23",
"* c #476E28",
"= c #457026",
"- c #4D712B",
"; c #55742D",
": c #587429",
"> c #537734",
", c #577833",
"< c #5B7931",
"1 c #557A3A",
"2 c #5A7C3E",
"3 c #6B7A20",
"4 c #707E27",
"5 c #637B32",
"6 c #687E36",
"7 c #597E42",
"8 c #6C8137",
"9 c #708237",
"0 c #5F8244",
"q c #608447",
"w c #63874B",
"e c #718D4F",
"r c #6E8C53",
"t c #749057",
"y c #779159",
"u c #7A9660",
"i c #7F9A64",
"p c #A18F1E",
"a c #A8911E",
"s c #B5961E",
"d c #828220",
"f c #83852F",
"g c #888529",
"h c #9F8C21",
"j c #888D3B",
"k c #A89122",
"l c #BE9725",
"z c #BD9826",
"x c #C6970D",
"c c #C7980C",
"v c #CA9A0E",
"b c #C49613",
"n c #C69913",
"m c #CC9C12",
"M c #C2971D",
"N c #C59B1B",
"B c #C99B19",
"V c #C19722",
"C c #C59B24",
"Z c #C89D25",
"A c #C39C2B",
"S c #8A934A",
"D c #949642",
"F c #9A9A4A",
"G c #939951",
"H c #A09F55",
"J c #AFA24B",
"K c #A8A35B",
"L c #B7A556",
"P c #B5A75F",
"I c #829B64",
"U c #839C69",
"Y c #8A9D69",
"T c #94A673",
"R c #BBAD64",
"E c #C4AE5B",
"W c #C9AF59",
"Q c #CBB055",
"! c #CBB25D",
"~ c #D0B45A",
"^ c #C6AF61",
"/ c #C7B363",
/* pixels */
"oX@@.X&&#@&o&&&@@X@*&oo#&oXo@@@o@o&O&X@o@=Xo@o@.Xo@&&Ooo&=&ooo&=",
"@@@o.o@@&@%oO@@@&o@&@oooOoXX@@@@&o@o=o@oo&oo@o@.oo@O@@@o@@@oo@@@",
"&@@ooo@o@@&o@o@@@o@@@o@o@ooo@@@&@o@o&o&@o@oo@o@ooooo@@&@Xo@o@@@o",
"@ooooooooo@o@o@@@@@@oo@o@oooO#&-;;<;;&@@o@o@@o@o@ooo@@@@oooo@&@X",
"ooo@@ooooX@o&O@X@@&@o@@o&,4aMNNNNNNNNNf-&@o@@o@@@ooo@@o@@ooo@&Oo",
"Xo@@&ooo@o@@&@o.@@&&o@&o,zBBmvvvvmvvvmA@&@@@oo@&@oo@@ooo&@ooo@@@",
"o@oo@oo@&o@o&@oX@o@@oo@@5Cnvvnvbvvncnnzo@oooooo&@@@@@oo@@@ooo@@@",
"o@oX@@@*@O@O&o@o@o@@ooo@6VsncxxxccxxxnzooXooooo@@@@&@o@&ooOoooo@",
"@@X@@*&@o@@oXo@&@ +o @o&6VBmvvvmnmvvmmAoXoo@@X@@@&&@oooooo@&@ooo",
"@&o*o&oooooooo@&@@@+ooo@6ZBBmmmmmmmmmBA@ooo@@@&@@&Ooo@@oo@@@@@@o",
"@=o=o&ooXooooo@&@@%@o@@o6ZBBmmmmmmmmmmA@@@Xo@@*@&@ooo@@XoO@@@&@o",
"o&o&o*ooo@@@oo@@@@*@@@@o6ZBBmmmmmmmmmBA*@&oo@o&@@@oo@&@X@&@@@&&@",
"oO@oo@@&@@@@@&O@@@@@%%%X6ZBBvmmmmmvvvmA&@&@@oo@o@@@o@@@o&@@@@o@*",
"@o@X&o@oo@@@@@@@@o+@@%X%6ZbbxxxxvvccxnVoo&@@oo@o@@ooX@@@&@@@@oo&",
"@@@O@@&oXo@@@@@@@oX@@%%%5VbBvvvvvvcvxmloo&O@@@&O&@XXo@@@@@@@ooO@",
"@@@&@&oX.o&@oXo@@oo+@@%%:VBBmvmmmvvvmnAo@&o@@&&@oooXo@@o@@ooo@@@",
"@@@@@o@o@X&oo@X@@@o&o@&@;CBBmmmmmmmmmBA@@@o@@o&@@oo@o@&X@Xo&o&&o",
"o@@@@o@o&O*oo@o@@@&@o@@@;CBBmmmmmmmmmmA&@@X@@o@@@o@@@@O.ooo&o&#o",
"o@O@@o@o&@&oX@Xo@&&@oooo-CBnmBmmmmBmmmA&@&o@@o@o@o@@@@@ oX@@@@@o",
"o@o@@o&o@@@ooooo@&&@ooo@-VNnvvvvmmmmmnz*@Oo@&@@@@oooX@@Xoo@o@@&X",
"o@@@@o@@Xo@oooo@o@Oo&oo@-lbbccvvccxxxbl6oooo@&O@O@@oo@&o&o@o@o&o",
"o@@&@o@@oo@@@@@@o&oo@oo&<CbncvvvvvvvmmAS1X@oo&&&o@@@@@@o@ooo@ooo",
"X@@*&@@@ooo@@@@o@&oX&oo&9CBmvmmmmmvmmmAK1o@oo%@*o&@o@@@o@@o@@Ooo",
".o@&#@&@ooXo@@oX&*oX&oX@DZBmmmmmmmmmmmAR2X@oX&@&@&@oXoo@o@o&@&o@",
"@@X&oo@@@o&o@X@oo&@@&.@oFCBmmmmmmmvmmmZ^7@oX&Xooo@@o@@@&@ooo@@o&",
"@&X@oo@@@o@o@o@Xo&&@@.@oJCBmvvmmmmvvmmA^2@oX&ooXo@@o@@@@oooo@@o&",
"&&o%oo@o@o@o@oOXo@o@@o&@LCnmccvvvvvvxbAR2@oo@o%oXo@o@@o@oooo@&@@",
"&&&*@o&@oo@o@o@oO@@@@o&@EMbcccccvcvxxMlP7@@@&@&@o@@@oooo@@oo@@@&",
"&&@&@o&&@X@o&O&oo@@&@@@&WMnvcmmmmmvvvnAR2@@@@@=@@@=oooo@&&oo@@@&",
"@&&&@o*&@o@o&@&oo@o&@&@-!CnmvvmmmmmmmmAR1&@&O@=@@@@oooo&&@@oOo@&",
"o@&@&o&@@Xoo@@&oooo@o&@1!CmmmmmmmmmmmmAH1@O@o@@oo=@Oooo@@@@oooo@",
"o@*&&X&o@ooo@o@o@oooo@o2!ZmmvvmmmmmmmBAG1@o@X&=oXOO@ooX@o@@oOoXX",
"o@&@o@o@@@ooo@@o@oo@@oo0!ZnnmmcmmvvvvvZj>@@oo&&oo@&@oooo@@@ooooO",
"@o&@oo@@@@@oo@@@o@@&@@@q/znnccccvvccvvz<@@@@@&@oo@&&@@@o@@@@ooO=",
"&o@o.o@@@&Ooo@&@O@@@@@@w/zNBnnmcvvvccnz&@@@@@&@XXoo@@@@@o@&@o@@&",
"@o@@Xo@oo@&oo@&oO&@oo@@r/CNBmnmmvvvvvnC@@@oo@@@ooooo@@@oo@@@o@oX",
"@o@@oOooo@@oo@oo@&@ooo@r/ABBNmmmmmmmmmA&O@@oooo@@@oo@@@@oooo@@oo",
"Oo@@@@ooo@@@@@oX@@=@@@ot/CBBmmmmmmmmmnA@*&@@oo@@@ooooo@@Oooo@&@@",
"o@@o@@o@@oo@#@oX@@O&@Ooy/CBBnmmmmmmmmnA@&@@Ooo@@ooooooo@@ooo@@@&",
"o@oX@@X&&oo@&&oo@oo@@Xou!ZNBmvNmmmBmBBA@@oX#ooo@ooo@@@o@@oo&@oX@",
"o&X@@*X=&oo@@oo@oooXoooy/Nnnccccvxvxvxlo@@oo@XoX@#@*o@@@ooo@@Xoo",
"o&o@@&O@ooo@oXo&o@@XXo@i/Nnnccccxxxvcnz@oooo@o&@@&@&X@oooo@ooooo",
"&@o=@&o@Xo@ooo@*@&&Oo@@I/ZNmnmmmmmvmmmA&ooo@@&&&@@ooXooXX@&Oo@@o",
"#@@&O&@XX@@oXo@&@@&oo@@U~ZNmcmmmmvmmmmA*@&o@@@&&@ooXo@@oo&&@@&@o",
"&oO&o@@oo@@oo@&o@@@@@ooU!ZNmmmmmmmmmvmA&&&@@@o@o@o@o@&Oo@@=@@&&&",
"@oo@o@&oo@@o@&@o@O@&&ooU/NmmvvmmmmmvvmAo@&@@oo@o@@@o@@@X@oo@@@@#",
"@oo@@@@oXo@o@&@ooo@@@ooI!NcccvvvvvvvvvCoo@o@@o&o&o&XXo@X@@o@oo@@",
"&o@@@@@o.O@@@O@@oo@@@@oI/NccccccvcccvcV*o&@@@@&@@o@.oo=o=@@ooo@@",
"&@@@&o&Xoo&@o@o@oo@@o@&YQNbncccvvvvvvmA%o@@#@o&@@@oXX%&O@o@&oX@&",
"@@@@@o@o@@&@o@oo&@@@oo&T!ZNmvmmmmmmmmmA@o@@&&o&o@@@oo@&o@oo@@@@@",
"ooo&@@@o@@&oXoXo&@&@oo@T~ZBmmmmmmmmmmmA&@o@o&o&ooo@@@@o oXX@@*&o",
"o@X&o@@o&@@oXXoo@@&&@@oY~ZBnmmmmmmmmvBA&&o@X&X*ooX@@&&o oooo@&&o",
"o@o&oo@o&o@XooX@o@@@@@Oe~NNmcmmcvvvmvnAo&o@X@o&o@o@@@&@Xooooo@&o",
"@@o&oo@O@o@oo%@%@Oooooo1QznvccvvvvvvxxAo@o&o@@@o@@@oo@@o@o@@o@Oo",
"o@&&@o&@oo@o@&@@&&oXooo@JNncccccxvvcxxV@oX&@o@@@ooOoo@@X@o@@@@@o",
"Xo#&&o&@XX@@@@oX@*oo@@o@jZnccmccvvvvvNA&oo@oo@&=o&&@o@@X@o@&@@oo",
"Xo@=o@@Ooooooooo@=o@@X@ojZBvmmmmmmBmmmA*oX& @@@=@@&X@o#=@oo@*@X@",
"@@X@XoO@o@&oo@ooo&o@@X@o8ghpaakllhd3$$o&ooO @ooOo@Oo@o@@ooX@&oo@",
"&@oo.X@@@@@oo@ooX@o@oo@ooXO%=&=-%@@@ooo@o@@o&ooXXo@X@ooooooo@o@&",
"@@@@oo@@ooooo@ooo@@=@o&@@ooo&oo@oo@@ooo&@&oo&O@oo@@o@@ooo@ooo@@#",
"@@=&@@O@oooo@@@ooOO=@@=@&@@O&ooooo@@@o@%@&oo&@=&o&&@ooo@@@oo@@@@",
"&O&@@oO@ooo@@&@@Oo@@@@@@&@@@*oooo@@@@oo@@@@@&@=@o&@@Xoo@&&oo@@@@",
"&@&@@o&&ooo@@=@ooo@o@&@@@@@o&@oo@@&&@oo@@o&@@&&@o&@@o@o@&#oo@oo@",
"@o&@Oo&&oooO&&@oo@oo@&oO=@@o*@oo@@@&@oo@@o&@O&@&o=@@o&o@@@ooooo@"
};
