/* XPM */
static char *_1801_402cdba3328a2d064bf4d2edba05b3acc6a83ecb121720b629ed1fa33f57a32a[] = {
/* columns rows colors chars-per-pixel */
"64 64 33 1 ",
"  c #2E3136",
". c #32363C",
"X c #35393E",
"o c #363B41",
"O c #393E43",
"+ c #3D4146",
"@ c #3E4249",
"# c #404447",
"$ c #42464C",
"% c #45494E",
"& c #464B51",
"* c #4A4E54",
"= c #4C5156",
"- c #4E5359",
"; c #51555C",
": c #55595E",
"> c #565A61",
", c #5A5E65",
"< c #5C6066",
"1 c #5E6269",
"2 c #62666C",
"3 c #64696F",
"4 c #666A71",
"5 c #6A6E75",
"6 c #6B6E78",
"7 c #6C7177",
"8 c #6E7279",
"9 c #72757D",
"0 c #74797F",
"q c #747781",
"w c #757981",
"e c #797D84",
"r c #7E8189",
/* pixels */
"+$%$#+O%=**&%%%#O#%%#O&=*&&%#+%*&%***&==*==-=-==**##@@@+@=@@-@@@",
"$-:,,:=;<<<<<<<:$*:,,-;1,,<<;%:,:,<2:<77875422342<=$::<:=<,,2<<@",
"%:<<,,:,27777093*=11,:,456991*,,:3805<578000097007:*<<<<>377895@",
"*<<<,22170000705=;,,1229ee993=<18000000e088000800e2=<<<119r9r08;",
"=<,:2008000r0708-:,>5e6qqq065;,50ww00090q09q0eq0803-<:3w5r9r957=",
"-<::500989000e0e::,>8e99qee08;,490000000qww09qq00r3-<:7w77990rr-",
"-::<70000880w0er::>19qq9600e0;<5e87000000weq95590e2=:<8wr87r9rr-",
"-<<290e0w08800ee;:,29e9e89e08;<5e29e00000e0q08658r2=<1908r9499r=",
"=<<18ww008w557r5-:11qqq907704;<543ww00e0qww080003r<-<<3rr5r445r@",
"-<<130r008w976r7=>116eq999705=,<:4wq800ee0w80880rr<-<<2rr8757rr&",
"-1>><9r0ww98wwww->>>3rqq090e7=:=;,5000e0w99900004r3->><rrrrr5rr@",
"->,<<20980888806-;,11qq998904=<>>>,37757858898884r>-><:r77455r7&",
"@==*=====&&=*-;=o%=***=***==%.%**********;;;;;;;--&-----:--&-:-@",
"@&$@%=**&@+%@@@*==**##**&*===;;;;;-;==*#o>:::,23<344314337<X->:&",
"%><>;<<11>@;><::1111:&,:><2,18898544743=$:;:<8008rr4r7rrrr7@:::=",
"=<<,,78903@><<<<69qq3=<,2807255900089e0>$,;>807097rr4r25r4r&>->>",
"-<<3200094%,,124eqq94-,6e0eq0er9r6r46rr2&>4<66r6rr8ww88ww84&<4<>",
";:<0900097*,:5e9e0q96;16000q990q4r6rr4r2%>r44r6r99wwww886w8&>88-",
";<200800e0*,,5088eeeq;1899q9qq00r64rr4r1&<8r4r8rwwwww9648w8&>7w-",
";:30008e00*:,90e889eq;1qq590eqqerrr22rr1$<684r6rw8www89wwww&<40-",
";<4w0099e9*,1900q69e8;,q56e0e0e04r6444r<%<4rr8r68wwwwwww08r&>30:",
";<40089565&,1900696q5;1619qq9e9er64rr4r-%<2r8r6rwrw88ww9008&<30>",
";229e99996*<<4e0qq6q6;>;<q08eqq0r8r36rr1$<>18rr4588wwr88ww4&><<-",
"-:>9e009e9*::2eeqqqe6;>;:10qqqe9488rr7r3O>>>13-18898844473>@:<:&",
"-:22077773&><<7866682*,>>,144454464447r&.&-&---->--:-:----&X&-=@",
"#%%%%##%%#.%%%%%$$$$# $$$%$$$#=;---&>--&&&-&X@&&=&=&=&&&&=&&=&%X",
"+*=-=;;;;=;=***&**##***==#$&*#;><<<r74r34884-><>><4777778777787%",
"*24553579993:22,>,*-<2<<,;,,>#;:>>4rrr7rr8rr>--->780wwr800wwr8r-",
";900700005734092,1;,9q88<,,,,%;1<<4rrr4r88wr-><-40788r8w878488r&",
"<e0090097ee0e0e081;199ee522,,*;1<2r87777448w:>324r0rr8wwrr8rr48&",
"<07e00000009000092;290009q7,,*;1<47r7rr38rrr>>3r3w0r8r8rww8747r&",
",e0009000000900981;500e99q9,,*;:<4r7rr77ww8r<>2r7887r8r8r8778rr-",
"-rr4124rrr4rr42rr1-6r8r6www2>&-<>1r8868rr8rr<>28rr6rrr6rr44r68r&",
"-r41rrr446rr4rr2r1>6rr48www11--<><6r8rr88r48>-1rr7r766r64rrrr4r-",
"-rrr4rrrr6r4rrr>21-162r68rw11&-<<<1218r8r74r->188r7rrrr4rr468rr-",
"-r4r464rrrrr44r2->-1r6868w611&&<<<<>>26674r7-><>288<144r4rr48r6&",
":r4rrr4r4rrrrr<>>>-4rr8rrr2>>&&><<>--1<<<<<>&-<:>11>4rr4643344<&",
"&r711r44242>41>>>,-,8646661,>&@$$@@O&-&&&%%$X@&&&&=&&$======&&&O",
"X%$$$&&&&%$$&&$$&&o@&&$$->----=&&&%&&&&&=@ &&&&&&&&&$X&$&&%&&&&@",
"$--%O--->>>>>><:------&&r6666884r66661>>>>=3r777r4<<>&r64r6r3<>-",
"=:<-$<7844r6r6r1>21>-<->r8wr8r89rr6rw8<-->-r8r77rr<>-&rrr6rr2->-",
"><<:&8rr46r4r4424rr411>>r8w486ww4rr4888><>-8r77rrr2<>Or43r4rr><-",
"3r>:=87r6rr64r4rrr66r2>>88r888r98r7rwr814<-874874r1>>-r14r46r2<-",
"<r1:=r77r6r4rrr4r6rrr4>1r8478r8rr8r7ww398>-rr87rr7r<>-4rr4rrr2>-",
"<03:=00rr66rr46rr6qr42>,r9748www78r88r4r6<>rr7487r<:>-rr4r2rr1>-",
":r3:&r0426rr6rr4rr44r1>1r9r888ww8r8888w84>-r8rr77r3>>-rrr4rr4->-",
"-04<%r77r46rrrrr4rr,r4>1w4wwrwwwr88rrwww6<-879rrrr<>>*2rr4r2r><-",
"<2<:%77r64r6r44rqqr4,2>1rww8ww888rr8www93<-68r98>3<<>&42rrr1<<<&",
":-::=07w00000r0008r3-:>:0r88ww8wr442rr6><<=4rr2r>><<-&qrq22>11>&",
"=::-&00000w780r0003:::-=<333347844r>-1<>>>$>->>1-;,<-@>,,>1->>>&",
"=:<=X333333322<<3<<<><-@&&---=--&&&&%%%%&&@$@@&*@@@@@o@@&*-@@$$@",
"@::-=:::=---%=::-----:---=-----&-&X---&&------$@>>;;-->@-------@",
">00700003<>:&2r78088887888783<:>>>-r4r2rrr2><>->rrq4qrrqrr1>1>>-",
">r00700e0<><=700000008wwrr00w4<-->&rrrr4rrr<>>>>rrrrq44rrr6>>>>-",
":w77070wr2<<=380w78800ww8r87ww3>1>*rr14r4rr41<--qq14rq2r6rq1111-",
":w77700007<>=307ww88wwww0000w0<84>*66r44r4rr1<>>qqq21rr46rrq>11&",
"-r7r1r5rr4<<&4r87480wwwwwwwww64r4>-rr668rr4r->-<rr6r66r66rr4>>,-",
"<rr5r1rrr4<>=5rr8770wwwwwww886ww4,-r6rr64rr41--1r6r6r64r6rr4,>>&",
"<rrrr4r593:<*787www8www0wwwwwww821>rwrr84rr4><-<r6rrrr466r61>>1-",
":754rr5r9<><*4r7wwwww8www6wwwwww2>-6688rr4r4>1->r666r6rr6r6,>1>&",
"-r7rrr1<<<<<&7r0w6www66wwwwwwww611-68wwwr><<<<--46r6rr6411111>,&",
"-77355<:<<<<$<70w88wwww664<4q6>><>&488662>><<<&-1rr46641>>>111>@",
"&>>><<,=->>-#-<<3112346664>>1>>>>>&-><>><-->:-$&:>->>1,1-->>>>-@",
"X@@@@&@OoO@@X@%%&&&&&&&&&&$$&&@@@@o@@@@&&@XO@@OX@@@@$$$$@.OO@@@O"
};
