/* XPM */
static char *_1067_68de01601345518246c858564f92174bdb7b545e45c54ed534f4ea2850ad3a13[] = {
/* columns rows colors chars-per-pixel */
"64 64 131 2 ",
"   c #010101",
".  c #0A0301",
"X  c #0C0A03",
"o  c #0B0C0D",
"O  c #120000",
"+  c #1E0302",
"@  c #110E03",
"#  c #1D0806",
"$  c #120709",
"%  c #1A0708",
"&  c #130B0B",
"*  c #1B0A08",
"=  c #151104",
"-  c #1A1605",
";  c #1E1905",
":  c #171308",
">  c #1E1A0A",
",  c #230202",
"<  c #2B0101",
"1  c #240B04",
"2  c #2D0B03",
"3  c #330302",
"4  c #3D0201",
"5  c #350E05",
"6  c #3D0B04",
"7  c #2F1405",
"8  c #231D06",
"9  c #221D09",
"0  c #341505",
"q  c #321806",
"w  c #272107",
"e  c #282006",
"r  c #27210A",
"t  c #2C250A",
"y  c #2F280B",
"u  c #322A0A",
"i  c #1A1E23",
"p  c #201C26",
"a  c #282125",
"s  c #22242A",
"d  c #292328",
"f  c #272929",
"g  c #2D292F",
"h  c #3C282B",
"j  c #312E33",
"k  c #2C3037",
"l  c #2D333B",
"z  c #373435",
"x  c #32343B",
"c  c #39363C",
"v  c #34383E",
"b  c #430101",
"n  c #4B0101",
"m  c #400F05",
"M  c #530001",
"N  c #5E0001",
"B  c #5D1114",
"V  c #59171B",
"C  c #5E1A1E",
"Z  c #650202",
"A  c #6D0001",
"S  c #680C0E",
"D  c #730001",
"F  c #7B0101",
"G  c #760904",
"H  c #7C0D05",
"J  c #7E0609",
"K  c #74090B",
"L  c #7F080C",
"P  c #7C1205",
"I  c #6A0E10",
"U  c #7A0E10",
"Y  c #6A161A",
"T  c #621C1B",
"R  c #7E1415",
"E  c #751C1D",
"W  c #7A1D1E",
"Q  c #782409",
"!  c #7D2909",
"~  c #671E22",
"^  c #771B20",
"/  c #4A2426",
"(  c #5D272C",
")  c #562E2E",
"_  c #5E282C",
"`  c #850102",
"'  c #8C0101",
"]  c #830B03",
"[  c #8A0A03",
"{  c #8B0A0C",
"}  c #920102",
"|  c #9A0101",
" . c #910B03",
".. c #9B0B03",
"X. c #811104",
"o. c #8D1305",
"O. c #8D1F08",
"+. c #921606",
"@. c #9C1405",
"#. c #931D07",
"$. c #9C1C07",
"%. c #911708",
"&. c #941B08",
"*. c #9D1E08",
"=. c #851717",
"-. c #881011",
";. c #901010",
":. c #A40101",
">. c #A90402",
",. c #A40C03",
"<. c #A51305",
"1. c #A61C07",
"2. c #A71D08",
"3. c #8E2207",
"4. c #832509",
"5. c #8C2109",
"6. c #8E2D0B",
"7. c #9D2107",
"8. c #932409",
"9. c #9D2408",
"0. c #942B0A",
"q. c #9E2B0A",
"w. c #92300B",
"e. c #9E320B",
"r. c #9F3B0D",
"t. c #A52007",
"y. c #A62408",
"u. c #A32B0A",
"i. c #A1330C",
"p. c #A23B0D",
"a. c None",
/* pixels */
":.:.:.:.:.:.:.:.:.:.:.:.:.:.:.:.:.:.a.a.a.a.a.a.a.a.a.a.a.a.a.a.a.a.a.a.a.a.a.a.a.a.a.a.a.a.a.| | | | | | | | | | | | | | | | | ",
":.,.2.:.:.:.:.:.:.:.:.:.:.:.:.:.:.:.a.a.a.a.a.a.a.a.a.a.a.a.a.a.a.a.a.a.a.a.a.a.a.a.a.a.a.a.a.| | | | | | | | | } | | | | | q...",
",.1.t.2.<.:.<.,.,.,.,.<.,.@.:.<.:.:.a.a.a.a.a.a.a.a.a.a.a.a.a.a.a.a.a.a.a.a.a.a.a.a.a.a.a.a.a.| | @.| $...@.........@...@.*.7.e.",
",.y.2.1.2.,.2.<.1.<.<.1.,.1.,.u.:.:.a.a.a.a.a.a.a.a.a.a.a.a.a.a.a.a.a.a.a.a.a.a.a.a.a.a.a.a.a.| ..9...9.@.7.@.$.$.@.*...q.0.9.q.",
":.1.2.:.,.:.:.:.,.:.,.:.:.,.:.,.:.:.a.a.a.a.a.a.a.a.a.a.a.a.a.a.a.a.a.a.a.a.a.a.a.a.a.a.a.a.a.| } ..| ..| ..| ....| ..| ..@.q...",
":.:.,.:.:.:.:.:.:.:.:.:.:.:.:.:.:.:.a.a.a.a.a.a.a.a.a.a.a.a.a.a.a.a.a.a.a.a.a.a.a.a.a.a.a.a.a.| | | | | | | | | | | | | | | ..| ",
":.:.:.:.:.:.:.:.:.:.:.:.:.:.:.:.:.:.a.a.a.a.a.a.a.a.a.a.a.a.a.a.a.a.a.a.a.a.a.a.a.a.a.a.a.a.a.| | | | | | | | | | | | | | | | | ",
":.:.:.:.:.:.:.:.:.:.| :.:.:.:.:.:.:.a.a.a.a.a.a.a.a.a.a.a.a.a.a.a.a.a.a.a.a.a.a.a.a.a.a.a.a.a.| | | | | | | } | | | | } | | | | ",
":.:.:.:.:.D } :.:.' D :.:.| F | :.:.a.a.a.a.a.a.a.a.a.a.a.a.a.a.a.a.a.a.a.a.a.a.a.a.a.a.a.a.a.| | } A ' | | F D | | ' D } | | | ",
":.:.:.:.| b F :.:.A n :.:.` b } :.:.a.a.a.a.a.a.a.a.a.a.a.a.a.a.a.a.a.a.a.a.a.a.a.a.a.a.a.a.a.| | } 4 F | | Z n } | F b ' | | | ",
":.:.:.:.} 3 D :.| N 4 | :.A < ' :.:.a.a.a.a.a.a.a.a.a.a.a.a.a.a.a.a.a.a.a.a.a.a.a.a.a.a.a.a.a.| | ' 3 D | } M b } | F < F | | | ",
":.:.:.:.} < A :.:.n < } :.N , ' :.:.a.a.a.a.a.a.a.a.a.a.a.a.a.a.a.a.a.a.a.a.a.a.a.a.a.a.a.a.a.| | ` < D | } n 3 } | D + D | | | ",
":.,.<.:.} 4 D :.| b < } :.D 3 } :.:.a.a.a.a.a.a.a.a.a.a.a.a.a.a.a.a.a.a.a.a.a.a.a.a.a.a.a.a.a.| | ' 3 D | | b 3 } | F 4 ` | @...",
":.1.y.,...4 G :.,.b < ..:.] 3  .:.:.a.a.a.a.a.a.a.a.a.a.a.a.a.a.a.a.a.a.a.a.a.a.a.a.a.a.a.a.a.| | [ 3 F | } 6 3  .| H 4 [ ..u.*.",
"<.u.1.y.9.5 Q <.*.0 7 *.,.4.5 0.:.:.a.a.a.a.a.a.a.a.a.a.a.a.a.a.a.a.a.a.a.a.a.a.a.a.a.a.a.a.a.| ..6.0 ! @.3.q q +.@.4.6 0.u.$.p.",
":.2.y.:...4 H :.[ 1 + ] ,.] 6  .:.>.a.a.a.a.a.a.a.a.a.a.a.a.a.a.a.a.a.a.a.a.a.a.a.a.a.a.a.a.a.| } o.3 P ..X.# 1 ] ..P 6 +.@.q.@.",
":.,.,.:.| b ` ' 4     4 ' F 3 } :.:.a.a.a.a.a.a.a.a.a.a.a.a.a.a.a.a.a.a.a.a.a.a.a.a.a.a.a.a.a.| | ' 3 D ` 3     4 ' D 3 } | $.| ",
":.:.:.:.| b F b .     . b D 3 } :.:.a.a.a.a.a.a.a.a.a.a.a.a.a.a.a.a.a.a.a.a.a.a.a.a.a.a.a.a.a.| | ' 3 A 4 .     . b Z 4 ' | | | ",
":.:.:.:.} 4 b .         . n 3 } :.:.a.a.a.a.a.a.a.a.a.a.a.a.a.a.a.a.a.a.a.a.a.a.a.a.a.a.a.a.a.| } ' 3 4 .         . 3 3 ' | | | ",
":.:.:.:.} < O             O < } :.:.a.a.a.a.a.a.a.a.a.a.a.a.a.a.a.a.a.a.a.a.a.a.a.a.a.a.a.a.a.| | ' < O             . < } | | | ",
":.:.:.:.} +                 , } :.:.a.a.a.a.a.a.a.a.a.a.a.a.a.a.a.a.a.a.a.a.a.a.a.a.a.a.a.a.a.| | ' ,                 < ' | | | ",
":.:.:.:.} +                 , } :.:.a.a.a.a.a.a.a.a.a.a.a.a.a.a.a.a.a.a.a.a.a.a.a.a.a.a.a.a.a.| | ' ,                 < ' | | | ",
":.:.:.:.} ,                 , } :.:.a.a.a.a.a.a.a.a.a.a.a.a.a.a.a.a.a.a.a.a.a.a.a.a.a.a.a.a.a.| | ` ,               X < ' | | | ",
":.,.,.:.' ,                 , ' :.:.a.a.a.a.a.a.a.a.a.a.a.a.a.a.a.a.a.a.a.a.a.a.a.a.a.a.a.a.a.| | ' ,                 < ' | @.| ",
":.<.2.,.' 1 X         X   . , ..:.:.a.a.a.a.a.a.a.a.a.a.a.a.a.a.a.a.a.a.a.a.a.a.a.a.a.a.a.a.a.| | [ 1 .   .   .     o < [ ..u.$.",
",.y.2.1.%.1 > @ - - @ - X 8 1 &.:.:.a.a.a.a.a.a.a.a.a.a.a.a.a.a.a.a.a.a.a.a.a.a.a.a.a.a.a.a.a.| | 5., 8 X ; = = = = > 2 #.9.7.q.",
",.y.2.<.#.1 r = ; - : 8 @ 8 1 8.,.:.a.a.a.a.a.a.a.a.a.a.a.a.a.a.a.a.a.a.a.a.a.a.a.a.a.a.a.a.a.| | 3.1 8 X w = - - = 9 5 8.9.9.9.",
":.<.2.:.} 1                 1 ' | :.a.a.a.a.a.a.a.a.a.a.a.a.a.a.a.a.a.a.a.a.a.a.a.a.a.a.a.a.a.....] 1                 < ' ..9.| ",
":.:.:.:.' ,                 * T ^ -.a.a.a.a.a.a.a.a.a.a.a.a.a.a.a.a.a.a.a.a.a.a.a.a.a.a.a.a.a.R ~ T %               X < ' | | | ",
":.:.:.:.} + o               o f z ^ a.a.a.a.a.a.a.a.a.a.a.a.a.a.a.a.a.a.a.a.a.a.a.a.a.a.a.a.a._ l g &                 < ' | | | ",
":.:.:.:.' ,                 o i z ^ a.a.a.a.a.a.a.a.a.a.a.a.a.a.a.a.a.a.a.a.a.a.a.a.a.a.a.a.{ _ k p $                 < ' | | | ",
":.:.:.:.} ,                 o s c ^ Y a.a.a.a.a.a.a.a.a.a.a.a.a.a.a.a.a.a.a.a.a.a.a.a.a.a.c U _ v a $                 < } | | | ",
":.:.:.:.' , o               o s x ^ V x a.a.a.a.a.a.a.a.a.a.a.a.a.a.a.a.a.a.a.a.a.a.a.a.a.j I _ l d $               o < ' | | | ",
":.:.:.:.} 1                 o h ) =.V a.a.a.a.a.a.a.a.a.a.a.a.a.a.a.a.a.a.a.a.a.a.a.a.a.a.a S E ) / %                 < } | | | ",
":.:.:.:.} ,                 % C -...B a.a.a.a.a.a.a.a.a.a.a.a.a.a.a.a.a.a.a.a.a.a.a.a.a.a.a.K ..R Y 1                 < ' | | | ",
":.,.2.:.' +                 , ] | :.a.a.a.a.a.a.a.a.a.a.a.a.a.a.a.a.a.a.a.a.a.a.a.a.a.a.a.a.' | } J ,                 < ' ..q...",
",.y.y.1.%.1 > @ @ @ @ - X - 1 %.:.:.a.a.a.a.a.a.a.a.a.a.a.a.a.a.a.a.a.a.a.a.a.a.a.a.a.a.a.a.| | | 5.2 8 X ; @ = = = 9 2 #.7.*.e.",
",.y.y.<.#.1 r = ; - = 8 @ r 1 &.:.:.a.a.a.a.a.a.a.a.a.a.a.a.a.a.a.a.a.a.a.a.a.a.a.a.a.a.a.a.| | ..5.1 8 X 8 = - - = r 2 3.u.9.9.",
":.<.2.:.[ 1 @ . X X . X . @ 1  .:.:.a.a.a.a.a.a.a.a.a.a.a.a.a.a.a.a.a.a.a.a.a.a.a.a.a.a.a.a.| | | ] , X . X . . .   @ <  ...9...",
":.,.,.:.} +                 , } :.:.a.a.a.a.a.a.a.a.a.a.a.a.a.a.a.a.a.a.a.a.a.a.a.a.a.a.a.a.| | | ' ,                 < ' | ..| ",
":.:.:.:.} ,                 1 } :.:.a.a.a.a.a.a.a.a.a.a.a.a.a.a.a.a.a.a.a.a.a.a.a.a.a.a.a.a.| | } ' ,                 < } | | | ",
":.:.:.:.' ,                 , } >.:.a.a.a.a.a.a.a.a.a.a.a.a.a.a.a.a.a.a.a.a.a.a.a.a.a.a.a.a.| | | ' ,                 < ' | | | ",
":.:.:.:.} , o               , } :.:.a.a.a.a.a.a.a.a.a.a.a.a.a.a.a.a.a.a.a.a.a.a.a.a.a.a.a.a.| | | ' ,                 < ' | | | ",
":.:.:.:.' ,                 , } :.:.a.a.a.a.a.a.a.a.a.a.a.a.a.a.a.a.a.a.a.a.a.a.a.a.a.a.a.a.| | | ' ,               o < ' | | | ",
":.:.:.:.} ,                 , } :.:.a.a.a.a.a.a.a.a.a.a.a.a.a.a.a.a.a.a.a.a.a.a.a.a.a.a.a.a.| | | ` ,                 < ' | | | ",
":.:.:.:.' ,                 , } :.:.a.a.a.a.a.a.a.a.a.a.a.a.a.a.a.a.a.a.a.a.a.a.a.a.a.a.a.a.| | | ' ,                 < } | | | ",
":.,.,.:.} + o               , } :.:.a.a.a.a.a.a.a.a.a.a.a.a.a.a.a.a.a.a.a.a.a.a.a.a.a.a.a.a.| | | ' ,               X < [ | @...",
":.<.t.,.[ + o .   .       X < ..:.:.a.a.a.a.a.a.a.a.a.a.a.a.a.a.a.a.a.a.a.a.a.a.a.a.a.a.a.a.| | | ` 1 .   X   X     o < } ..q.*.",
"<.y.2.y.8.1 u - w > - w = u 5 9.:.:.a.a.a.a.a.a.a.a.a.a.a.a.a.a.a.a.a.a.a.a.a.a.a.a.a.a.a.a.| | | 6.1 u = t - w 8 - u 7 0.e.$.r.",
":.t.y.,.[ 1 : X X X X @ X = 3 @.:.:.a.a.a.a.a.a.a.a.a.a.a.a.a.a.a.a.a.a.a.a.a.a.a.a.a.a.a.a.| | | o.1 = . @ X X X X : 2 o.@.q.@.",
":.,.<.:.} , o             . < | :.:.a.a.a.a.a.a.a.a.a.a.a.a.a.a.a.a.a.a.a.a.a.a.a.a.a.a.a.a.| | | ` 1                 < ' ..@...",
":.:.:.:.' ,                 3 | :.:.a.a.a.a.a.a.a.a.a.a.a.a.a.a.a.a.a.a.a.a.a.a.a.a.a.a.a.a.| | | ' ,                 2 ' | | | ",
":.:.:.:.} ,                 3 | :.:.a.a.a.a.a.a.a.a.a.a.a.a.a.a.a.a.a.a.a.a.a.a.a.a.a.a.a.a.| | | ' ,                 < ' | | | ",
":.:.:.:.' , o               3 | :.:.a.a.a.a.a.a.a.a.a.a.a.a.a.a.a.a.a.a.a.a.a.a.a.a.a.a.a.a.| | } ' ,               o < } | | | ",
":.:.:.:.} ,                 3 | :.:.a.a.a.a.a.a.a.a.a.a.a.a.a.a.a.a.a.a.a.a.a.a.a.a.a.a.a.a.| | | ' ,                 < ' | | | ",
":.:.:.:.' +                 < | :.:.a.a.a.a.a.a.a.a.a.a.a.a.a.a.a.a.a.a.a.a.a.a.a.a.a.a.a.a.| | | ' +                 < ' | | | ",
":.:.:.:.} 4 < < , < , < , < n | :.:.a.a.a.a.a.a.a.a.a.a.a.a.a.a.a.a.a.a.a.a.a.a.a.a.a.a.a.a.| | | } b , , , < , , , , b } | | | ",
":.:.,.:.:.` F F F F F F F F ' :.:.:.a.a.a.a.a.a.a.a.a.a.a.a.a.a.a.a.a.a.a.a.a.a.a.a.a.a.a.a.| | | } F D D D D D D D D ` | | @.| ",
":.1.t.,.:.:.>.>.>.>.>.>.>.>.:.:.:.:.a.a.a.a.a.a.a.a.a.a.a.a.a.a.a.a.a.a.a.a.a.a.a.a.a.a.a.a.| | | | :...:.| :.| :.| ,.| ....q.@.",
",.y.2.2.<.,.<.,.<.,.,.<.,.1.:.1.:.:.a.a.a.a.a.a.a.a.a.a.a.a.a.a.a.a.a.a.a.a.a.a.a.a.a.a.a.a.| | | *.| $...$...@.@...@...*.7.*.i.",
",.y.2.<.2.,.1.,.1.<.,.1.,.1.:.t.:.:.a.a.a.a.a.a.a.a.a.a.a.a.a.a.a.a.a.a.a.a.a.a.a.a.a.a.a.a.| | ..7...7...*...$.@.@.1...t.q.7.1.",
":.<.2.:.:.:.:.:.>.:.:.:.>.:.:.:.:.:.a.a.a.a.a.a.a.a.a.a.a.a.a.a.a.a.a.a.a.a.a.a.a.a.a.a.a.a.| | | | | | } | | | | | | | } | q.| ",
":.:.:.:.:.:.:.:.:.:.:.:.:.:.:.:.:.:.a.a.a.a.a.a.a.a.a.a.a.a.a.a.a.a.a.a.a.a.a.a.a.a.a.a.a.a.} | | | | | | | | | | | | | | | | | ",
":.:.:.:.:.:.:.:.:.:.:.:.:.:.:.:.:.:.a.a.a.a.a.a.a.a.a.a.a.a.a.a.a.a.a.a.a.a.a.a.a.a.a.a.a.a.| | | | | | | | | | | | } | | | | | "
};
