/* XPM */
static char *_440_40fd2d4f2257e40576a1475307dc287e154ee08ca877ff2caad203cf6559e042[] = {
/* columns rows colors chars-per-pixel */
"64 64 191 2 ",
"   c #181F2D",
".  c #19202D",
"X  c #1D2432",
"o  c #28232F",
"O  c #36322E",
"+  c #212736",
"@  c #232B3C",
"#  c #3F2E3A",
"$  c #2D323E",
"%  c #34363D",
"&  c #3A3539",
"*  c #3D3B3C",
"=  c #473A2C",
"-  c #452B34",
";  c #433D35",
":  c #4B303A",
">  c #423E3B",
",  c #56333B",
"<  c #5C3339",
"1  c #60372F",
"2  c #653237",
"3  c #6C363A",
"4  c #6C373B",
"5  c #783A38",
"6  c #7D383A",
"7  c #335F16",
"8  c #356016",
"9  c #35621C",
"0  c #3A651C",
"q  c #3D681F",
"w  c #3D6622",
"e  c #3C6822",
"r  c #55452D",
"t  c #46413D",
"y  c #4F473E",
"u  c #5D4C33",
"i  c #564B3C",
"p  c #5C4E3A",
"a  c #5F513C",
"s  c #5E593A",
"d  c #61422E",
"f  c #654631",
"g  c #6D4533",
"h  c #624D35",
"j  c #6B4B35",
"k  c #744333",
"l  c #7D4336",
"z  c #744937",
"x  c #635137",
"c  c #66553A",
"v  c #69563B",
"b  c #6B593D",
"n  c #715C3E",
"m  c #416B23",
"M  c #446E2C",
"N  c #486F2E",
"B  c #457026",
"V  c #47712B",
"C  c #4B722E",
"Z  c #5D653A",
"A  c #5C623D",
"S  c #4D7333",
"D  c #4F7339",
"F  c #527435",
"G  c #53743B",
"H  c #5B703E",
"J  c #54793B",
"K  c #272F40",
"L  c #273044",
"P  c #293245",
"I  c #2C354A",
"U  c #2F384E",
"Y  c #343444",
"T  c #3C3645",
"R  c #383A42",
"E  c #323649",
"W  c #323A4D",
"Q  c #393B49",
"!  c #2F3B51",
"~  c #323D54",
"^  c #423645",
"/  c #753B40",
"(  c #3E4147",
")  c #3B414B",
"_  c #344057",
"`  c #3C4453",
"'  c #36425A",
"]  c #414140",
"[  c #4B5C47",
"{  c #434B54",
"}  c #474854",
"|  c #424A5C",
" . c #5F4B52",
".. c #4A5554",
"X. c #535D57",
"o. c #50545F",
"O. c #655642",
"+. c #6C5C43",
"@. c #735E40",
"#. c #546A46",
"$. c #557B42",
"%. c #5C7C44",
"&. c #5B754C",
"*. c #5C7E4A",
"=. c #536752",
"-. c #576957",
";. c #5D7A52",
":. c #646B45",
">. c #6D6A4A",
",. c #766142",
"<. c #7A6444",
"1. c #72634B",
"2. c #79674D",
"3. c #79694E",
"4. c #68744A",
"5. c #746A52",
"6. c #786A53",
"7. c #627B55",
"8. c #667857",
"9. c #727854",
"0. c #7D725E",
"q. c #757E5A",
"w. c #525762",
"e. c #5E6D62",
"r. c #64676B",
"t. c #6A796A",
"y. c #697471",
"u. c #71777E",
"i. c #8A3F37",
"p. c #833A3B",
"a. c #8A3C39",
"s. c #933E3A",
"d. c #9E3F3C",
"f. c #A13F3C",
"g. c #874738",
"h. c #8A453A",
"j. c #93443B",
"k. c #9C423C",
"l. c #A3413E",
"z. c #9F4242",
"x. c #8F594F",
"c. c #A44441",
"v. c #AA4441",
"b. c #AB4945",
"n. c #B24744",
"m. c #B64946",
"M. c #B84946",
"N. c #B34B48",
"B. c #B9514E",
"V. c #B45956",
"C. c #80715A",
"Z. c #9E6869",
"A. c #827562",
"S. c #887A63",
"D. c #867A69",
"F. c #8A7E6B",
"G. c #C8706D",
"H. c #5F804C",
"J. c #62824D",
"K. c #68874F",
"L. c #648453",
"P. c #6A8453",
"I. c #6C8955",
"U. c #6C865D",
"Y. c #728257",
"T. c #6C8262",
"R. c #758C62",
"E. c #798F64",
"W. c #718569",
"Q. c #7C8A69",
"!. c #7F946A",
"~. c #7C8E76",
"^. c #85896B",
"/. c #90826F",
"(. c #8D8573",
"). c #868F72",
"_. c #8B8B72",
"`. c #928471",
"'. c #978B76",
"]. c #988D7C",
"[. c #8B9274",
"{. c #8C9878",
"}. c #87888B",
"|. c #9B9886",
" X c #BC9C97",
".X c #AFA79D",
"XX c #A7B3A4",
"oX c #C38888",
"OX c #C0BCB2",
"+X c #DBBAB8",
"@X c #CFD0C4",
/* pixels */
"0 9 e e 8 9 m m q m m 0 m m m e e 0 e B m 0 0 0 m 0 0 0 e e e q e 0 m 0 B 0 e 0 q B 0 0 e 0 e 8 9 0 e m m q 0 0 m m B 0 0 0 m B ",
"e e e 0 8 0 e e m e m 0 q e m e e 0 e m e 0 q 0 q 0 9 0 e e e e e 0 e 0 m 0 e 0 0 m 0 0 e 0 e 7 0 0 e e e e e 0 e e e 0 0 0 e e ",
"m e e 0 0 0 e 0 w e m 0 e 0 e e q 0 e e e q e 0 0 0 9 0 e e e e e 0 e 0 m q e e 0 e 0 0 e 0 e 0 0 0 0 0 e e e e 0 0 e 0 e e e 0 ",
"e 0 0 0 0 0 0 0 0 0 q 0 e 0 w e m e e e 0 0 e 0 e 0 0 0 0 0 0 e e 0 e 0 e 0 e e 0 e 9 e e 0 e 0 e 0 0 0 e m e e 0 0 0 0 e e e 9 ",
"0 0 0 e e 0 0 0 0 0 e 0 m 0 e 0 e e e e 0 e e 0 m e 0 e 0 0 0 e e e e 0 0 0 e e m e 0 e e 0 e q e 0 0 0 e e 0 e e 0 0 0 e m e 0 ",
"9 0 e e m 0 0 q e 0 e e m e 0 8 e e m m 0 e e 0 e 0 0 e e 0 0 e 0 e m 0 0 0 0 e m e e e 0 0 e m e 0 0 e e 0 0 0 m e 0 0 0 e e e ",
"0 e 0 0 e 0 0 m e 0 e 0 m e 0 9 e 0 m e 0 0 e e 0 0 e e e e e e e e e 0 0 0 0 0 e 0 0 0 0 0 0 e e e e q e 0 0 e e e 0 0 0 e m e ",
"0 w 0 9 e e e m m 0 e 0 m 0 e 0 e 0 q e 0 0 0 e 0 0 e e e e e 0 e e e 0 0 0 0 0 0 0 0 0 0 0 0 m e e e m e 0 e m 0 0 0 0 0 0 0 e ",
"e e 0 e e B m w 0 e e 0 9 0 e e e 0 0 0 0 9 0 m e m 0 m 0 e 0 e e 0 0 0 m e e 0 0 0 0 e e 0 e e 0 m m e 0 0 0 0 0 0 e m m 0 0 0 ",
"e M 0 m 0 m 0 0 0 0 0 0 0 0 e e e e e 0 0 0 0 e e m e M 9 e 0 e e 0 0 e e e e e 0 0 0 e e e e e m m w 0 0 e e 0 0 e e e e e e 0 ",
"e m 0 B 0 m 0 0 0 0 0 0 0 0 e m e m m e 0 q e 0 e m e m 0 0 9 e e 0 0 e q m e m e e 9 0 e m m e m e q 0 0 e e 9 0 q e e e m e 0 ",
"0 m q m q m 0 0 0 e e e 0 q e e e m m e e m e 0 e e 0 m 0 0 0 e e 0 0 e e e e B e m 0 0 e e m e e e 0 0 0 m e 0 e m e e e m m e ",
"0 q e 0 e e e e e e e e e e m e e e e e e e e 0 e 0 0 m 0 0 0 e e 0 e e m 0 e m e m e e 0 0 e 0 e e e 0 e e e 9 m e e e e 0 e m ",
"e 0 e 0 e 0 m 0 0 e e e e e e e e 0 0 e S W.~.S e 0 q e 0 0 0 0 e 0 e e B 0 e 0 0 m e e 0 0 m 0 e e 0 9 9 e e e m e e e e 0 q m ",
"e e e 0 e e e 0 9 0 e e e e e e e 0 0 J.u.` { I.e e e e 0 0 9 0 e 0 0 e q 0 0 0 0 e e e e e m 0 e e 0 9 0 e e e e e e e 0 0 q m ",
"e e e m q m 0 0 8 0 e e 0 0 0 w e 0 W.{ R ) { U.q m V F D C 0 0 e e 0 e 0 e 0 0 q m 0 e e m m e e 0 9 0 0 e e 0 e e 0 0 0 e e q ",
"e e e e e 0 e 0 e 0 m 0 0 w 9 e H.t.Q ; h u i D.`.`.`./.S./.].{.).$.m e 0 m 0 m e e 0 e e 0 m e e 0 0 e 0 e m 9 e 9 0 m 0 m q 0 ",
"0 e e e e 0 e 0 m 0 M 0 0 e 9 L.{ U Q = x c v n ,.,.,.,.n ,.,.,.2.C.F._.K.m m q e e 0 e e 0 q e e 0 e e e e e 8 0 0 0 e 0 m m 0 ",
"0 q 0 e e 0 e 0 m e m 0 9 M 7.` U & 4 1 r v v b <.<.<.<.<.<.<.<.,.,.@.@.2.'.[.K.e e 0 e e 0 m 0 e 0 w e e e e 8 0 0 e w e e m 0 ",
"0 m 0 m e 0 e 0 w e w 9 D ..) U # 6 v.3 = x c v b <.<.<.<.<.<.<.<.<.<.<.<.@.,.2.].E.C e m e e e e 0 0 0 9 e e 9 0 0 e 0 e e q 0 ",
"0 e w m e 0 e e 0 0 w m =.~ I : s.n.m.2 O u x v v @.<.<.<.<.<.<.<.<.<.<.<.<.<.<.<.n 6.[.J.e e e 0 e e 0 0 e e 0 m 0 e 0 e 0 e 0 ",
"0 e e m m 0 e e 0 0 S =.~ I , z.m.M.m.2 * h u v v v n <.<.<.<.<.<.<.<.<.<.<.<.<.<.<.<.,.2./.I.m 0 e e e e e e 0 e 0 0 0 m 0 0 0 ",
"0 w e m m e e e 0 m [ ! I , v.m.b.m.M.3 t n u c b c b @.<.<.<.<.<.<.<.<.<.<.<.<.<.<.<.<.<.n 3._.I.e e 0 e e e 0 e e 0 q e e 0 0 ",
"8 0 e m m q m e 0 ;.~ U : z.v.f.k.l.l.2 = <.b u c c c b @.<.<.<.<.<.<.<.<.<.<.<.<.<.<.<.<.<.<.n ,.).e 0 0 0 0 e 0 e 0 m e m 0 e ",
"e e 0 w 0 0 e e S ..~ Y / n.f.d.d.d.l.2 ; ,.<.h u c c v v b ,.<.<.<.<.<.<.<.<.<.<.<.<.<.<.<.<.<.<.<.S.Y.e e e e e 0 0 0 e e 0 m ",
"e e 0 e 0 0 e e L.~ ' E / / p.d.d.d.d.2 > ,.n c r u v c v v b ,.<.<.<.<.<.<.<.<.<.<.<.<.<.<.<.<.<.<.<.n >.e w m 0 0 0 0 e e q m ",
"m m 0 m 0 0 e C e.U ' ' ~ ~ E : s.d.d.2 ; @.b c r d u v b c c b n ,.,.<.<.<.<.<.<.<.<.<.<.<.<.<.<.<.<.<.,.4.0 0 0 0 0 0 m e e e ",
"m m m m e 0 m t.W ' ' ' ' ~ ~ : s.f.f.3 a +.c c k s.k u x c c v v v b ,.<.<.<.<.<.<.<.<.<.<.<.<.<.<.<.<.<.n :.q e e 0 0 e e e m ",
"m M m m e C W.| _ ! E ^ T ~ ~ Y , 3 p.< x b b c k f.d.j.l h c c v v v v b b b ,.<.<.<.<.<.<.<.<.<.<.<.<.<.<.n Z C m q 0 e e e m ",
"w m m m e U.| ~ ^ ^ 6 s.s., ~ ' ~ ~ W Y u b b c k d.d.f.v.k.h.g u x c b v v v v b b b n @.@.<.<.<.<.<.<.<.<.<.,.Z m e 0 0 0 e m ",
"0 e m e J y.U ^ p.c.m.N.b.6 Y ~ ' ' ' R c @.b c k d.d.d.l.m.M.v.j.l z v j x x x c c c v v b b n @.<.<.<.<.<.<.<.,.Z e 0 0 0 0 e ",
"0 w m m I.| U 4 3  .oXG.V.a.Y ~ ' ' ~ > @.<.@.c g j.f.d.k.l.n.m.B.l.N.l.l.h.g.g.z j b c c h x v v b b @.<.<.<.<.<.n H 0 0 0 9 0 ",
"0 e M e t.~ ! / 3 } Z.B.f.p.P U ' ' ~ % b <.<.n h h.d.k.d.f.k.c.l.B.M.M.M.M.M.M.l.f.oXOX.XF.1.c c c c v v b ,.<.<.<.b D 0 0 0 0 ",
"e 0 m M y.~ ! : p.6 s.f.p.- + P ' ' ' E x <.<.@.v g 5 s.d.d.d.d.l.M.M.M.l.B.M.M.f.f.+XC e F I.E.).D.+.c x c b b n <.,.A 0 0 0 B ",
"e 0 w %.| ~ ~ K o - 2 - o   @ ! ' ' ' ~ t <.<.<.,.n h f k l s.s.l.k.l.l.M.l.M.M.f.d.+XV e m q 0 m S %.P.Y.5.v x c b O.t D e m e ",
"m 0 w L.{ ~ ~ ~ @         X K ! ' ' ' ~ P c <.<.<.<.,.b v h h h j k k l j.l.l.l.d.d. XI.e e e 0 w 0 0 0 e e $.4.s i * ( #.e 0 0 ",
"e 0 m J.| ~ ' ' U P P P P ! ~ ~ ' ' ' ' ~ R i +.<.<.<.<.<.<.@.@.n v v x v j j g 5 i.x.@Xm q 0 e e e 0 0 0 w e e w #.] }.XXe q 0 ",
"0 0 e H.| ~ ' ' ~ ~ I L X I ' ' ' ' ' ' ' ~ U R i n <.<.<.<.,.<.,.<.,.<.<.<.,.n b v x 3.|.U.M e e 0 0 0 0 0 w m w 0 M 0 J.e e e ",
"0 e e %.' ~ U I K @ + + K I ! ~ _ _ ' ' ~ ' ' ~ W > +.<.<.<.<.<.<.<.<.<.<.<.<.<.<.<.<.b v @.(.R.G 8 0 0 0 0 0 e &.0 9 0 e S e m ",
"0 e 0 $.} K .     w.w.P I I W -.| E ~ I U ' ' ' ' E y <.<.<.<.<.<.<.<.<.<.<.<.<.<.<.<.,.,.n v +.A.^.q.8.[ G 0 e e 0 0 e e 0 0 e ",
"0 m 9 e *.T.e...Q o.X.) { -.L.J 7.I I + I ' ~ ' ' ~ ] <.,.<.<.<.<.<.<.<.<.<.<.<.<.<.<.<.<.<.<.<.,.,.,.@.y r.e e 0 0 0 e e 0 0 0 ",
"0 m 0 m e M m J J %.H.J S 0 0 e 7.P U K ~ ~ ~ ' ' ~ > ,.<.<.<.<.<.<.<.<.<.<.<.<.<.<.<.<.<.<.<.<.<.<.<.<.O.[ 0 0 0 0 e q 0 0 0 9 ",
"e e 0 B e m 0 m 9 0 e 0 0 0 e B 7.P ! U U I P ~ ~ I > b @.,.<.<.<.<.<.<.<.<.<.<.<.<.<.<.<.<.<.<.<.<.<.<.>.e 0 9 9 e m 0 0 e e 0 ",
"m e e m 0 m w 0 0 e e 0 0 0 e e ;.P ! P I @ K ~ W $ i b b @.<.,.<.<.<.<.<.<.<.<.<.<.<.<.<.<.<.<.<.<.,.b >.e e 0 0 e m e e m m 0 ",
"m 0 q m 0 e m 0 0 m e 9 0 e e 0 D E W K @ @ I W P & c +.b c b @.,.<.<.<.<.<.<.<.<.<.<.<.<.<.<.,.,.b b c :.e e 0 e e m e e m m m ",
"e 0 0 e 0 e m 0 0 e e 0 e m e 0 e =.P W @ K E P & x b c c b b b b n n n ,.<.@.,.,.<.,.,.@.@.b c u b v v D e e 0 e 0 e e e e e e ",
"e 0 0 e e e w 0 0 0 e 0 e m e 0 0 0 ..P I I I % c c c c u x b c b b b b b b b b b c x b b b v u u v :.F 0 0 q 0 e e 0 e 0 0 e m ",
"e 0 e e e e e 0 8 0 e e e e e e 0 q w =.K L L > O.c u u r r c b b Z v v x u b b v u r x v b b s h +.%.7 0 0 B 0 m e e 0 0 0 e q ",
"m e e e m 0 m 9 0 0 e e 0 e 0 e 0 0 e e G ..K & x c b c c p x +.b x x c u u c b r r u v b b b x 1.N 0 9 0 e m e e 0 e e 0 0 e e ",
"e e e e e 0 q 0 e e m e 0 e 0 0 m e e e 0 0 &.X.Q.0.c c v b c u x c r u x c b c c h u u u x c 9.e e e 0 0 e m 0 e 0 0 w e e e e ",
"0 0 0 m e e e 0 e e m 0 7 0 0 0 m e m q 0 0 e 0 e e ^.1.x x v c p u u r x c b u u u r r a 0.K.0 0 0 e e e e 0 7 0 0 9 e e m m 0 ",
"0 e 0 m 0 e e 0 m e q 0 9 0 0 0 e e m m w e 0 0 0 e 0 M ).(.>.c c x c h c b c c c 2._.Q.L.9 m 0 0 9 e e w e 0 7 0 0 0 0 e m m 0 ",
"0 e 0 m 0 0 e 0 e 0 e 0 0 0 0 w 0 e e e e e q 0 0 e 0 e e 0 K.[.|.F.0.0.0.C.(.[.!.G e 0 e 0 e 0 e 0 e e e m w 0 0 0 0 0 0 m m 0 ",
"e e e m 0 0 e 0 e 0 w 0 0 w e w e e 0 0 0 0 0 e e m 0 e e 0 q 0 e 0 F $.J C m 0 e 9 e 0 e e e 0 e e e 0 0 e e 0 e 0 e e 0 e e 0 ",
"0 e m q 0 0 m w 0 0 e 0 e m e e m m 0 0 0 0 0 e e m e e e q 0 0 e 0 e e 0 e m e 0 0 e e 0 w w m 0 0 e 0 0 e e 9 e 0 e e e e e 0 ",
"0 0 e m m 0 M m 9 0 e e e e 0 9 m m 0 0 e e 0 e B B e e e q q 0 e 0 0 e 0 e m m 0 0 e 0 0 e m B 0 e m e 0 e e 0 e 0 e m m e 0 0 ",
"0 0 e e 0 q e e 0 0 0 0 0 0 0 0 e B 0 e e 9 e 0 e e e e e e 0 0 0 q 0 e 0 0 e e 0 0 e 7 e e e B e e e 0 e 0 m m e 0 9 e m e 0 e ",
"e e 0 e 8 0 q e 0 e e q 0 e 0 0 q m 9 e e 9 e 0 0 0 0 0 m e e e e e e e 0 0 q e 0 0 e 7 e 0 0 0 0 e e 0 e 0 q e 0 0 0 e m 0 0 e ",
"e e 0 0 8 0 q q e e e 0 0 e 0 0 0 e 0 e 0 0 e 0 0 9 0 9 e 0 e e e e e e 0 0 0 e 0 e e 0 m 0 0 9 0 0 e 0 e 0 0 0 0 0 0 0 e 0 e e ",
"e e e e 0 0 e e 0 0 0 0 0 e 0 0 0 e e m e 0 m e e e 0 0 B 0 0 e 0 0 e e 0 0 0 m q m 0 0 m q m 0 9 e e 0 e e 0 0 0 e 0 0 0 e e m ",
"e e B m e e e e 0 0 0 0 e e e 0 q 0 m B e e B e e e e 0 m 0 0 0 0 0 e e e 0 e e e m 0 0 m e B m 0 m e e 0 0 0 e e e 0 0 e e e e ",
"m e m m q 0 e e 0 0 0 e e e e e 0 0 q m e q m e m e e e B 0 0 0 0 e e e e 0 0 e q m e e m m m e 0 m e e 0 0 0 e m m 0 0 e e e m ",
"m e m e q 0 m m 0 q 0 e e B e q 0 0 e 0 e m e e e e e 0 m e 0 0 e e m m e 0 0 e e 0 m e e m m e q m e e 0 e 0 q q m 0 0 e 0 0 e ",
"e 0 m e q 0 m m 0 0 0 e m e e 0 0 e 0 0 e m 0 e m m e 0 B q q 0 e e e m e 0 0 e e 0 m e 0 m e m 0 B e e 0 e 0 m m e 0 0 0 0 0 e "
};
