/* XPM */
static char *_8753_9cf8b238813b4a40462b55ed5d257db33f4ba8e2fbabba1bf98e9c12781d5292[] = {
/* columns rows colors chars-per-pixel */
"64 64 195 2 ",
"   c #1A1F2C",
".  c #1B202D",
"X  c #1E2535",
"o  c #25222D",
"O  c #36272F",
"+  c #212635",
"@  c #262734",
"#  c #242B3C",
"$  c #392731",
"%  c #363335",
"&  c #3A3635",
"*  c #32353C",
"=  c #39363E",
"-  c #3B3B3E",
";  c #452B32",
":  c #4B2C33",
">  c #412F3B",
",  c #542E35",
"<  c #592F35",
"1  c #433D36",
"2  c #45323B",
"3  c #5E3136",
"4  c #573935",
"5  c #53313A",
"6  c #5C323A",
"7  c #633136",
"8  c #6B3337",
"9  c #6A363B",
"0  c #7E3E34",
"q  c #733639",
"w  c #7A3739",
"e  c #74383B",
"r  c #7D393B",
"t  c #335F16",
"y  c #356016",
"u  c #35621C",
"i  c #3A651C",
"p  c #3E681F",
"a  c #3C6621",
"s  c #3C6822",
"d  c #55442C",
"f  c #59482F",
"g  c #4A4238",
"h  c #5D4D33",
"j  c #51473B",
"k  c #544A3D",
"l  c #5A4E3C",
"z  c #5D503C",
"x  c #634530",
"c  c #6E4533",
"v  c #634C35",
"b  c #6A4B35",
"n  c #714433",
"m  c #7D4235",
"M  c #704835",
"N  c #635137",
"B  c #65543A",
"V  c #69563C",
"C  c #6B593D",
"Z  c #72503D",
"A  c #715D3E",
"S  c #406B23",
"D  c #446D29",
"F  c #486E2D",
"G  c #457026",
"H  c #46702D",
"J  c #4A712D",
"K  c #4D7334",
"L  c #527436",
"P  c #53763C",
"I  c #557A3B",
"U  c #55793D",
"Y  c #272F43",
"T  c #273043",
"R  c #2A3245",
"E  c #2D364B",
"W  c #2F384E",
"Q  c #333644",
"!  c #393945",
"~  c #323748",
"^  c #323A4E",
"/  c #2F3A51",
"(  c #323D54",
")  c #443544",
"_  c #493441",
"`  c #344057",
"'  c #3C4455",
"]  c #36425A",
"[  c #3E4859",
"{  c #424445",
"}  c #434957",
"|  c #454D55",
" . c #4D5857",
".. c #665945",
"X. c #6B5B41",
"o. c #735E40",
"O. c #735858",
"+. c #556C47",
"@. c #567546",
"#. c #5B7B44",
"$. c #5D7B4B",
"%. c #596C53",
"&. c #59675E",
"*. c #57685B",
"=. c #5D705B",
"-. c #696148",
";. c #6F614A",
":. c #766142",
">. c #7A6444",
",. c #74624C",
"<. c #70684C",
"1. c #607B4E",
"2. c #76704F",
"3. c #696752",
"4. c #746953",
"5. c #7C6D54",
"6. c #627D54",
"7. c #6F7D55",
"8. c #647B5B",
"9. c #687F5D",
"0. c #757252",
"q. c #7A7154",
"w. c #7A745B",
"e. c #757B59",
"r. c #4C5460",
"t. c #555E62",
"y. c #5C6664",
"u. c #636D63",
"i. c #627561",
"p. c #677C63",
"a. c #7F7962",
"s. c #706D75",
"d. c #833F35",
"f. c #83393B",
"g. c #863A38",
"h. c #8D3C3C",
"j. c #933E3B",
"k. c #9D3F3C",
"l. c #884138",
"z. c #93413A",
"x. c #9E403E",
"c. c #A3413E",
"v. c #903E40",
"b. c #9C4140",
"n. c #9E534C",
"m. c #8B5052",
"M. c #A44341",
"N. c #AC4542",
"B. c #A14B4A",
"V. c #AC4F4B",
"C. c #B34644",
"Z. c #B74946",
"A. c #B84946",
"S. c #B24B48",
"D. c #A5524D",
"F. c #AC5855",
"G. c #B45754",
"H. c #B45C59",
"J. c #8F7B5E",
"K. c #B0615C",
"L. c #A56C60",
"P. c #BA6764",
"I. c #A97467",
"U. c #B07267",
"Y. c #B97674",
"T. c #C56D69",
"R. c #5F824F",
"E. c #64824D",
"W. c #6A824D",
"Q. c #668452",
"!. c #6C8556",
"~. c #67825C",
"^. c #6E8659",
"/. c #738A5C",
"(. c #78895C",
"). c #6D8066",
"_. c #768B61",
"`. c #7A8B62",
"'. c #7C9365",
"]. c #7D8E75",
"[. c #87866A",
"{. c #958167",
"}. c #928669",
"|. c #8C8D72",
" X c #A1816B",
".X c #A68774",
"XX c #C2807E",
"oX c #9A9A82",
"OX c #B68580",
"+X c #BD918E",
"@X c #A2A68C",
"#X c #B6AE9B",
"$X c #A4A5A8",
"%X c #C38E8D",
"&X c #D4D6D6",
/* pixels */
"i u s s y i s S S p p i S S S s s i s G D i i i G i u u s s s i s i G i G u s i p G i i s i s y i i s S S s i i S G S i i i s G ",
"s s s i y i s s S s S i S s S s s i s S p i i i p i u i s s s s s i s i s p s i i S u i s i s y i i s s s s s i s s S i i p s s ",
"S s s i i i s i s s S i s i s s p i s s s i s i s i u i s s s s s i s i S i s s i s i i s i S u i i i i s s s s u i s i s s s i ",
"s i i i i i i i i i s i s i a s S s s s i i s i s i i i i i i s s i s i p p s s i s u s s i s i s i i i s s s s i i i i s S s u ",
"i i i s s i i i i u s i S i s i s s s s i s s i S p i s i i u s s s p i i i s s s s i s s i s s s i i i s s i s a i i i s S p i ",
"u i s a s i i i s i s s D i i y s s S S i s s i s i i s s i i s i s S i i i i s D s s s i i s p s i i s s i i i S s i u i s s s ",
"i a i i s p i s S i s i D s i u s i S s i i s s i i s s s s s p s s K ^.(._._._.`./.(./.L s i S s p s s s i i p H $.#.#.G p s s ",
"i a i i s s s D S i s i s i s i s i p s i i i s u i s s s G !.|.[.5.q.o.o.A A o.X.A A C 5.q.J.2.q.q.0.q.q.2.0.2.-.- %.U 6.I i s ",
"S s i s s G S s i p s i i i s S s i i i i u u S s p I |.}.5.A A A A A A C A C C A C A A C C C C C C C C C C V V k * u.S S $.a i ",
"s S i S i S i i i i i i u i p S s s s i i i i p E.|.5.A A :.:.V B b c c c M M M c M c c c n n n n c n Z q.e.e.e.1.{ %.#.s $.S t ",
"s S i G i D i i u u i i i i s S s s s s i s I |.,.A >.:.C B v c l.z.x.k.k.x.x.x.x.x.x.x.c.x.k.k.k.n.J.#.i S s u i K U $.$.$.S s ",
"p S i D i S i i i s s s i i s s s S D s s `.q.A >.o.C N v n g.j.x.c.c.N.C.Z.C.Z.Z.Z.C.Z.Z.Z.c.D.[.I i i p S s u a S a s $.S S s ",
"i i s i s s s s s s p S s s s s s s s H a.C :.:.C V h c g.k.x.N.N.Z.Z.Z.Z.Z.Z.Z.Z.Z.Z.Z.Z.c.L.W.i p s i a s s i S s S s a a a D ",
"s i s i s i s i i s s s S s s s s i G w.C >.o.C N x l.k.c.M.N.Z.Z.Z.Z.Z.A.A.Z.Z.Z.Z.Z.Z.A.V.(.p i p i i u s s s S s s s a u i S ",
"s s s i s s s i u i s s s s s s s i `.C :.o.V B x l.k.x.C.Z.Z.Z.Z.Z.Z.Z.Z.Z.Z.Z.Z.Z.Z.Z.Z.L.L p a a u u i s s s s a s s i i i S ",
"s s s S s S i i y i s s i i i s p K <.o.A C B d d.c.c.c.Z.Z.Z.Z.Z.Z.Z.Z.Z.Z.A.Z.Z.Z.Z.Z.c..XG p s i i i i s s i s s i i i s a s ",
"s s s s s i s i s i S i i s u s s Q.;.C C B % O h.c.c.C.A.A.Z.Z.Z.Z.Z.Z.Z.Z.Z.Z.Z.Z.A.Z.C..XS s s u i s u s S u s i i S i p S i ",
"i s s s s i s i S i D i i a i s s ^.:.C V 1 . o , 7 f.j.c.N.C.Z.A.Z.Z.A.A.Z.Z.Z.Z.Z.Z.Z.C.U.K s s i s S p S s y i u i S i S S i ",
"i s i S s i s i D s s i u s t i S /.:.X.V & . . . . o O , 8 g.k.N.Z.A.A.Z.Z.Z.Z.Z.A.Z.Z.A.N.}.i s i a s s s s y i i s s s s S i ",
"i S i s s i s i s s s i i i i i s ^.3.o.C B & $ 8 q q , ; O O ; 3 r b.N.Z.Z.Z.Z.Z.Z.A.A.A.C.I.s s i i i u s s u i i a i s s p i ",
"i s s S s i p s i i s i t i t D ).r.{ X.:.A l 4 x.x.c.x.x.h.f.7 : $ $ , q v.Z.A.A.A.Z.Z.A.A.G.L p s s i i s s i p i S i s i s i ",
"i s s S S i s s i i s s S a $.t.( E ~ ..>.A V b z.c.C.C.C.C.Z.C.c.j.w < $ $ 3 v.N.A.Z.Z.C.A.C.(.i s s s s s s i s i i i s i i i ",
"i a s S S s s s i i i s S 8.} E ! 5 % ..>.>.C N l.S.Z.Z.Z.Z.A.A.Z.Z.Z.N.v.w , ; 3 z.Z.Z.A.A.C.{.i S s i s s s i s s i s s s i i ",
"y i s S S s S s i i u K y.} ~ ! w k.: z >.>.:.B m C.Z.Z.Z.Z.A.Z.Z.Z.Z.Z.Z.C.N.h.8 : 3 M.A.A.C. Xs S s u i i i s i s i S s S i s ",
"s s i a i i s s s i s &./ / = f.N.c.: z >.>.:.C b C.Z.Z.Z.Z.Z.Z.Z.Z.Z.Z.Z.Z.Z.Z.C.j.: , b.Z.A.F.G s s i s s s s s i i i s s i S ",
"s s i s i i s s s i 8.' E 5 j.C.Z.M.: l >.>.:.V M C.Z.Z.Z.Z.Z.A.Z.Z.Z.Z.Z.Z.Z.Z.Z.C.v.3 ; b.A.V.I s s i s s s s i i i i s s s S ",
"S S i S i i s i s *.W E 6 N.Z.Z.A.M.: l >.>.o.B m Z.Z.Z.Z.Z.Z.Z.Z.Z.Z.Z.Z.Z.Z.Z.Z.Z.Z.M.< , v.P.D i s i s s i s i i i i s s s s ",
"S S S D p i S s 8.W W > v.C.c.c.N.M.: l >.>.o.N l.Z.Z.Z.Z.Z.Z.Z.Z.Z.Z.Z.A.Z.Z.Z.Z.Z.Z.Z.k.: 8 J.u p s s i i i i s s i i s p p D ",
"S S p S s i S #.[ ( ! v.C.c.k.k.c.x.: z >.:.C b z.Z.Z.Z.A.A.Z.Z.Z.Z.Z.A.Z.Z.Z.Z.Z.Z.Z.Z.C.f.2 Q.p s S s i i i s S S i i s s s D ",
"s S S S S i D ).W ( _ v.k.k.k.k.x.k.; l >.C V x x.N.Z.Z.A.A.Z.Z.Z.Z.Z.Z.Z.Z.Z.A.Z.Z.C.G.Y.OXO.9.s s S i i i i S S S s i i i s p ",
"i a D s s i I | ( ] ( ^ ) 5 w k.k.j.: k o.C B c x.N.A.Z.A.A.S.Z.Z.A.Z.Z.A.Z.Z.Z.A.C.P.@XP J Q.Q.i S p i i i i s p s s i i i i s ",
"i a D s S i p.( ( ] ] ] ( E 5 k.x.k.4 B C C v m x.c.A.A.A.A.Z.Z.Z.Z.Z.Z.Z.Z.Z.Z.Z.K.@Xs u S D i i s s s i i i s u s s i i u i u ",
"i s D s i ).} ( ( ( ^ ( ] ^ , r j.j.f V V V v m x.c.Z.Z.A.A.A.A.Z.Z.Z.Z.Z.Z.A.Z.c.%XI p p p S i i s G s i i i i s s s i i i i i ",
"s i s s 6.[ ( ( ) 6 w 8 Q ( ( ^ ) ) 2 V V V N l.c.x.c.Z.A.A.A.A.Z.Z.Z.A.Z.Z.Z.Z.F.#Xp p p p s u i p S s s s s i s s s s i i s G ",
"S i s p &./ ) e x.C.N.k.6 W ] ] ] / - C C C N l.k.k.c.c.A.A.A.A.Z.Z.Z.Z.Z.Z.Z.Z.H.[.s s p G p u u i i s s s s s i s s s i s G p ",
"s i i R.' E e q m.T.P.V.q ^ ] ] ] ( j o.:.C N m k.k.x.x.C.A.A.A.A.Z.Z.Z.Z.Z.Z.Z.K._.i i s s s i i i i i s s s i i s s s i p i i ",
"s i S p./ ^ v.2 s.XXG.N.q R ( ] ] ^ g o.>.o.V c x.c.k.k.k.c.Z.A.Z.Z.Z.A.Z.Z.Z.Z.F./.s i i i i s s s i i s s s s i i p i s s i i ",
"i i F  .( ~ q r 9 b.N.h.; # ( ] ] ( - o.>.>.A b 0 j.k.k.k.k.c.c.Z.Z.Z.A.Z.Z.A.N.F._.s s i i s s s i i i p i s s p i i i s s s s ",
"i s Q.( ] W @ , q f.< $ + # ( ] ] ` R V >.>.>.A b x m d.j.k.k.k.N.C.A.A.Z.Z.C.c.F.'.s s p i s s i i i i i i i s s i u i s s s s ",
"i s ~.Y ( ( Y     o     X Y ( ] ] ] W g :.>.>.>.o.C N b x M M M d.l.z.M.N.C.c.c.B.oXi i i i i s i i i s p s i s s i i s s i i s ",
"i S 9./ ] ] ( T + # # # E / ( ] ] ] ] R k o.>.>.>.:.:.:.C C C B N N b c n l.m z.j.+Xs a s i i u p S p D i s @.P i i i s s u i i ",
"i S 9./ ] ] ] ( ( W R T ( ] ] ] ] ] ] ( ~ - k o.>.:.>.>.>.:.>.:.o.o.o.X.o.C v b b o.oXQ.a i s s s s s S u s @.+.i i s i i i i u ",
"p s 9./ ] ( ( R Y + X # W ( ( ( ] ] ] ] ] ( ^ ! ..:.>.>.>.>.>.>.>.>.>.>.>.>.>.>.o.X.B X.[.^.I S s s i i i D @.].u s S i i s s i ",
"S s 9.# R X X + | Q R W W E ' ( ( ( W ( ] ] ] ` * C >.>.>.>.>.>.>.>.>.>.>.>.>.>.>.>.o.o.B X.w.(.W.1.6.%.@.s &XK i S G p s S S i ",
"S i $.i.| Q # # y.} Y ^ | 9.#.&.W R # ( ] ] ] ] W l >.>.>.>.>.>.>.>.>.>.>.>.>.>.>.>.>.>.>.o.o.o.:.:...{ $X&XK i s s s s s S S S ",
"p i i S K @.Q.Q.8.8.6.#.s s s &.E R # ( ( ( ] ] E k >.>.>.>.>.>.>.>.>.>.>.>.>.>.>.>.>.>.>.>.>.>.>.>.:.g  .#.p u s i s s s s p S ",
"s i u s s s s p i i s i s D s &.E W E ( W W ] ] E j :.:.>.>.>.>.>.>.>.>.>.>.>.>.>.>.>.>.>.>.>.>.>.>.:.3.#.p p u s s i s i i p s ",
"S i s s s s s i y i s s s s s *.R W W E + R ` ^ * z V A :.>.>.>.>.>.>.>.>.>.>.>.>.>.>.>.>.>.>.>.>.>.C ^.u i G i G s p p i i s s ",
"s s s s S i p u i i S s i s i =.R E # # # E / T - V C V C :.:.:.>.>.>.>.>.>.>.>.>.>.>.>.>.>.>.>.A A N 7.i a S a s i s s i i s s ",
"s s s s s i s i s s s s i s i I } W E + R W R % B B V V V C C A :.:.:.>.>.>.>.>.>.>.>.:.:.C V B V V B U i S S i a i i s s s s s ",
"i i i S s s s i s s S i i u i i 8.R ^ R E R & B V C h z V C V V C C C C X.C C C C C C C V V h h V N 7.S s s i t i i i s s D S i ",
"i p i S i s s i S s p i u i i i s =.~ T R T j C N h N d N ..V V V V B B C C V B h f B C C V h B B ^.a a s s i t i i u i a S S i ",
"i s i S i i s i a i s i i i i s i s 6. .E T g V V h l h d V C C B V V h h V B h d v B C V V v ,.^.i s s S S s i i i i i i s S i ",
"s s s S i i s i s i s i i a s a s a i a 8.[ ..w.V V V V V V N B h h B h B V B h h h h B B N q.#.a a s i i s a u s i s s i s S i ",
"i s s p s i p s i i s i s S s s S S i i i U ~.J /.w.B B V V h h h d f V C V h h h f d h ;./.G S i i s i i a s i s i s s s s a i ",
"i i S S D i D p u i s s s a i u S S i u s s i s G I _.q.;.B B B B N h B V B B N V 4.0.!.K s D G i S S s i a s i s i s s S s i i ",
"u i s s i p s s i i i p i i i u p G u s s i s i s s s H /.[.a.a.X...-.X...4.a.`.E.F s t s s s G s S s i s i S S S i i a D s i s ",
"s s p s y i p s i s s i p s i i i D u s s u s u i i i i s s K I !.!.Q.Q.W.#.p s i i s y s i i i i s s u s i p S i i u s s i i s ",
"s s i i y i i s s s s i i s i u u s i p i u s i i u i u s i s s s s s s i i i s i s s i D i i u u i s i s i i i i i i i s i s S ",
"s s s s i i s s i i i i i s i i i s s G s i D p s s i i s i i s p i s s i i i S s S i i S i p i i s s i s s i i i s i i i s s s ",
"s s D p p s s s i i i i s s s i p i p S s s G s S s s i S i i i i i s s s i s s s S i i D s G S i p s s i i i s s p i i s s s s ",
"G p G s S i s s i i i s s S s s i i s G s s s s S s s s D i i i i s s s s i i s s s s s S s G s i D p s u i i s S S i i s s s S ",
"S s S s s i G s i p i s p D s i i i s i s S p s s s s i S s i i s s S S s i i s s i S s p p S s i D s s i s i s S S i i s i i s ",
"p i s s s i p p i i i p S S s i i s i i s S i p G s S i D s i i p S s S s i i s p i S s i S s p i G s s i s i S s p i i i i i s "
};
