/* XPM */
static char *_0447_eb71b33936d14d83b20ba7d0eaa1397dde464cf0f8cd405a2bbf4cc0bc94ef08[] = {
/* columns rows colors chars-per-pixel */
"64 64 175 2 ",
"   c #171F2C",
".  c #1B1F2C",
"X  c #1A212F",
"o  c #1E2534",
"O  c #27232E",
"+  c #37262F",
"@  c #212738",
"#  c #252B39",
"$  c #242C3C",
"%  c #2E323C",
"&  c #3A3736",
"*  c #33353C",
"=  c #38303E",
"-  c #3E3C3E",
";  c #462D35",
":  c #412F3B",
">  c #4A2F38",
",  c #542E35",
"<  c #423C37",
"1  c #4C313A",
"2  c #423E3E",
"3  c #5E3237",
"4  c #54323C",
"5  c #5A333B",
"6  c #683337",
"7  c #62353C",
"8  c #74363A",
"9  c #7A3738",
"0  c #74393C",
"q  c #78393B",
"w  c #335E16",
"e  c #356016",
"r  c #35621C",
"t  c #3A651C",
"y  c #3C6822",
"u  c #55452C",
"i  c #59482F",
"p  c #484037",
"a  c #46413C",
"s  c #4C463E",
"d  c #5D4D33",
"f  c #51473C",
"g  c #554B3B",
"h  c #5B4D39",
"j  c #5F5336",
"k  c #5F533A",
"l  c #604E35",
"z  c #645236",
"x  c #67563B",
"c  c #69563B",
"v  c #645A3F",
"b  c #6C593C",
"n  c #715C3F",
"m  c #406B23",
"M  c #446D2B",
"N  c #457026",
"B  c #47702D",
"V  c #49712D",
"C  c #4C7435",
"Z  c #4F753A",
"A  c #517535",
"S  c #517539",
"D  c #55793C",
"F  c #272F41",
"G  c #2B3244",
"H  c #2D364A",
"J  c #2F384D",
"K  c #313444",
"L  c #3B3544",
"P  c #3A3D44",
"I  c #313749",
"U  c #323A4D",
"Y  c #3A394C",
"T  c #2F3A51",
"R  c #323D54",
"E  c #433544",
"W  c #413848",
"Q  c #623940",
"!  c #3E4041",
"~  c #3D434D",
"^  c #3E4C4C",
"/  c #354057",
"(  c #3C4452",
")  c #3E4A51",
"_  c #36425A",
"`  c #3C4559",
"'  c #404B4C",
"]  c #44544B",
"[  c #49504C",
"{  c #454B59",
"}  c #4D5B54",
"|  c #4C535C",
" . c #505457",
".. c #645641",
"X. c #665841",
"o. c #6B5B42",
"O. c #675D4D",
"+. c #735E41",
"@. c #557346",
"#. c #567A43",
"$. c #5B7C45",
"%. c #597749",
"&. c #5D7D4B",
"*. c #526456",
"=. c #566953",
"-. c #5B6B57",
";. c #576558",
":. c #576958",
">. c #596C59",
",. c #5F7A54",
"<. c #676146",
"1. c #6E664E",
"2. c #6D6B4E",
"3. c #766142",
"4. c #7A6444",
"5. c #74654B",
"6. c #746849",
"7. c #617E47",
"8. c #69704D",
"9. c #627E4B",
"0. c #756752",
"q. c #7B6B53",
"w. c #6D7651",
"e. c #637C54",
"r. c #6E7C54",
"t. c #657D5B",
"y. c #687F5C",
"u. c #757254",
"i. c #727A57",
"p. c #757559",
"a. c #7D765C",
"s. c #757F5A",
"d. c #505962",
"f. c #5D6964",
"g. c #626768",
"h. c #626D6A",
"j. c #667A61",
"k. c #667962",
"l. c #66756A",
"z. c #6B7F68",
"x. c #8C3837",
"c. c #823B3D",
"v. c #8A3C3D",
"b. c #923C3B",
"n. c #9D3F3C",
"m. c #9F403D",
"M. c #A3413E",
"N. c #954040",
"B. c #9B4241",
"V. c #A14342",
"C. c #AC4542",
"Z. c #B24744",
"A. c #B64946",
"S. c #B04B48",
"D. c #837560",
"F. c #837B63",
"G. c #B86967",
"H. c #C66C68",
"J. c #5E8047",
"K. c #64824C",
"L. c #658254",
"P. c #6B8355",
"I. c #6B8956",
"U. c #658059",
"Y. c #6A845B",
"T. c #73845B",
"R. c #73895D",
"E. c #6D8362",
"W. c #7A8462",
"Q. c #7E8C65",
"!. c #83876A",
"~. c #838C6D",
"^. c #9E8286",
"/. c #95A192",
"(. c #BBBCBD",
/* pixels */
"t r y y e t m m m y m t m m m y y t y N m t t m m t t t y y y t y t M t N t y t y N t t y t m e r t y m m y t t m m N t t t m N ",
"y y y t e t y y m y m t m y m y m t y y y t t t t t r t y y y y y t y t m t y t t m t t y t y e t t y y y y y t y y y t t t y y ",
"m y y t t t y t y y m t y t y y y t m y y t y t y t r t y y y y y t y t m t y y t y t t y t y r t t t t y y y y t t y t y y y t ",
"y t t t t t t t t t t t y t y y y y y y t t y t m t t t t t t y y t y t y t y y t y r y y t y t y t t t y y m y t t t t y y y t ",
"t t t y y t t t t t y t y t y t y y y y t y y t m t t y t t t y y y y t t t y y m y t y y t y y y t t t y y t y m t t t y m y t ",
"r t y y m t t t y t y y m y t w y y m y t M B M y t t y y t t y t y N t t t t y y y y y t t y m y t t y y t t t m y t t t y y y ",
"t y t t y t t m m t y t m y t r y t Z J.e.*.*.*.,.$.y y y y y y y y y t t t t t y t t t t t t m y y y y y t t y y y t t t y y y ",
"t y t r y y y m m t y t m t y t Z e.*./ H J R R J =.y y y y y t y y y t t t t t t t t t t t t m m t y m y t y m t t t t t t t y ",
"y y t y m m m y t y y t r t m e.] U G L 1 > U _ U t.t m r m t y y t t t m y y t t t t y y t y y y m m y t t t t t t y m t t t t ",
"y m t m t m t t t t t t t S =.) J = 6 x.m.6 G R *.V m m t y r y y t r y y y y m t t r y y y y y m m y t t y y t t y y y m y y t ",
"m N t V t M t t r t t t #.] U J : 9 M.M.B.1 / T >.m y M w y t y y t r y t m y N y y t t y y m y m y t t t y y r t y y y y m y t ",
"t m t m t m t t t y y #.^ R H 1 b.C.Z.A.B.L / T -.y t m t t t y y t t y y y y m y y t t y y m m y y t t y y y r y m y y y m m y ",
"t t y t y y y y y y %.} U K 3 V.A.A.A.A.0 U _ H -.t t N t t t y y t y y m t y m y m y y t t y t y y y t y y y r m y y y y t y m ",
"y t y t y t m t t ,.) T K 8 C.A.A.A.A.A.7 R / H >.t t t t t t t m t y y m t y t t m y y t t y t y y t t t y y y m y m y y t t M ",
"y y y t y y y t Z ) T K 7 C.C.M.M.M.Z.Z.7 / _ H :.y y y t r t t y t t y m t t t t m t y y y m t y y r r t y y y t y y y t t t m ",
"y y y m y y t t >.T T 4 C.C.M.n.m.m.C.m.; / _ H :.y N N y t r t y y t y t m t t y m t y m m m y y t t t t m y t y y t t t y y y ",
"y y y y y t y $.( _ R 5 v.b.n.n.n.n.V.x.= _ _ H >.y y y t t t y y y t y t m y y y y t y y t m y y t t y t y y r y t t m t m m t ",
"t y y y y t y j.H _ R R Y E 1 9 n.n.M.v.L _ R H | &.y y t t y m m t t y r m m m y y t y m t y y y r t y y m y e t r t m t m m t ",
"t y t y y t Y.( R _ _ _ _ _ G 3 n.n.M.v.Y _ R J H { l.k.L.#.y y y t t t t y N y y y t y y t y t y t y y y y y w t t y y y y m e ",
"t y t m y L.d.R _ T U Y R _ I 4 8 v.b.7 R _ _ R R R R _ ` ( f.t.V t t t t y y y y y t y y y y y y t t t r y y r t t y t y y m t ",
"t y y y J.| / T P 4 0 c.7 H R R R W E Y _ _ _ _ _ _ _ _ _ _ R R | j.V y y t y y t t t t y y y y t y y t t y y t m t y t y t m t ",
"t y m m l.R Y Q N.C.C.C.b.1 R R _ _ _ _ _ _ _ _ _ _ _ _ _ _ _ _ R R | L.y t y y t t y t t m m m t m y y y y y t y t t t y t t t ",
"t y y &.{ R 5 c.7 G.H.G.V.3 H R _ _ _ _ _ _ _ ` R R R R R R R _ _ _ R / j.t m m t t y t t m m m t m y t y y y t y y t y y y t t ",
"w t y E.I R Q q Y ^.H.S.m.5 G H _ _ _ _ R U U I * 2 2 < ' a P K G R R R Y l.L.m t r y t t m y m y m y t t t t y t y t m y m t t ",
"y y t g.T R 1 v.0 c.C.m.9 + @ H R R R R F & g h l b +.3.4.4.3.o.g * F H U H Y z.M t t t m t t t t y y t y y y y y t t t y y t m ",
"y y #.( / R o + , 8 8 ; O o $ H Y T J G & z c c c +.4.4.4.4.4.4.4.+.f * F H H H h.S t t y t t t r y y t y y y m t t t t y y y m ",
"m m L.F _ _ J o   X .     o @ H J J H * g c x x b 4.4.4.4.4.4.4.4.4.4.o.s - % G % g.T.M y t y t t t y t y y t m t t t t y y y y ",
"m m Y.U _ _ _ J $ @ $ # $ G H H H J H < x x x b 3.4.4.4.4.4.4.4.4.4.4.4.4.3.o.X.b c z !.9.y m y t y y y t t t t y y t t y m y m ",
"m M Y.U _ _ _ _ R R H G $ J J J U J * h b x x +.4.4.4.4.4.4.4.4.4.4.4.4.4.4.4.4.4.4.4.b F.~.K.t y y m y t t t y m $.&.D y y y m ",
"y m P.U _ R T G F @ @ @ $ J J J J G * b 3.c b 3.4.4.4.4.4.4.4.4.4.4.4.4.4.4.4.4.4.4.4.4.3.b q.!.I.V m t t t t D 7.e.#.&.t t y m ",
"t y L.$ F @ o o P | F U U H U ) H % g 3.3.b +.4.4.4.4.4.4.4.4.4.4.4.4.4.4.4.4.4.4.4.4.n n 3.3.n o.F.Q.R.T.E.-.U.A M &.C t t t y ",
"t y C y.;.' K $ ~ f.G G ) } U.$. .< +.4.b b 3.4.4.4.4.4.4.4.4.4.4.4.4.4.4.4.4.4.4.4.4.4.b b 3.4.4.3.+.3.+.X.2 j.m &.$.t t t r t ",
"t y m y t V &.t.U.t.U.L.J.y t D 8.b 4.n 3.4.4.4.4.4.4.4.4.4.4.4.4.4.4.4.4.4.4.4.4.4.4.4.+.x b b 3.+.3.3.n 3.s [ e.Z y t t t t t ",
"y t m y t t t y y y y t t y J.a.n 4.3.b 6.4.4.4.4.4.4.4.4.4.4.4.4.4.4.4.4.4.n D.4.4.4.4.3.c x c x x x x x c O.P.C y y y t t y N ",
"m t y t e A A y y m N t t R.6.n 4.3.n 3.4.4.4.4.4.4.c.4.4.4.4.4.4.4.4.4.4.4.4.4.4.4.4.4.3.c c x c x x x x z p.B t y y y t y m m ",
"m t y y S 2.6.T.m y t N ~.6.3.3.n n n 4.4.4.4.4.4.4.4.4.n D.4.4.4.4.4.4.4.4.c.4.4.4.4.4.4.b x x c x x x x l p.t t y y y t y t t ",
"y t m y &.o.3.n F.F.!.D.n 3.3.n n 4.4.4.4.4.4.4.4.4.4.4.4.4.4.4.4.4.4.4.4.4.4.4.4.4.4.4.4.n x x c c x x x j P.y t t t t y y t t ",
"t t y y $.3.3.4.3.3.3.3.4.3.3.3.4.4.4.4.4.4.4.4.4.4.4.4.4.4.4.4.4.4.4.4.4.4.4.4.4.4.4.4.4.3.c x v c x x x T.y y y t t t y y y y ",
"t y y t y F.n 4.4.4.4.4.4.4.4.4.4.4.4.4.4.4.4.4.4.4.4.4.4.4.4.4.4.4.4.4.4.4.4.4.4.4.4.4.4.n x c x z z X.L.t t y y t t t y y y m ",
"t y t r m T.n 4.n 3.4.4.4.4.4.4.4.4.4.4.4.4.4.4.4.4.4.4.4.4.4.4.4.4.4.4.4.4.4.4.4.4.4.4.3.x x x i u 8.K.y y t y y t t y y t t y ",
"t m r y y W.x 3.n b 3.4.4.4.4.4.4.4.4.4.4.4.4.4.4.4.4.4.4.4.4.4.4.4.4.4.4.4.4.4.4.4.4.b c c x i d w.C m t y y y t t t y y t t t ",
"t m t m y K.3.4.3.v n 3.4.4.4.4.4.4.4.4.4.4.4.4.4.4.4.4.4.4.4.4.4.4.4.4.4.4.4.4.4.n b c x h j 8.D m y y r y t t t t y t t t t t ",
"m y t N y D 5.4.4.n c n 4.4.4.4.4.4.4.4.4.4.4.4.4.4.4.4.4.4.4.4.4.4.4.4.4.4.4.n b x c x z i.D m y y t t t t t t t y m t t y y t ",
"m t y m t D 5.4.4.n c c 3.4.4.4.4.4.4.4.4.4.4.4.4.4.4.4.4.4.4.4.4.4.4.4.3.n b c x x z x r.t m y y t t t r y y r t y m y y m y t ",
"m t t m t Z 6.4.4.4.b c c 3.4.4.4.4.4.4.4.4.4.4.b c n 3.4.3.4.3.4.4.n n b j c c c z <.9.y t m t y t y t y y y t y y m m y m m m ",
"m t t m t S 6.4.4.4.n c c c 3.4.4.4.4.4.4.4.4.4.n x i z c x b c b v j b c b c z j 2.S y t t y t y y y t y y y t y t y y y y y m ",
"y t t y y y u.n 4.4.3.b v c c n 4.4.4.4.4.4.4.4.4.4.3.c v x x x c v c j c c z j w.M t y y t m t y t y t t t y t y y t y t t y m ",
"m t y y y y T.z 4.4.4.n x c c b n 4.4.4.4.4.4.4.4.4.4.4.3.n x b c c c v c j z P.t y y y y y m y y t y e t t m t m y y t t t y t ",
"m y y y m r K.o.+.4.4.3.b c x c c b 3.4.4.4.4.4.4.4.4.4.4.4.3.b l d z x z v K.t t y y t m t m y y y t t t y m y m t y y t t y y ",
"y y y y y t m 1.c 3.4.4.+.c x x x x x b 3.4.4.4.4.4.4.4.4.4.4.3.n d u i z 9.m y t y y m m t m t y y y t t y m t t t t y y y y y ",
"t t t m y y y s.d b 4.4.4.+.c c c x x c b 3.4.4.4.4.4.4.4.4.3.n +.q.i.w.S y m m y t y t m t M t t t y y y y t w t t r y y m m t ",
"t y t m t y y 9.c x n 4.4.4.+.b x x x c c c b 3.4.4.4.3.3.4.a.R.9.m r t t y m y m t y r y t m t t r y y y y t w t t t t y m m t ",
"t y t m t t y t T.b x +.4.4.4.+.c x x v c c x c +.3.o.q.W.K.y y y w y y t t y t M t y r y t m t y t y y y m y t t t t t t m m t ",
"y y y m t t y t y u.h c +.3.4.4.n x x c x v x x z z p.$.m t t t y y y y t t m t m t m t y y y t y y y t t y y t y t y y t y y t ",
"t y m m y t m y t 7.0.l c o.+.4.3.+.x x x c x z 5.Q.C y y t t t y t y y t y m y t t y y t y y y t t y t t y y r y t y y y y y t ",
"w t m m m t m m t t K.o.l z x b 3.4.+.b x x z o.R.y y y y t y t y t t y t t m m t t y t t y m N t y m y t y y t y t y m m y t t ",
"r t y N t y y y r t t $.i.x x x c n 3.3.c x ..K.y y y y m y t t t t t y t t y m t t y w y y y N t m m r y t m m y t w y M y t y ",
"y y t y e t t y t y y t t P.o.z x x b +...p w.t t r t t y y y y y y y y t r t m t t y e y t t t t y y t y t y m t t t y m t t y ",
"y y t t e t t y y y y t t y K.2.z j k s P g.,.t t t t t y t y m y y y y t t t m t y y t m t t t r t y t y t t t t t t t y t y y ",
"y y y y t t y y t t t t t y t M r.v g !  .(.#.#.y y t t m t t y t t y y t t t m y m t t m t m t t y y t y y t t t y t t t y y m ",
"y y N m y y y y t t t t y y y t t D K.e.@.%./.#.y y y t m t t t t t y y y t y y y m t t m y N m r m m y t t t y y y t t y y y y ",
"m y m m N t y y t t t y y y y y t t y m y B C A m y y y M t t t t y y y y t t y y y m t m m m y t m y y r t t y m m t t y y m y ",
"m y m y t t m t m t t y m m y t t t y t y m y y y y y t m y t t y m m m y t t y y t m y m m m y t M y y t y t t m m t t y t t y ",
"t t y y m t m m t t t y m m y t t y t t y m t y m y m t m y t t y y y m y t t y y t m y t m m m t m y y t m t m y y t t t t t y "
};
