/* XPM */
static char *_0673_0a9104df123219bb6a6728ae4a0605b75b800baeaa963379488275c79a81f694[] = {
/* columns rows colors chars-per-pixel */
"64 64 216 2 ",
"   c #3C3B35",
".  c #3D3E3A",
"X  c #413E34",
"o  c #413F39",
"O  c #366117",
"+  c #37621B",
"@  c #3B661D",
"#  c #3D681F",
"$  c #3F4134",
"%  c #3E413C",
"&  c #3B6720",
"*  c #3D6822",
"=  c #424436",
"-  c #42443C",
";  c #464A3E",
":  c #484B3F",
">  c #416B24",
",  c #446E2A",
"<  c #486F2C",
"1  c #47702C",
"2  c #49712F",
"3  c #456C31",
"4  c #486F30",
"5  c #467032",
"6  c #4C7333",
"7  c #4E743A",
"8  c #517736",
"9  c #517837",
"0  c #51763A",
"q  c #54793D",
"w  c #3E4442",
"e  c #434543",
"r  c #454944",
"t  c #494C44",
"y  c #464A4A",
"u  c #4A4D4B",
"i  c #514F4D",
"p  c #4C5046",
"a  c #4D524D",
"s  c #51554D",
"d  c #54584F",
"f  c #4B4F51",
"g  c #4D5252",
"h  c #525553",
"j  c #545A54",
"k  c #595D56",
"l  c #525659",
"z  c #555B5B",
"x  c #595E5C",
"c  c #537544",
"v  c #557A42",
"b  c #5A7C44",
"n  c #59764C",
"m  c #5D7D4B",
"M  c #566056",
"N  c #5B615D",
"B  c #5F7955",
"V  c #607F4C",
"C  c #60645D",
"Z  c #61695F",
"A  c #627C54",
"S  c #677B5E",
"D  c #565C61",
"F  c #5A5E61",
"G  c #5D6363",
"H  c #5D6666",
"J  c #5E6469",
"K  c #616665",
"L  c #636A66",
"P  c #61666B",
"I  c #646B6B",
"U  c #696E6D",
"Y  c #647767",
"T  c #6C7D65",
"R  c #67716C",
"E  c #6B746C",
"W  c #6E7A6C",
"Q  c #606770",
"!  c #656D71",
"~  c #686E73",
"^  c #6C7373",
"/  c #6D757B",
"(  c #6D777A",
")  c #707676",
"_  c #737A7D",
"`  c #5D8046",
"'  c #5E814C",
"]  c #61804E",
"[  c #658454",
"{  c #678655",
"}  c #65825B",
"|  c #6A845C",
" . c #6B895D",
".. c #6D8463",
"X. c #6D8A62",
"o. c #6D826C",
"O. c #6B886B",
"+. c #718564",
"@. c #728A65",
"#. c #72846C",
"$. c #748C6B",
"%. c #729269",
"&. c #748374",
"*. c #758B72",
"=. c #798B75",
"-. c #7A877B",
";. c #7A9374",
":. c #799578",
">. c #7C9479",
",. c #818E7E",
"<. c #81937F",
"1. c #849A7E",
"2. c #6D7781",
"3. c #737C84",
"4. c #7B7E87",
"5. c #747E89",
"6. c #7B8384",
"7. c #7E8B83",
"8. c #76828B",
"9. c #7A868A",
"0. c #7B818D",
"q. c #7E9783",
"w. c #7B8492",
"e. c #7D8995",
"r. c #7D8999",
"t. c #7D9297",
"y. c #848A85",
"u. c #81858D",
"i. c #858D8B",
"p. c #839383",
"a. c #849C85",
"s. c #84948B",
"d. c #849C8C",
"f. c #8A988C",
"g. c #909D8E",
"h. c #848694",
"j. c #848C93",
"k. c #878999",
"l. c #838C9C",
"z. c #8B8E9B",
"x. c #839293",
"c. c #899594",
"v. c #88969A",
"b. c #91979A",
"n. c #939D9C",
"m. c #86A487",
"M. c #8CA498",
"N. c #92A79B",
"B. c #868FA4",
"V. c #8A8EA3",
"C. c #8593A3",
"Z. c #8B94A4",
"A. c #879CA0",
"S. c #8B9AA4",
"D. c #8D95AA",
"F. c #8D9BAC",
"G. c #929BA4",
"H. c #9195AB",
"J. c #949AAE",
"K. c #8E9DB1",
"L. c #949DB3",
"P. c #9A9EB4",
"I. c #969FB8",
"U. c #95ACA3",
"Y. c #96A7A8",
"T. c #96A3AD",
"R. c #9CA6AC",
"E. c #94A4B4",
"W. c #9CA3B3",
"Q. c #9AACB4",
"!. c #96A5BA",
"~. c #9BA5BC",
"^. c #96A9B8",
"/. c #9CABBD",
"(. c #9CB3B6",
"). c #9DB5BA",
"_. c #A1A7B6",
"`. c #A1ABBC",
"'. c #A0B2B7",
"]. c #A3B4BE",
"[. c #9DA6C1",
"{. c #9DACC3",
"}. c #9EB1C7",
"|. c #9EB2C9",
" X c #A1ADC4",
".X c #A3AFC9",
"XX c #A3B2C6",
"oX c #A6BDC4",
"OX c #A3B3CB",
"+X c #ABB5CA",
"@X c #A6BACD",
"#X c #AABACD",
"$X c #A5B5D0",
"%X c #A9B5D2",
"&X c #A6BAD2",
"*X c #AABBD4",
"=X c #ACBDD9",
"-X c #A9C3C9",
";X c #AEC3D6",
":X c #ADC2DB",
">X c #B1C4DE",
",X c #B2CAD9",
"<X c #AEC3E1",
"1X c #B1C5E2",
"2X c #B4CAE5",
"3X c #B8CFE5",
"4X c #B6CCEA",
"5X c #B8CFEC",
"6X c #B7D1E3",
"7X c #B8D2E3",
"8X c #BAD1ED",
"9X c #BDD5F3",
"0X c #BED8F2",
"qX c #C0D9F6",
"wX c #C3DCFC",
"eX c #C7E1FF",
/* pixels */
"+ @ * @ + @ & > > & & & > > > & & & & * & # @ @ # @ + + * * * * & @ & * * @ @ # # # # @ @ # @ + + @ & * * * @ & * * * * + # * * ",
"& & & @ + + & & > & & # & # & & & & & * * # @ @ + @ + + + @ @ & @ + & * # @ + @ # # # # @ # # O + + # * * * & @ * * # @ @ * * # ",
"* * @ + + @ @ @ & & > # @ @ & > * * * * * @ @ # & * , 4 9 q q v ` ` 7 ` 9 1 1 > # # # # @ # # + + + @ @ * & * @ @ * # @ @ * @ @ ",
"* * @ @ @ @ @ @ @ @ & # @ @ # & * * * * @ & * & 9 ' { ;.q.M.M.U.U.M.M.q.q.:.%.' 1 # # # # # # + # @ + @ & * * * @ + + # * * @ + ",
"+ @ @ & & @ @ @ @ @ @ # # @ @ @ & & * & & * v O.q.U.).-X:X2X6X6X6X6X6X6X6X-X-X(.M.:.{ q & # & & # + + @ # # @ @ # @ # + # * * * ",
"@ + @ # & & @ & @ @ # # # # + @ & * & * c O.q.}.@X<X9X0XwXwXeXeXeXeXeXeXeXeXeX0X7X-XU.1.[ 2 & & # # + @ @ @ @ # # # + # + * * * ",
"+ @ @ @ * & + & * * @ * * * @ @ * * * c t.|.4X9X9X9X0X0X0X9X0X0XeXwXeXeXeX0XeXeXeX0X0X,XU.%.5 , * # # @ # + # # # @ + + + * * * ",
"@ @ @ + & * * & * & + & * @ @ @ * * O.^.&X4X0X0X0XeXeXeX0X2X4X2X6X0X0X0X0XeX0XeXqXeX0XeX7X).q.[ 5 # * * * @ # @ # + @ + # @ # + ",
"# @ # # & > & & # + @ # + @ + 5 B q.^.<X4X9XeX0X0X8X2X&X^.K.F.F.t.^.}.}.}.&X;X1X5X0XwX0X0X2X^.q...v * * @ @ # @ @ @ # # # @ + @ ",
"& @ # * > * & & + + # + + # 1 } M.&X<X2X4X5X4X:X&X}.F.r.3./ / I O.2.2.8.8.8.e.C.{.:X9X9X9X<X|.!.M.:.7 > @ @ @ @ + @ # * * * * + ",
"& & * , & & + + @ + # + + * *.S.^.:X5X0X5X|.A.8.8.( ( ! ! ^ ^ P H H D H G a y M Q C.$X<X4X4X<X=X|.A.o.c , # @ + @ * * * * * * & ",
"# & * > * & & @ * & * + 3 o.S.^.}.2X9X2X{.8.H j N H H I R ! K K N D g g a ; % % y G 2.r.!.:X4X<X|.!.A.:.' , # @ @ * * * * * * * ",
"# # * @ & & * @ & * * 3 O.K.~.{.&X4X:X^.( M ; ; s M G I ^ ^ C K H M r r t y y w r r t M 8.^.<X|.|.|.|.(.a.' > # & & & & * & * & ",
"@ # * + & * * + + * * Y C.!.OX=X2X@Xt.! M a p t s d j N ^ _ P I H M ; ; a a g g h y w r D 2.t.K.^.$X4X5XoXm.q & > > & & * & & * ",
"& & * & & * * + + * ..t.!.{.OX$X^.8.H j a a a p p p p k I ^ K C N N : ; a g M G H N g y a g G 8.{.4X0XwX8XoX%.9 & # # @ # @ & * ",
"& & & * * * @ @ + 3 7.W. X%X|.F.8.M a j j j s a p : ; j L I C k M N p : a j M H H R H l a e y J F.4XwXwXwX6XU. .1 @ @ @ @ # & * ",
"* & & * * & @ @ & c Z. X=X>XE.( M j N G N z j j s p ; k I I x j k C p : t s j k H R ( H z f y g 2.{.5X9X9X9X-Xq.` * & & + * * * ",
"& & * * & @ @ + B c.~.=X2X=Xw.G z G H I G M k M j p : j L I C C L U d = ; t p s g I ( H G l f g G 8.&X<X2X4X4X^.O.7 * & @ * * @ ",
"@ @ & * & @ # 7 &.J.`.>X>XE.! j M N H K H M z M s p s C I I K I ) U s =   = t p p N H Q D l z j g J t.&X5X5X9X:Xd.' 5 & # * # @ ",
"@ @ @ * @ & 5 O.u.H. X=XXX6.M g z z N N K N z j p t h L K k k U ) L s = = = s d r a H H D D D D l D Q !.4X9X9X5X}.;.7 & * # # @ ",
"@ @ & & @ 6 | i.V.P. XXXZ.C s s s d j k N z z d ; : s x h : ; N I F s s j z G N r r h G D z D F D l l 5.|.9XwX0X;XM.b # * @ @ @ ",
"@ & > > > c &.z.H.P..XJ.( t : t p p p d j j d p s N ~ I N s s N I U ~ / _ _ ^ N % % a j h f g a g f f G C.4X9XwX8X(. ., * @ @ @ ",
"+ & & > 2 B 4.V.P.~./.8.j = = : a t p t p p a k U 6.j.-.) E R R W _ 6.y.7.7.&.H r % y g f u u u r y y f 2.&X9XeX8X-X;.8 & @ @ @ ",
"+ @ & , q o.u.V.L.~.F.I ; $ = p N a : : t ; d _ c.M.f.<.=.$.#...+.+. . . .X.*.o.p w w a l x x k a e e e Q !.9X9X4XoXm.` > # # @ ",
"& & + > ' =.z.H.I.[.l.G : = : k ) L C C C k K y.=. .m b b v q 7 6 6 6 < < 6 X.&.a r y a j G P P i w % . D B.4X9X1X@XM.{ * * * # ",
"& & + > { p.Z.H. X Xl.~ k j k I _ _ E U U U ) y.{ 8 # > > * * * & & @ @ + & } #.g e r a a z K P l y .   g 5.=X5X1X@XU.%.1 * * * ",
"& @ & , X.c.V.D.[.OXr.3._ ^ _ _ ) _ _ ) U I E &.A 8 @ @ # * @ @ @ @ @ & @ & [ T a e - e t s k G F g e o y Q |.8X8X:X).:.7 * * * ",
"> # > < +.c.V.H.{.{.w._ _ 3.v.j.) _ y._ L d k W { 0 > @ & @ @ @ @ @ & & & & m o.h t e ; h x x G F x g w e F {.8X9X,X].q.q * * * ",
"> > > 8 @.i.V.P..X[./ K I 8.S.z._ _ 4._ N p s Z | q * * * > @ @ @ & > & > > m T j u ; t z x F ~ P F x e . l K.1X0X;X].a.q * # * ",
"# # , 9 +.i.V.P. XE.K a x 3.v.j._ _ _ ) j t d L | q & & & & @ @ @ & & & @ @ b ..N j u u j z x ) ~ J F u . f r.<X9X;X].m.q * # * ",
"@ @ < q T u.V.P.[.S.x r a I _ 3._ _ 6.E d : s L ..b @ @ * > @ @ @ @ > & & @ q T I ~ K j j k K _ / P F e   y r.=X8X#X'.a.q * + # ",
"@ @ , q #.h.H. XOXZ.k ; ; h I ~ U ) _ _ d : d L @.b @ # * & # @ @ @ @ @ > @ q ..I I K d j k K / ~ G F t . y r.:X6XXXQ.a.q * + + ",
"@ @ , v W k.I.=X&XF.j ; ; p G K C I ^ ^ j p h R $.` @ @ @ > @ @ @ @ @ # > @ q S H N d p d M N I K x F e . f F.<X2X/.Y.q.q # @ @ ",
"@ @ > v #.k.[.1X1XE.M ; r t N G N L R I N s z Y *.` @ @ # & # @ @ & @ # @ @ q A N h t : s j k N z j G u e l !.4X>XQ.Y.:.9 > # > ",
"& & * 0 #.G.[.<X4X[.H : ; t G N j k N I N j j I *.' + @ @ & > # > > @ @ # @ 8 A M a u s d j M K F x G u e D {.1X@XQ.Y.:.8 * # & ",
"* * * < $.G.[.=X1X|.H t ; h I U G N H I N a y N *.[ + @ # & @ @ @ @ @ @ @ @ 8 A N j s z j d M G G F F i f Q ^.$X).E.n.$.2 & * @ ",
"* * * , X.N./.OX<X&X/ a u N ( ( I K I I x t r h O.] + @ @ @ @ @ # # @ @ # # 0 A L k h k i f l l x x l i l 2.K.!.T.F.d.X., & * @ ",
"@ * & * [ d.!. X=X=Xe.z r h I K s p s k h t r k =.{ & @ @ @ @ # & * , , < < ` +.E i - r y y y y e t i e l 5.K.L.A.C.7.[ , & * * ",
"@ @ & & b >.W.[.=X>XK.H t j x j ; % r p a t r h &.$.` m m m [ [ } { X...} | ..W x e w y f f y w e o e   D B.$X|.F.v.=.' * # # & ",
"@ + + & 7 @.Y. X%X>X|.3.a j g a r % r r t e - t Z T S T S Y T W W W W W E E R N e w y l D l f y y e   o Q I.4X=XT.t.$.b * # + & ",
"@ @ @ * , | N.~..X=X=Xr.z t e r a g f w w w w % - t u a t e r r ; e r r w w y y w w f l D D l f f e . f w.=X8X;XE.q.| 7 * + + # ",
"& @ # > > ` g.J.[.%X=XL.! = $ r y l M l N M h t y g x z g r w r e . r w w w w w y f l D J J D f y w w Q K.4X8X=XE.s.m , # @ & + ",
"& * @ > * q ;.G.I.{.=X|.w.u - = y h N H J H G g z F Q F l y y y r - w y y y e y f l l D Q J l f e w f 8.OX5X3X#XY.;.q * # & * + ",
"* @ # > * 2  .c.L.[.%X=X!.! r   % p l H ! H G z P Q I F g u y u y r w f l l y w f D D D D l l y w y J S.%X2X;X'.d.[ 2 @ # & & @ ",
"& # & > # > 9 >.b.I.[.&X$XD.F % % y g z J G z G Q ~ F l g i x F z s e h J F u e f f l D l l f y y D 2.D.`.*XoXY.;.9 > # & & > > ",
"& # # * # @ , { p.G.H.[.$XOXr.z % % r a z l l G J J F f u i i i h z g x J i e e f w f f f y w y D 2.B.5.C.E.T.a.[ > # @ # # # > ",
"* & + & * # * 6 | s.C.D.[.&X{.8.a . % r a h l l D D l u e e e - t z F K F o o e w w w w w . w D 3.C.D.w.5.u.f.@.6 # @ @ @ @ # # ",
"& & @ * * * * @ 0 X.x.C.K.[.OXE.3.y % r t y y g i f u u u i i e y z J x l i e o w w w .   . l 5.!.$X}.K.9.^ $.` > & @ @ @ @ # & ",
"& > & & & & * & * v ;.v.Z.H. X.X!.2.l o - - e e u t e i i l x e e l h u i i j z l h y w e F r.OX<X>X#XD._ L V 6 @ @ & & @ @ @ & ",
"& & & > & * * + + , { q.C.H.I..X$XI.3.l e o o o - X o t l F l i i x u - e i l G P P G J / C.$X2X2X=X Xj.W n 2 > & @ & & & > & & ",
"@ @ @ & * * # @ @ * 7 X.f.D.H.I.{.$X!.w.P u - o X X o i l i o u x ~ i o o o e i F Q 2.C.{.&X>X>X>X+XG.,.S c > + + + @ @ @ > # @ ",
"@ @ # > @ # * # @ * * 7 ..v.V.D.D.D.L.I.D.w.~ F i - X : o X o t G ^ h       . u J 3.K.$X=X&X+X#X+XR.p.A 0 , & + + + @ & & > # @ ",
"@ @ & > @ @ * @ # * * * 7 $.i.j.w.4.V.I. XE.D.l.4.~ F l g t e h P ~ F i h x P / h.L.OX:X*XXX/.XXR.1.A 8 , # & + + @ @ @ @ > @ @ ",
"& # & & @ @ * # @ + * @ * 0 X.=.3.3.l.D.H.L.~..X XL.C.4.3.2./ 2.3.3.2.3.h.H.!.OX%X*X*X#XXX`.W.N.1.{ < # # # & @ @ @ @ @ @ & @ @ ",
"@ & & > & & & # + @ & @ & > , q ..>.j.k.k.l.V.P.I.[.~. X X.X.X X X_. X.X#X#X=X#XXXXXXX/.Q.R.g.$.q > > @ @ @ # @ @ @ # & & @ & @ ",
"+ @ > > > * * & @ + @ # # & + * q } $.7.h.h.k.k.V.H.H.I. X%X%X.X X X+X%X#X#X+X+X`.`.W.G.n.p.X.q > # > @ @ @ # > @ @ @ > & > @ @ ",
"+ @ & * & * # * * + @ @ @ # @ + & 2 m  .*.y.u.0.4.4.u.k.V.P.P.R.H.H.R.R._._._._.R.R.b.<.@.V 6 > > @ @ @ @ @ @ > @ + @ # # @ @ @ ",
"* & # @ + + + * @ # @ @ @ # @ + @ & > , b | =.y.4.4.4.4.h.k.k.k.h.h.z.b.z.b.n.b.g.1.@.b < > @ @ @ @ > @ @ @ # @ @ @ @ @ > @ # # ",
"* * @ @ @ + @ * # # # @ @ & @ + + & @ > > 6 b A T +.+.,.,.y.i.i.y.y.y.y.1.,.,.+.] b 5 , > @ + @ + @ > @ @ @ @ @ @ @ @ @ @ @ @ > ",
"* * * * @ * @ # @ + @ @ @ * # @ @ @ # @ @ @ > 6 q b V V { +.+.T +.T @.+.V V q 2 > & @ + > > # @ @ @ @ @ @ @ @ @ @ @ + @ @ > & & ",
"* & > > * * & @ @ @ @ @ * * # + @ @ # > * * & > > > > > > , , 4 6 6 6 < > # # > * * * @ > > > * & * > @ @ @ @ # * & @ @ @ & > & ",
"* > > & * * * @ @ @ @ # * * * # @ @ @ > * * & & # # # # > @ @ @ # > > # # # @ @ & * * * & > > * & & * @ @ @ @ @ * & @ @ @ @ & & ",
"> > > & * * > @ @ @ @ # & > # # @ @ @ & * * & > & & # > @ > @ @ @ # # # # @ @ @ * * * & * > > * & & * & @ @ # & * * @ @ @ & & * ",
"& & & & # # > # @ @ @ # > & # @ @ @ @ & * * & & > > & & > @ @ @ @ > # > # @ @ # * * * * & & * & > > & # @ @ # & * * @ @ @ + & * "
};
