/* XPM */
static char *_9485_f45645867e5f856b0990095dacd7a068697c95b7d1cd71e2b2369ad5903084be[] = {
/* columns rows colors chars-per-pixel */
"64 64 202 2 ",
"   c #070613",
".  c #0D0E1A",
"X  c #150D17",
"o  c #14051D",
"O  c #3C151A",
"+  c #1A1A27",
"@  c #321130",
"#  c #1E202B",
"$  c #262435",
"%  c #332836",
"&  c #2F303A",
"*  c #31333A",
"=  c #501218",
"-  c #4C2519",
";  c #632025",
":  c #772326",
">  c #36621B",
",  c #3A651D",
"<  c #39681F",
"1  c #3C6720",
"2  c #3D6822",
"3  c #43631F",
"4  c #565D22",
"5  c #5B5C24",
"6  c #754C23",
"7  c #6C5624",
"8  c #675925",
"9  c #645A25",
"0  c #6A5926",
"q  c #725525",
"w  c #7A5428",
"e  c #436522",
"r  c #4B6524",
"t  c #406A23",
"y  c #47682A",
"u  c #576623",
"i  c #536324",
"p  c #476638",
"a  c #4F733E",
"s  c #6A6626",
"d  c #756925",
"f  c #686733",
"g  c #322E41",
"h  c #353748",
"j  c #3D3C55",
"k  c #490643",
"l  c #431341",
"z  c #493C4D",
"x  c #3C4149",
"c  c #4B474D",
"v  c #454758",
"b  c #515B59",
"n  c #774E55",
"m  c #4F6A43",
"M  c #557746",
"N  c #5C6A53",
"B  c #4B4A66",
"V  c #524F6D",
"C  c #5C4E6A",
"Z  c #4E526B",
"A  c #52516E",
"S  c #585E69",
"D  c #555471",
"F  c #5A5B76",
"G  c #6C5265",
"H  c #685D76",
"J  c #5C656F",
"K  c #6C696A",
"L  c #796D67",
"P  c #676777",
"I  c #766777",
"U  c #7D677A",
"Y  c #7A697D",
"T  c #677176",
"R  c #6B737B",
"E  c #7B7572",
"W  c #97282B",
"Q  c #A92E23",
"!  c #A73C26",
"~  c #BF3524",
"^  c #B43C25",
"/  c #BA3A26",
"(  c #F51F1F",
")  c #F4211F",
"_  c #F41F20",
"`  c #CB272C",
"'  c #D42F24",
"]  c #DC2A25",
"[  c #C43525",
"{  c #CB3325",
"}  c #C43A29",
"|  c #D23024",
" . c #D43929",
".. c #D12C32",
"X. c #C73D3A",
"o. c #D53438",
"O. c #E62722",
"+. c #EC2422",
"@. c #E42924",
"#. c #E92C24",
"$. c #F32120",
"%. c #F22D21",
"&. c #EE3422",
"*. c #ED3B22",
"=. c #E73429",
"-. c #F13321",
";. c #F43F25",
":. c #8A4D27",
">. c #964927",
",. c #825127",
"<. c #A14325",
"1. c #B44F29",
"2. c #856728",
"3. c #9D6827",
"4. c #9D6A29",
"5. c #AD6A29",
"6. c #CD4F2E",
"7. c #D84A23",
"8. c #E94323",
"9. c #EA4C24",
"0. c #F44627",
"q. c #E65425",
"w. c #E65925",
"e. c #EC5928",
"r. c #E35B33",
"t. c #D56B2A",
"y. c #D8682B",
"u. c #CA6633",
"i. c #D36434",
"p. c #DA7337",
"a. c #E26B26",
"s. c #E46628",
"d. c #E67B2A",
"f. c #E97C2B",
"g. c #F36B31",
"h. c #9E3B4A",
"j. c #C73C41",
"k. c #824955",
"l. c #975152",
"z. c #B35751",
"x. c #9B7845",
"c. c #B96A48",
"v. c #8C5C61",
"b. c #926968",
"n. c #A8776B",
"m. c #BA7778",
"M. c #C34145",
"N. c #D37845",
"B. c #CA6E53",
"V. c #74916D",
"C. c #EA832E",
"Z. c #EE8B30",
"A. c #F68532",
"S. c #F19B34",
"D. c #F4A437",
"F. c #F8AD39",
"G. c #F8B13A",
"H. c #D7A95D",
"J. c #686C81",
"K. c #7F6F82",
"L. c #6D7383",
"P. c #737D83",
"I. c #737789",
"U. c #827888",
"Y. c #7A8389",
"T. c #7D8493",
"R. c #7F8796",
"E. c #85868C",
"W. c #858B96",
"Q. c #8C959B",
"!. c #8D9A9C",
"~. c #919A9F",
"^. c #A8988D",
"/. c #96A49D",
"(. c #8D9AA0",
"). c #9697A4",
"_. c #929DA1",
"`. c #96A3A5",
"'. c #9AA7A9",
"]. c #9BA5AA",
"[. c #9FB5A9",
"{. c #9CAAB4",
"}. c #A1A4AF",
"|. c #A2AEB8",
" X c #A3B2B4",
".X c #A7B6B9",
"XX c #AABABD",
"oX c #CD8688",
"OX c #C7A289",
"+X c #C4ABAC",
"@X c #AFBEC3",
"#X c #B1BDC3",
"$X c #B4C4C6",
"%X c #B5C5C9",
"&X c #BACCCF",
"*X c #BCCED1",
"=X c #BED0D3",
"-X c #C3D6D8",
";X c #CEE2E3",
":X c #DAEDED",
">X c #DEF1F0",
",X c #ECFEFD",
/* pixels */
"> , 2 > > > 3 t t 2 2 , t 2 t 2 2 > , t t , s t.s < > > 2 2 2 2 2 , t , 2 , , < d t.u < , , < > > , , t 2 2 , , 2 t t , > , t t ",
"2 2 , , > , , 2 2 2 2 , 2 2 2 2 2 > 2 t 2 , r 2.u < > > , 2 2 2 2 , 2 , t , 2 < d a.u < , , , , > > , 2 2 2 1 , , 2 2 , , , 2 , ",
"t 2 , > > , , , , 2 2 , , , 2 2 2 2 2 2 2 , , , < , , , , , , 2 2 , , , 2 , 2 , s 5.u , < , , , > , , , 2 2 2 2 , , , , , 2 2 , ",
"2 , , , , , , , , , 2 , , , < < 2 2 2 2 , , , 2 2 < > , , , , 2 2 , , , 2 , 2 2 3 r , , t , 2 , , , > , < 2 2 2 , , , , 2 2 2 > ",
"> , , 2 2 , > , , , < 3 2 , , , 2 2 2 2 , , 2 2 2 , , , , , , , , , < > , > 2 e t 2 , , 1 , 2 2 , , , , , 2 , , , , , , , 2 2 2 ",
"> , , e 2 , , , , , , , t 2 , , , 2 2 2 , , 2 , , , , , , , , , , i u 4 , > , 2 t , , , , , 2 2 3 , , , 2 , , , t , , > , 2 2 2 ",
"> , , , , , , t 2 , , , t , > > , , 2 2 , , , , , , , 2 2 2 2 , e ^ O.' 5 > , , 2 , , , , > , 2 2 2 < 2 2 , , 2 2 , , , , , 2 2 ",
", , , , 2 2 , t t < , , 2 , , , , , , < , , > 2 , , 2 2 , 2 2 < 2 [ ( +.9 , , , , > > , , > , 2 2 2 2 2 2 , , < , , , , , , , , ",
"2 2 , 2 2 t t 2 , , , , , , , t 2 , , , > > , 2 2 2 2 2 , < i 4 9 { O.[ 5 2 < , > > > , , , , 2 2 2 2 2 , , , , > , 2 2 1 1 > > ",
"2 t , 2 2 t , , , , , > > , 2 3 2 2 , , , , , 2 2 t 2 t , 3 ^ @.@.$.^ e t 2 2 2 , , , , 2 , 2 2 2 t 2 , , 2 , , , , 2 2 2 2 2 , ",
"2 t , t 2 t > > , , , , , , , 2 2 t t , , 2 2 , 2 2 t 2 4 <.] -.9.q.1.< 2 2 2 2 2 , , , 2 2 t t 2 2 , , > , 1 > , 2 2 2 2 t e , ",
", 2 2 2 2 2 2 > , , , < < , 2 2 2 2 t 2 2 2 2 , , 2 , < q ) ) 8.a.a.4.1 2 2 2 2 t t , , < 2 2 2 2 2 , , , 2 1 > , e 2 2 2 2 t 2 ",
", , , , 1 1 2 1 1 2 2 2 2 2 2 2 2 2 2 2 2 2 , , , , , 2 q +.q.a.a.a.5.2 2 , 2 2 2 2 1 , , , , , 1 1 , , , 2 1 , 2 2 2 2 2 2 , t ",
", , 2 , 1 1 1 , < 1 2 2 2 2 2 2 2 , , 2 2 2 , < < , < < 7 %.w.a.a.9. .<.i < , , , 2 2 2 , , 2 , 2 2 , > , 1 2 1 2 2 2 2 1 > , 2 ",
"2 2 2 , 2 2 2 > > > 2 1 1 , 1 1 , , , , 2 2 2 2 < 2 t 2 9 [ w.a.s.&.( O.8 < , , , 2 2 2 , 2 2 , 2 2 > > > 1 2 2 2 2 , , , , , t ",
"2 2 2 2 2 2 2 > > > 2 2 , , < 2 2 , , , 2 2 t 2 < 2 t 2 , 3 5.a.s.&.) O.9 2 , , , 2 , 2 2 2 t 2 2 , , > > 2 2 , , 2 , , , , 2 2 ",
"2 2 2 2 1 , , < , , t , > , , , e 2 2 , , 2 2 2 2 2 2 2 , 2 1.8.s.&._ ) [ ,., 2 1 2 , 2 2 2 2 2 2 , , , , 2 2 > , , , 2 , , t 2 ",
", 2 1 2 1 < , , 2 2 2 , , , > 2 2 2 2 2 , , e 8 0 5 1 , , , ~ &.s.q.0.&.%.} 0 t 2 2 , , 2 , 2 2 , > , 2 2 2 2 > > > , 2 , 2 t , ",
", 1 , 1 , , , , 2 2 2 > > , > , 2 2 t 2 , > 0 @.+.^ e , , 3 [ *.a.D.S.s.&.$.] 9 2 2 , , 1 1 1 , , , , 2 2 2 , > > > , t 2 2 t , ",
", 2 2 1 , , , < , 2 2 , > , , , 2 2 2 2 , < 7 +.( O.^ 5 5 / @.*.a.D.F.S.s.8.$.[ ,., , 1 2 1 2 1 , , , , , , , , , > , , 2 2 2 , ",
", 2 2 2 2 , 2 , > , 2 , , , , , , t , , , < 8 +.{ { +.:.>.$.) &.w.Z.D.G.C.q.( ( ! , , , , 2 2 2 , , , , , 2 , , , , , , 2 1 1 > ",
", 2 2 2 t , 2 < , , 2 2 , 2 , , , , , , , , 8 ] q 0 #.+.+.$.) ) +.w.C.G.f.q.$.) <., , , , 2 t t , 2 2 , 2 2 t , 2 3 , , 1 , , , ",
"> , 2 t 2 1 2 2 > , , , 2 2 , , 2 t , > , , 3 8 r y 0 [ ( $.) ) $.%.9.C.S.C.w.) ! > , , , t 2 t 2 2 2 , , 2 , , , , , , 2 2 , , ",
"> , 2 t 2 2 2 2 , , , , 2 , , , , t , , , > 3 7 r r q { ( +.[ [ +.) *.a.D.S.a.&.~ q 3 > > 2 2 t t 2 2 , > , , , , , , , 2 t , , ",
"2 , , 2 , , 2 2 2 , , , , , , > , t 2 2 e , 7 @.q 7 O.( ) #.0 w +.) *.a.D.S.a.*.#.' 5 > , , , , , t 2 , , , 2 < , , , , , 2 , 2 ",
"2 , > 2 , , , 2 2 , 2 , , , , > , t 2 5 ~ [ | +.' 6.q.#.) ) { | $.9.s.a.D.G.D.s.1.5 3 > , , > > , , < , , 2 2 2 , , , , , 2 2 t ",
"2 , 2 e , , 2 , , , , , 2 , , , 1 2 2 8 +._ $.$.( *.a.e.0.) -.8.*.s.a.a.Z.D.G.f.4.1 , , 2 , 2 , , , , , , 2 , , , , , , 2 2 2 2 ",
"t t t 2 2 < 2 2 , , , , 2 , , , < 2 2 8 O._ +.O.$.&.a.D.A.) w.a.y.a.a.a.a.f.F.f.4.2 1 1 2 2 t , , < t , , , , , < , , , 2 2 2 2 ",
"t t 2 t 2 < t 2 , < , , t 2 2 , , 2 < 8 +.) { s [ -.a.d.e.) w.a.a.a.a.g.*.9.d.a.4.2 2 2 2 t t 2 < 2 t , , , , , 2 t , , , < 2 t ",
", t 3 t < , t 2 , , , , 2 2 2 , , , , 8 O.) { ,.>.1.c.c.c.M.M.z.c.B.N.0.8.9.a.a.4.2 2 2 , t t 2 , t t , , , 3 , t t , , , , , 2 ",
", 2 t 2 t , t 2 , , , , 2 2 2 , , , < 9 O.) ) #.q N Y K.U.U.U.U.U.~.U.;.s.p.a.a.3.2 < t e r y , , 2 2 , , > , 2 , 2 2 , , , , , ",
", 2 t t , , t 2 2 , > , , , 2 , , , > 9 +.( ..v.I I K.].#XXX.X#X#X%X%X+X^.^.^.p.3., < q { | :., , 2 2 2 , , > , , , , , , > , > ",
", 2 2 e , , 2 2 2 , , , , , 1 , , , > s *.o.h.J.W.).).$X=X=X=X=X-X&X-X;X-X$X Xx.d > 1 ,._ _ <., , 2 2 2 , , , , , 2 2 , , , , , ",
", 2 2 , > , , 2 2 2 , , , 2 2 , , 1 e s u.b.U.U |.*X*X=X=X=X=X=X-X*X;X,X,X:X&XM e 3 2 w _ _ <.< > 1 t 2 2 2 , , 1 2 2 , , , , 2 ",
"2 , 2 , > , , 2 2 2 2 , , 2 2 , , 2 >.X.b.U U K.U.).*X=X=X=X=X=X&X&X;X,X,X:X&X/.n.[ i ,.$.$.<., > > , 2 2 2 2 , , 2 2 2 , , 2 t ",
"2 , 2 , > , , , 1 2 2 , , 2 , < r ,.| o.U Y K.H b.U.].$X=X=X=X=X=X=X-X:X,X:X*X[.m.$.>./ $._ <.> , , > , 2 2 2 , , , 2 , , , , , ",
", , 2 2 > , > , , 1 2 , , 2 , > 8 O.( o.U I K.K.K.U K.}.=X&X&X=X=X=X=X=X>X:X*X{.m._ _ $.$._ >.1 2 , , , , , , , , , , , , 2 , , ",
", , 2 2 2 , , , , , 1 2 2 2 , < 9 O.( o.U K.I K.J.K.K.).'.'.'..X=X=X=X=X-X-X=X*XoX_ _ _ $.( ! 1 2 , , , , , < 2 , , , > 2 2 2 2 ",
", , , , 2 2 > 2 , , , 2 2 2 , > 9 @.*.6.H H H K.U U K.W.`.`.`.'.XX&X=X=X=X=X=X=X+XB.g.e.) $.<.2 , , , , , , , 3 2 , , , , 2 2 2 ",
", 2 > , 2 , , t 2 , < 1 2 , > < 9 @.8.u.G C C J.I U U.W.'.`.`.`.`.$X=X=X=X=X=X&XXX/.H.g.$._ >.1 , , , , 2 , , , , , > < 2 , , , ",
", 2 , , 2 2 2 t e , , , , , , < 9 O.$.*.u.L V D H K.K.Q.).].`.`.'.%X=X=X*X=X*X X'.`.C.r.$.$.<.< , 2 2 t , < , , , , , , , , , , ",
"2 , , 2 2 t , 2 2 , , , > > , 2 9 +.$.+.8.k.V D W.E.z v.m.`.`.`.`. XXXXXXXXX XJ L H.r.=.+.<.0 2 2 t 2 2 , 2 3 , > , , , , , , > ",
"2 2 , t 2 e , , > , , , > , t t 5 | +.+...n V V |.(.. W z.W._.`.`.`.`.`.`.~.Y.% 6 F.*._ @.5 2 2 2 2 , , > , , > > 2 2 , , 2 e , ",
"2 , t t 2 t 2 > > , 2 > > , 2 2 e r / ..G V V D {.Q.X W W + Y.`.`.`.`.`.].T + W i.F.;._ @.u 2 2 2 , , > , , , > , t t , , 2 t , ",
"2 , 2 2 , 2 < , > 2 2 , 1 2 e 1 2 2 q w V V V V |.(.. ! 1.: c v b W.`.`.S z : 6.r.e.%.{ ,.r 2 , 2 , , , , 2 2 , < 2 t 2 2 t t 2 ",
"2 , , 2 , 2 1 , , 2 1 > 1 2 2 > 1 1 2 p H F F D {.`.& :.6.} O   . R !.Y.x ; Q 1.7.$.] :., , 2 , 2 1 2 , , 2 2 > , 2 , 2 2 , 2 t ",
"1 , , 2 1 2 2 , > > 1 , 1 2 2 1 1 1 , M (._.I.F {.*X@Xx - y.-   . Y.T # !.Y.X X : @.0 2 , , 2 2 2 , , > > 2 2 , 2 2 , , , , , 2 ",
"2 , 1 2 2 1 , > > 1 2 1 1 2 2 1 > > ,.l.E.).W.D I.R.R.J b.OXE J Y.!.T . T J.h T l.$.^ q 2 :.w 2 2 , , > > , 2 , 2 2 , , , , , 2 ",
"2 2 2 2 2 , 2 , > , 2 2 , 2 , 2 , , ^ o.I E.Y.A Z Z V Q.@X*X{. X%XQ.S + h B D {.oX$._ ^ 9 / :.2 2 , , > > 1 2 2 2 2 , 2 , , , 2 ",
"2 , 2 2 2 , 2 , , , 2 , , , , , 2 2 ^ [ i y m A V A D {.=X=X{.]._.h $ B + $ V D l.$.$.+.| 8 t 2 2 2 , , , 1 2 , , , , 2 2 2 2 2 ",
", , , 2 2 2 2 , 2 2 2 , , > > , 2 t 1.] 4.u p b A V V I.R.R.I.I._.R P.).L.S C h.` _ ( [ w e 2 , , , < 2 2 2 , > > , , , 2 t t , ",
"> , , 2 , , , , 2 2 2 > > > > , 3 , >. .w.2.u f P F B B j j B J.`.`. X%X{.T.C .._ +.{ :.2 , 2 2 > , , 2 2 2 , > > > > , , 2 t 2 ",
", 2 , 2 > , , , 2 , , > > > , , 2 2 2 7 #.q.t.t.^.T.A $ . . j J.`.`.`.`.`.Y.C .._ O.8 1 , , 2 , , , , 2 2 2 , , > , , , , t 2 , ",
", 2 2 2 , > 2 , , , 2 , 1 2 1 2 2 2 , 8 O.-.*.*.i.n.H z h j L.R x x x x z * $ ` [ q r > 1 2 2 1 , , , , , 2 2 , , , , 2 , , 2 , ",
", 2 t 2 3 , 2 , , , , , 2 2 1 1 2 2 > 5 ~ [ [ [ 7.u.K.H V B R b   o . o   X = Q :.1 1 1 , 2 2 t , , , , , , 2 < , , , 2 , 2 , , ",
"> , t t 2 2 2 2 , > 2 , , 2 , > 2 2 , , 3 3 3 r / o.U K.D * + .   @ k k o = ` 9 1 > 1 > > 2 2 t t , t , , , 2 , 3 , , 2 t 2 , , ",
", , , 2 , < t < > , , , , , , > 2 t , , 2 > , , 9 :.j.n A v +     @ k k o @ k.u , , , > < , 2 t t t < , , , 2 < 2 < , , t 2 , , ",
", , , , , , < 2 , , , , , 3 , > , 2 , , 2 > , , > 5 / n Z V & $ g l l l * v P p , , 1 > 1 , , , , , < , , , , 3 , , > , 2 , , , ",
"2 2 , , > , < 3 , , , , , , , > , 2 , , , > 2 > 1 > 1 , p A H U.Q.v * * Y.`.!.a , , 1 , 2 , > > , , 2 < , 3 , , , , > , , , , t ",
"2 2 , , , , < t 3 , , , , , , , , , 2 t , , t 2 1 1 1 > e p K U.U.P.W.'.$X/.M 2 2 2 , , 2 2 2 , > , 3 , < < , , , , , > , , 2 t ",
"2 t t 2 t < < < , , , 3 , 2 < , , , t t 2 2 e 2 2 2 2 1 3 < N K K E.].$X[.V.< < 2 t 2 , t t t t , , 2 , , , , , 2 2 , > , 2 2 2 ",
"t 2 t 2 < t 3 < , , , < 3 t 3 < , , 2 2 2 2 2 2 2 2 2 2 t < 3 2 t K U./.a < , 2 2 2 2 2 2 t t 2 < t t 2 > , , , 2 t , , 2 2 2 2 ",
"t 2 t , < < t , , , , < t t 2 < , , 1 1 2 2 2 2 2 2 2 1 t < , , , p m M t , , , < , 2 2 , t t 2 , t 2 2 , , , 2 t 2 2 , , , , 1 ",
"2 , 2 2 < 3 < , 3 , , < t t < , , , > 2 2 2 1 2 2 2 2 1 t < 3 , , < 2 2 , , , < 2 , 2 2 , t 2 2 2 t 2 2 , , , 2 2 2 , , , > , 1 "
};
