/* XPM */
static char *_9033_7d8c393f6e906f98d238b81037d18e4e9598d929952444caa56612d5b1f240c9[] = {
/* columns rows colors chars-per-pixel */
"64 64 212 2 ",
"   c #030303",
".  c #060A07",
"X  c #0A0C0B",
"o  c #0D120E",
"O  c #0E190F",
"+  c #0C0E13",
"@  c #0E1312",
"#  c #0F1A12",
"$  c #121415",
"%  c #121C14",
"&  c #121519",
"*  c #161B19",
"=  c #1A1D1E",
"-  c #152417",
";  c #16221A",
":  c #1A231D",
">  c #1B291E",
",  c #171E22",
"<  c #1A1F22",
"1  c #1D2222",
"2  c #1F2C21",
"3  c #1C232B",
"4  c #1E3523",
"5  c #212525",
"6  c #212C25",
"7  c #23262C",
"8  c #252C2A",
"9  c #292D2D",
"0  c #213626",
"q  c #213926",
"w  c #253229",
"e  c #2B332D",
"r  c #243B29",
"t  c #2A3B2E",
"y  c #232A34",
"u  c #2A2F32",
"i  c #2C3132",
"p  c #2D3B33",
"a  c #28313C",
"s  c #333333",
"d  c #333A33",
"f  c #393F37",
"g  c #343B3A",
"h  c #3C3E3C",
"j  c #355F16",
"k  c #356016",
"l  c #35621C",
"z  c #3A651C",
"x  c #29432D",
"c  c #2D4332",
"v  c #2E4C34",
"b  c #35433B",
"n  c #3D423D",
"m  c #354B39",
"M  c #364C3B",
"N  c #33543A",
"B  c #34573B",
"V  c #3A533F",
"C  c #365B3E",
"Z  c #3B6620",
"A  c #3C6822",
"S  c #42473E",
"D  c #416B23",
"F  c #456E2B",
"G  c #4A712C",
"H  c #496E32",
"J  c #4D7333",
"K  c #4E7638",
"L  c #54773C",
"P  c #333C4B",
"I  c #3A4443",
"U  c #3A4347",
"Y  c #3D4A44",
"T  c #3D5442",
"R  c #365C40",
"E  c #3D5B43",
"W  c #3B6244",
"Q  c #3E6748",
"!  c #3E6C49",
"~  c #454A45",
"^  c #434D4C",
"/  c #4A4C4C",
"(  c #435345",
")  c #47534A",
"_  c #445D4A",
"`  c #50584D",
"'  c #454E55",
"]  c #4B5554",
"[  c #4B5855",
"{  c #42505F",
"}  c #555E50",
"|  c #535B5B",
" . c #43644A",
".. c #49654D",
"X. c #426D4B",
"o. c #56684B",
"O. c #43724E",
"+. c #567A41",
"@. c #5B7C43",
"#. c #5E7E4A",
"$. c #4A6950",
"%. c #4D6C53",
"&. c #596957",
"*. c #457550",
"=. c #487653",
"-. c #4B7A56",
";. c #4E7C58",
":. c #577555",
">. c #54745A",
",. c #547B5C",
"<. c #617D4D",
"1. c #627A54",
"2. c #647558",
"3. c #65735C",
"4. c #677A5B",
"5. c #697C5C",
"6. c #414E61",
"7. c #455362",
"8. c #4A5967",
"9. c #49576A",
"0. c #4B5A6E",
"q. c #545E63",
"w. c #525E6A",
"e. c #4C5B71",
"r. c #566263",
"t. c #5B6565",
"y. c #586568",
"u. c #5D6669",
"i. c #5E696A",
"p. c #577A60",
"a. c #5A7E62",
"s. c #626D6C",
"d. c #686D68",
"f. c #6A7464",
"g. c #6A7566",
"h. c #647372",
"j. c #6A7370",
"k. c #697576",
"l. c #6C7B7A",
"z. c #707472",
"x. c #727C7E",
"c. c #53805D",
"v. c #62804D",
"b. c #658252",
"n. c #698256",
"m. c #69835A",
"M. c #568561",
"N. c #5B8463",
"B. c #5B8965",
"V. c #5C8769",
"C. c #5E8D69",
"Z. c #6B8465",
"A. c #638D6C",
"S. c #76876A",
"D. c #63916D",
"F. c #6A8F71",
"G. c #669471",
"H. c #699472",
"J. c #6B9975",
"K. c #6FA07A",
"L. c #85907F",
"P. c #5E7089",
"I. c #677685",
"U. c #667C94",
"Y. c #687D96",
"T. c #6A7E99",
"R. c #6F8181",
"E. c #738383",
"W. c #7A8485",
"Q. c #768886",
"!. c #7A8C8B",
"~. c #7D908F",
"^. c #6C819A",
"/. c #7E9191",
"(. c #6F85A1",
"). c #7388A6",
"_. c #738AA6",
"`. c #7690AC",
"'. c #7C96B5",
"]. c #7E98B6",
"[. c #7F99B8",
"{. c #818E8F",
"}. c #819394",
"|. c #879898",
" X c #8B9B9C",
".X c #909E9E",
"XX c #8C9FA0",
"oX c #919EA2",
"OX c #8097B7",
"+X c #839DBD",
"@X c #8EA1A0",
"#X c #93A2A3",
"$X c #97A7A8",
"%X c #99ABAB",
"&X c #9FB2B2",
"*X c #A1AFB1",
"=X c #A3B3B4",
"-X c #A6B7B9",
";X c #A7BABA",
":X c #ABBCBD",
">X c #AEC1BF",
",X c #8AA8C8",
"<X c #AEBEC1",
"1X c #B0BFC1",
"2X c #AEC1C2",
"3X c #B2C4C5",
"4X c #B2C8C7",
"5X c #B3C6C9",
"6X c #B5C8CB",
"7X c #B8CBCE",
"8X c #BACCD0",
"9X c #C4C5C4",
/* pixels */
"z l A A k l D D D z z z D D D A D z A D D z z z F z z z Z D Z z m.3.f.3.g.f.3.5.D F z z A z Z j l z A D D A z z D D D z z z D D ",
"A A A z k z A A D A D z D A D A A z A A D z z z z z z z L <.@.b./ 9 9 s i e 9 g n.@.L L A z D j z z Z A A A A z A A D z z A A A ",
"D A A z z z A z A A D z A z A A A z Z D A z A z D z l D ~ $ $ 5 #X>X:X:X1X1X1X-Xf $ $ 1 v.z D z z z z z A A A A z z A z A A A z ",
"A z z z z z z z z z D z A z A A A D A Z z z A z D 1.d P W..X.XoX1X7X7X6X6X6X7X3X$X|..X|./ s &.Z A z z z A A A D z z z z A D A l ",
"z z z A A z z z z z A z A z A z A A D A z A z z n.d.r.s.=X7X6X7X6X6X6X6X6X6X6X6X7X7X7X3Xx.r.s.z.3.@.z z A A z A A z z z A D A z ",
"l z A A A z z z A z A A D A z k A A D D z z D <./ x.7X7X6X6X6X6X6X6X6X6X6X6X6X6X6X6X6X6X7X7X#Xy = f.J A A z z z D A z z z A A A ",
"z Z z z A z z D A z A z D A z l A z Z D z z <.9  X3X6X6X6X6X6X6X6X6X6X6X6X6X6X6X6X6X6X6X5X6X5X<X|.Y / D A z z Z A A z z z A D A ",
"z Z z z A A A F D z A z D z A z Z z Z D z m.`  X1X6X6X6X6X6X6X6X6X6X6X7X7X6X6X6X6X6X6X6X6X6X6X6X2X}.r./ K z A D z z z z z z z A ",
"A A z A A D D Z z A A z z z A A A z z z 4.d.x.6X7X5X6X6X6X6X6X6X6X7X*Xs.u. X7X5X7X7X5X6X6X6X6X6X6X:X}.) d.@.z z z z A D A z z z ",
"A D z D z F z z z z z z l z A D D Z A @.~ I.7X3X6X5X5X6X6X6X6X6X6X=XI.7   t.7X5X5X5X5X6X6X6X6X6X6X6X;X~.i f.K z z A A A D A A z ",
"A F z G z D z z z z z z z z A D Z D v.e .X3X3X7X6X6X6X6X6X6X6X6X5Xt.s _.< u.7X6X6X6X8X5X6X6X6X6X6X6X;X}.!.^ / A z z A A A D A z ",
"z D z D z F z z z A A A z z A A z S.]  X>X7X7X3X6X6X6X6X6X6X6X6X8X| y OX< s.7X6X6X6X5X6X6X6X6X6X6X6X4X;X XE.q./ K D A A A D D A ",
"z z A z A A A A A A A D A A A A Z.d.x.4X5X6X6X6X6X6X6X6X6X6X6X3XE.0.7.0.w. X6X6X6X6X5X6X6X5X6X6X6X6X6X6X X/.i.@ @.A A A A z A D ",
"z z A z A z D z z A Z A A A A A s s.7X6X6X6X6X6X6X6X6X6X6X6X6X:X9 0.T.$ oX7X6X6X6X6X7X5X5X7X6X6X6X6X6X5X X/.k.w b.A A A A z z D ",
"D A A z A A Z z l z A A A Z A A h h.7X6X6X6X6X6X6X5X6X6X6X6X6X-Xi e.T.$ .X7X6X6X6X6X6X7X7X6X6X6X6X6X6X5X@X/.!.E.8 1.A A z z z D ",
"A A A D A D z z k z D A z z L ( S.*X7X5X7X7X7X7X7X5X6X6X6X7X#X~ P.OXY.$ .X7X6X6X6X6X6X5X6X6X6X6X6X6X6X6X:X#X}.!.= 4.z z z A A D ",
"A A A A A z A z A l D z z z <.+ .X7X6X3XI.d.s.t.u.oX7X7X6X8X X+ T.T.7.s.=X6X6X6X6X6X6X6X6X6X6X6X6X6X6X6X6X%X~.!.[ &.<.D z D D z ",
"z A A D A z A z D z F z z G L.g $X7X7X:X9 + < < < u.#XoX#X$Xl.& ).' i 3X6X6X6X6X6X6X6X6X6X6X6X6X6X6X5X6X6X%X~./.|.I h D z z D z ",
"z A z z A z A z F A A z l g.h -X3X6X7X<Xi 7.OXOXOX7.$ $ $ $ @ @ ).{ 9 :X3X5X6X6X6X6X6X6X6X6X6X6X6X6X6X6X6X%X~./.}.I h D A A D z ",
"z A z D A z A z A A A z z f.i 3X6X6X6X6XoXq.y y y 9.T.Y.U.Y.U.Y.+X' . u u W.8X8X7X6X6X6X6X6X6X6X6X6X6X6X6X%X/./.}.I h z A z D z ",
"z A A A A z D A z z A z z j.i <X6X6X6X6X8X|.| q.| w.e.0.0.e.P.,X,XU.6.6.6.q.s.s.s.s.W.3X6X6X6X6X6X6X6X6X6X%X/./.}.I h z A z A z ",
"z D A D A z A A z z A Z K z./ 3X6X6X6X6X6X7X7X6X7Xk.5 7 5 + y +X`.).).)._.7., < 3 , I #X2X6X6X6X6X6X6X6X6X%X~./.}.I h z A z z z ",
"z A A D D A A A z z z z S s.3X6X6X6X6X6X6X6X6X6X6X1X:X:X<X| y '.a + & & $ 8.'.'.'.[.P.1 #X8X5X6X6X6X6X6X6X%X~./.}.I h A A A z z ",
"k z A D D A D A z z z z s t.8X5X6X6X6X6X6X6X6X6X6X6X6X7X8X| y OX< / |.|.|.w.y y y y 3 X oX8X6X6X6X5X6X6X6X%X~./.}.I n D A D z A ",
"A A z A z z A A A z A z s t.7X5X6X6X5X6X6X6X5X6X6X6X6X<XI.t.7.w.w. X8X7X7X{.| | q.| | t.=X6X6X6X6X6X6X6X6X%X/./.}.n h z A Z z D ",
"A A z A z z A A A z z D s t.8X5X6X6X6X6X6X6X6X6X6X6X5X<X8 e.^.& oX8X6X6X7X6X7X6X6X6X5X6X6X5X6X6X6X6X6X4X2X#X/././.I h z A A A D ",
"D D z D z z A z A z A G s s.7X6X6X6X6X6X6X6X6X6X6X6X7X<X8 0.T.& oX7X3X6X6X6X6X6X6X5X6X6X6X6X6X6X6X6X6X4XXX/./././.I h z A A A D ",
"D D D D D z D z z z +.` W.*X6X6X6X6X6X6X6X6X6X6X6X5X5X<X8 e.^.$ #X7X6X6X6X6X6X6X6X6X6X6X6X6X6X6X6X6X6X4X X/././.}.I h z A A A D ",
"D D D D A z F D A l <.$ #X7X6X6X5X6X7X5X7X6X6X6X6X7X=Xz.7.9.w.t.*X6X6X6X6X6X6X6X5X6X6X6X6X6X6X6X6X6X6X2X X/././.}.I h z A A A F ",
"A D A D A z D D Z z <.* oX7X6X6X6X6X5X6X6X6X6X6X5X8X|.$ (.6.s >X6X6X5X6X6X6X6X6X6X6X6X6X6X6X6X6X6X6X7X2X X/././.}.I h z z z A D ",
"z A F A A z D A A z #.* oX7X6X6X6X6X6X6X6X6X6X6X5X8X|.+ (.6.s 3X6X6X6X6X6X6X6X6X6X6X6X6X6X6X6X6X6X6X6X2X X/./.}.}.I h z z z z A ",
"z A D D D z D z A z #.& oX7X6X6X6X6X6X6X6X6X6X6X6X8X X+ (.6.i 2X6X6X6X6X6X6X6X6X6X6X6X6X6X6X6X6X6X6X6X6X X!./.!.}.I h z z l z l ",
"z A D A z D z A Z D <.* oX6X5X6X6X6X5X6X6X6X6X6X6XoXs.{ w.w.l.5X6X6X6X5X6X6X6X6X6X6X6X6X6X6X6X6X6X6X6X2X X/./././.U h z z z z z ",
"A z D A z z A A D F S.s $X6X6X6X6X6X6X6X6X6X6X6X7Xr.y OX7 s.7X6X6X6X6X6X6X6X6X6X6X6X6X6X6X6X6X6X6X6X4X<X|././././.U n A z z A D ",
"A z A z j z A A A 4.P =X5X6X6X6X6X6X6X6X6X6X6X6X7Xq.y OX3 s.6X6X6X6X6X6X6X6X6X6X6X6X6X6X6X6X6X6X6X6X;X|./././././.U n A z A D D ",
"D z A A l z A z z 3.s 1X6X6X6X6X6X6X6X6X6X6X6X6X7Xq.y '.3 s.7X6X6X6X6X6X6X6X5X6X6X6X6X6X6X6X6X6X6X6X;X/./././././.U n A z A z z ",
"A z D A z z z z z 3.u 1X6X6X6X6X6X6X6X6X6X6X6X6X7X| y ].3 s.8X6X6X6X6X6X6X6X6X6X6X5X6X6X6X6X6X6X6X6X;X/./././.~.q.&.<.z A A z z ",
"z z A A A A z z z 3.i <X6X6X6X6X6X5X6X6X6X6X6X5X=Xq.U ].3 s.8X5X6X6X6X5X6X6X6X6X6X6X6X6X6X6X6X6X6X6X<X/./././.!.< 4.z z A A A A ",
"z A A z A A z A D f.i <X6X6X6X6X6X6X6X6X6X6X6X>XP 9.+X[.7 s.8X6X6X6X6X6X6X6X5X6X6X6X6X6X6X6X6X6X6X6X;X/./././.!.< 2.z z A A A D ",
"z A z l Z A l D D d.i <X6X6X6X6X6X6X6X6X6X6X6X:X9 9.`.P x.&X6X5X6X6X6X6X6X6X6X6X6X6X6X6X6X6X6X6X6X7X;X/./././.!.: 2.z A A z z A ",
"z D l z A D z D 4.d.z.3X6X6X6X6X5X6X6X6X6X6X6X:X9 9.Y.@ oX7X6X6X5X7X5X6X6X6X6X6X6X6X6X6X6X6X6X6X6X;X$X/./././.Q.< 4.z A A z z z ",
"z D z D A F z D s u.8X6X6X6X6X6X6X6X6X6X6X6X6X2X8 9.T.& oX6X6X6X7X5X6X6X6X6X6X6X6X6X6X6X6X6X6X6X6X%X/././././.!.= 4.A z z z z z ",
"A A z D A D z A s u.8X6X6X6X6X6X5X5X5X6X6X6X6X2Xi 0.T.& oX7X6X6X6X6X6X6X6X6X6X6X6X5X6X6X6X6X6X6X5X$X~././././.Q.= 3.D z z A A z ",
"D A A F z A A z u s.7X7X6X6X6X1X| g t.3X6X6X6X3XoXy.7 X oX6X6X6X6X6X6X6X6X6X6X6X6X6X6X6X6X6X6X3Xq.i Y ~././.~.!.1 5.F z A D A z ",
"D z z F z A A z s s.5X7X6X6X7X:X5 % ( l.;X7X6X6X7X!.] | &X6X5X6X6X6X6X6X6X6X6X6X6X6X6X6X6XoXk.k.Y % 1 !./././.!.= 5.D D A D D D ",
"D z z G D D D z 9 s.7X1X6X6X6X:XY _ %.2 {.-X3X6X6X6X7X6X6X6X6X6X6X6X5X7X6X6X6X6X6X6X5X5X=X| $ ; %.N g !././.!.l.g 5.z Z A A z D ",
"z z L 5 * <.A z i s.7X6X6X6X6X6X<Xq.w a.w [ #X5X6X5X6X6X6X6X6X6X5X6X5X1X6X3X6X6X6X6X6X:XP T A.N.6 ) !././.}.s.: n.A z D z z A D ",
"D z @.o S _ :.z s s.7X6X6X6X6X6X6X|.] t ..Y ^ XX2X6X6X6X6X6X6X6X6X8X%X^ P h.%X6X6X-X!.~ o.:.$.t [ I.}./.}.}.s.$ v.A Z z 1.S ) ) ",
"D D K 2.o.b ( 1.= d.7X5X=X&X&X&X4X;XE.X N.M < {.<X5X6X5X6X6X6X4X;X}.t.p . Y @X5X-XW.^ c ,. .c b E.}.E.[ ] k.s.$ @.z K 5.( t 2   ",
"z A Z Z d M -.O   t.5X5X XE.l.R.&X2X|.e >.M y F.&X5X6X6X6X6X4X<X!.Y w p.8 ] @X;X!.I t G.;.4 5 !.}.Q.r.*   ' s.$ b.:.$ * %.V.&.9 ",
"z z z D n V A.W O ) #X2XXXY @ * l.|.XX%Xi T %.* l.&X7X6X6X6X;X/.y ( %.* i.!./.!.8 T D.J.;.4 7 ~./.^ w N.- ^ s.X $ _ A.N.6 O ~ J ",
"o.) o.D L &.m V.V t ^ XX/.I & ..p r.|. X1 T >.X h.&X7X5X%X@X@X~.: V ,.X k./.l.p _ N.D.;.0 I k.!.I T _ t | ^ p $.%.:. .t m.m.v.z ",
"o $ ( @.z 2.; H.M.N r | !.y.I Q b Y i.!.' ( T b ] Q.-X2XXX/.E.| n V _ n I.|.i.o a.K.A.X.@ ^ Q.[ b V _ I ] Y ( J.D.Q m &.J D D z ",
"f ) $.5 <.3.g N.J.M.R % y./.i.@ a.( w l.!.Y > A.: Y XX;X X/.i.@ ,.c 1 Q./.!.t.; a.J.C.X.# ' s.o ,.M = h.8 _ J.D. .c } A z A z z ",
"G 3.6 ,.e 5.m.: a.M.! W 1 [ h.o ,.H.%.= l.~ : A.: Y |.|././.i.@ R r 5 !./.Y 1 Q C.B.*.! # ^ i.@ p.M   * >.H.A.*.> 4.A A A A A z ",
"z L 5.d ..` h .  .M.M.! @ ^ h.. W D.>.+ k.Y : A.; ^ }././.r.b $.r I h.Q.Y p W C.J.M.R 2 | Y b %.,.r o N A.C. .> Z.J A D D A z z ",
"z z @.$ a. .# . C M.C.O.r M ^ 0 W M.c.w / 9 : A.v b t.~.}.I : A.; ^ }.!.= 4 c.J.C.c.N . Y Y T M.B q x c.B. .M d.g.<.H H D z z z ",
"A A @.d >.c.E % N M.D.O.O.4 % X.O.M.G.X.#   > F.-.4 5 !.E.Y w A.* ^ ~.l.2 x -.G.-.! N   X E D.X.O r ;.H.-.4 d 9Xn O X o <.z z D ",
"Z Z z J f T C.W - E A.*.*.4 ; X.O.M.D.X.$   > F.-.4 7 Q.u T B.*.% ' h.* N ! -.J.-.O.N . N M.A.! O t ;.G.-.0   1 :.A.$.* +.z A D ",
"A A A A s M D.! o x c.B.-.4 % ! O.M.D.O.B - > H.-.4 5 E.< V D.X.# ) h.X C c.C.J.-.O.B . R ;. .> c C *.-.q m ..v w 2 ( <.z A A D ",
"D A D D s M A.X.r q E D.-.4 # O.O.B.C.*.O.q : V.=.4 5 Q.: T D.X.$ e ( 4 W M.J.J.-.C x 4 W *.N . C =.X.x t $.,.v ` o.1.z A A A A ",
"D A D D ` ( N.X.O.q > A.-.r ; W X.M.C.O.O.q %  .O.x w k.1 _ D.X.-   % X.O.M.J.D.-.4 # ! O.! v # C O.N - ,.-.B d @.D z z A A A A ",
"D Z D A A 2.> O.O.q # O.O.! v # C *.*.O.O.q % X.O.! N & N M.D.O.X.2 # X.O.M.D.=.O.q # X.O.r - W O.r 2 B.-.x n J A D z z A z z D ",
"A z D A Z 1.O  .O.q - ! O.O.C . C O.O.O.O.q % X.O.*.N . C -.-.O.O.q # X.O.-.;.O.O.q % X.O.4 % X.r r B c.=.4 S D A A z z z z z A "
};
