/* XPM */
static char *_632_31fdaf093752496f0d25c0db7e064226481604cc2c63ae36a41ce975635c6326[] = {
/* columns rows colors chars-per-pixel */
"64 64 22 1 ",
"  c #305B13",
". c #325D15",
"X c #335E16",
"o c #345F17",
"O c #356018",
"+ c #366119",
"@ c #37621A",
"# c #38631B",
"$ c #39641C",
"% c #3A651D",
"& c #3B661E",
"* c #3C671F",
"= c #3D6820",
"- c #3E6921",
"; c #3F6A22",
": c #406B23",
"> c #416C24",
", c #426D25",
"< c #436E26",
"1 c #446F27",
"2 c #457028",
"3 c #467129",
/* pixels */
"#$-*O#;;:--%::>*=#*<>&%&;%@#*;-&-%>&,@*&-<$&*%-o+%-:;=&$;>:%#&:>",
"-*=&O#==:-;%-*;*=%*:-&&&=$+#*----%;%>$-&&:$&*%-o#%*--=*&*--&%*==",
":=*$@$*&==;%*%=*-&=-*&*&-$@%***;=$=$:&;*%-#&=%=+%%%&*=--$&*&*-*#",
"=&&%%&&%%%-%=%=*-=-=%&=&;&$&&$$==%*$-&-=&=$*=&-%*%$%*==-%%%&=;*#",
"@%*==&%%%$*&:&*#==;-&*=&;*&*&#$***-%&$=-;-&**&--*%$&**&*=&$%=;-&",
"+%*=-&#&=%**>*%O**;;&*=&*&&**&&*&=;&$#&=:=**&&=:=&&*=&%&;*%$&---",
"$*&&-&%;;&*&>*%+*&=-&%**$&**=-=**--&$%&&-%&&%$%:=**-=&&==*%%&*=-",
"&=$#=**<;&*&:&*%*%*=%$&=$&=*=;-&*=*&$&&%&#$%$$$;-*=;-&*;%%&&%%&*",
"==$==<;=&**%$%=;-$$&$+$:*:&>$:%*-#%%>**%+%$**$***::=%&&%$%=;-&$$",
"->%>&<&%@%&$#%-:==*&%%&-*>*,#*#*=%@*--==%&$*=*;=;;=%$**%$*-=--*$",
"=,%1$<#$+$&%#%=:*::*&--&=:=,#$@-=&+=&:=>==$&==>-;-&#%=*#&--*->:&",
"&;&>%>%&%*=*&*=-*:>==;-%*=&>%%$:=&$=*-->-;&&**:==*&%*;*@=;-==::-",
"%&*&*==**--==-=**=----*%*&%;&%$-=%=*;&=;*;**&%=&***%*-*#;---=&=:",
"*&=$=&-&%*===-=*=%&-;=&**&&=&$#%-%-*>%*&%;==&%=%==&#$*-*;==-*#&>",
"===&==*%+%==*****%%*-=*=*=-=&###-&*=;&%%%;=***;&==$+#*-=-***%$&:",
"*-*;*:&$o%;-&$&=*&%%=;-=&;,;&$$$-*#-&=$&*;&*=;>=*&$@$==%**&%%*=-",
"*-*-=%*%*$>%$-#=-=-=%=;*==-=&$&-:*@=$;==--#=-&:=-$&*$-:+*$%:#::&",
"&=&==%*%;&>%#=#*--;=&*=*=***&&=:;&@*$;;;--$*-&-*=$*-*;-o&#&;%;:%",
"%=&=*%*&>=:$@*@&-;:-&&&&==%%*&*:=$@&%;::--%*=&=&*%=-*-=X%@*==-:$",
"%=&=*%=&-*-$@%#&*;;=&%%=--%$=&$**##&%=--=*&*=*=**%&&$**+&#=&-*;$",
"%-=-=%=*$&-&$%%*%=*&*%%-=;&&:=#&*$&**&=*&&&&*---&**%%==$=%=%-&=$",
"$-=:-&=*@&-=***=&=%$*&%;=>=*,-$=-&-=-&-=&$*%&;-:%==*=-=%-&&&-&&%",
"@*=>;*-=#&&*===%-:%#=&#;=,-*,-#--%-*=&::%$*#%:->&;-&*=*&**%=--%&",
"O&=>:=;-%&#%**&+>,%#=&@-;1-&:&O=*#*$*%>,&#*@#;->=:*#$&&=%*$;-:$*",
"==@-#&---&-&*$*#%:--;o-#*%%*=***-=&%$%=>*=%@;#%$&;-&***=*%$&-*&;",
"==#-$%**=%=&*$*#%;==-O-%&$$&****=***%$&-&=$@-#%$#**&*=*-&%#&-=*;",
";;&:&%=&*#*%=%*#&-**=@;*=&%*=*&&%&*=*%%*&=%$-%=%@&*&**&=%%#%-=*:",
">>->=&;=&#*&-&-$&-*==%:-,;=--=&%$%=;-&&**;**;-:=$--*&&%&=*%%===>",
":>::=&,:*$=&;=;&&=*;--;;<:--;=&%&*-;-*&**:=;-:<-*:;*&%%*;;&%**=>",
"=;:;=%,;=$*&;=;&&*&;=:-->-*=;-*&==-;=&%*%;=;&:<**:;&%%&-;:*%&&*;",
"%=>--$>=-$&%=*;%&&%=%;*=:=&*;-*&&*=-*%%*#=&-#;,%%;-&&%&-*-*%&%$*",
"#*,:;$:&-$%#*&-$*&#&#-%=>=&=;-*%#$&=*&&=@=&-+;>$$-;*&$$*$**&&$#$",
"%*>=&=&==*%$&**&*&&=*%%=>=%*==*=+*#:;#-%$==%&;;&&;>-&%$#***&&%%&",
"*&;*#&*=--*%&=-*&*=;-***:&#&===-%-$;;#=$*;-*=:-$#*;;-==&=-=*%&->",
";%-&O$*=-;-&&-;*&=--===*;$+%===;=;$-;%-$--=*-:=@+$&=--=*&-;*%*;:",
";$-*+$*&&--&%==%=;-&%*==:$+%*&*-&=$*=&;***&%*=*#$$%&*=*%$=-*&*&$",
"*$;-%&%%$*=&&=&@-;-&%&**>&#%&%%*$*&&%%-;==*&%&&*-*%%****%&&&*=&#",
"%%-==*#&%**=-=%@=-;-=*&%;=&%%%%&%*=&#$&=>:-*%%*-=&$%&&*==&$%=;-*",
"%**%-=@--&%=;=%#**=;-&%%*--&%*=&*=-%#%%*:-=*&%*-&%$&&&&*-%#&===;",
"%=%+-*+,:&$*-=%$*%%**$%*$-;&%=;***=%$*%&=%$%&&&*&&&==*&*=$$==%$*",
"&:+=*,$,;%$**$%-&%$$$$&-+==-#3$=-&*@*%=%=*#&*$%#-;=>$-**%$%**$$&",
"&;#:=,&:%%&*%#&>&=*$$&==%:=;$>@%-%#*=*&-%%@&=&-*::=;$=&%#&*&%&&$",
"==%<=>&*+%=&##=,*;;%$=-*-<*>%*@%-$O:-=%,&&#*-=>:-=%&@&%@#-:&%--#",
";**<&;*#@*=%#&-:=;;*&==*=>$>*$%=-$@:;=&,-;&=-=:-*%$$#**@%:>**::&",
":%&,%==#%=*$%--&-==--&&=&;@;=#&:=%**:*--:>===&=&=&*%*;-#*-;--;;;",
"-#%;%=;%&=*$*:-$=%*;;%%=*=%-=#$;=*;%;&-&=;**&%=%-*-%*=-@=&*==*=:",
"-$&-**-&#&=&*--&%%*--&%*=*-*&#+=*=-==*&%%-&**&-&=&=+$&-@-*&*&&*;",
";&*-=**$o%-=*=--#&====*&-*:&%#X&*=&:&=$&%-*===:==&*O$&>&;-*&%&*-",
":=-=;$;#$%;*&=&=&$*=%*:-&;**=$%%:%&=&*-%%-*:=%:=-*%#@=:--&*-&$*=",
"=**--&-$**;*%*%&;*==$&;-*;&**$**;$$*%*;=%**;;&:&=**&&-;%*$&===-*",
"%&%;**-%;-;%@$#%>-;-&&=&*;%&*%=-=@#%$*:;-%*%;%>&%%*==-&o&#$*->:%",
"$*$;%*=&;==#+#@%--;;=*&$&-%&=&=-=@#&$*;-,%*+-$>&$$*==-%.%#$&=>:%",
"&=%;#%*&=&*#@%$*&*===*%%&-%*-&**=#%=%&-&>$-+=$;&*&*==;=@%%&%&-;%",
"*-*;%$=&*&=%%=*===%#&&&-*;&*-&&%-$*-&&=&=#;%-*=&***&%--$*&**%*=%",
"%*;:-%;*%%=&*;**;;%@%&&;;>*=-&&%-%*-&*;=%@;*&==:&&*&$*=$=&*-***%",
"@%::>&>=$$=**-%$:>&#**%-,<=*-&*&-$&-&*:;%@-%@=;2&=;=%*=$-%*:;=&$",
"@%*,&-=-$%&&&&%#*1$*-@*%=*-*,*&$&&&&%%->%$- -*=1=;;@*%;;=%#=>*$*",
"**%*O%&-&**&&*%#%>$**+*$%$%$:***=***%$&;$%-X:%$&$*-@*%==&$$*;&%-",
";=%%X#&-***&&*&$$=%-&@-%%#$@-&*=****%#%=%==@>$%++&-$*&&&$%%%*&*:",
"-===$%==&&&%&*&$%*=>*%>*-*&$;&&*%&**%%*;*:&$>&:&@=-&**&&%*%$&==;",
"-->:-*-*%&%%*-=%&&->==>-:--&>&%%%%*=*&*;-:&&>-1;$;;*&&%*--&#*---",
":->;-&-*%&&*-:-*&&=;=-;-;--*>&%$&*--*%&==-=-:;,-&>-*#&%*:;&$*-==",
":=:*=&;=%&&=;>-&%&*&-;*--=-&>*&%*=;;=%%*=&;-=:;=&>-=#*%-:;&%*&&=",
"=%;*-&:-%%&=;:=$&*&$-;%-;--&>*&&*=-;=%%*=%;*%:-:&,--#=&;--&%&$$="
};
