/* XPM */
static char *_2708_4b06b2bfd3a2eb546bf30bc7724b6a2f43fc8dc22b1e9b7f2348553e596bb946[] = {
/* columns rows colors chars-per-pixel */
"64 64 189 2 ",
"   c #22211D",
".  c #252622",
"X  c #282A27",
"o  c #2C2D2B",
"O  c #3C2E2E",
"+  c #2D302D",
"@  c #34322C",
"#  c #2F3231",
"$  c #323535",
"%  c #393633",
"&  c #3D3A35",
"*  c #3F3539",
"=  c #353A3C",
"-  c #3E3D3A",
";  c #33373A",
":  c #42312F",
">  c #452F32",
",  c #453335",
"<  c #4B3436",
"1  c #43363A",
"2  c #4C3639",
"3  c #413D3A",
"4  c #4B3B3E",
"5  c #513537",
"6  c #513639",
"7  c #54393D",
"8  c #5B3A3E",
"9  c #3F403D",
"0  c #44413D",
"q  c #4D423E",
"w  c #564637",
"e  c #6D5434",
"r  c #3A3F42",
"t  c #4B3D42",
"y  c #473E43",
"u  c #563F43",
"i  c #5C3E40",
"p  c #3C4144",
"a  c #3F4549",
"s  c #444442",
"d  c #4A4544",
"f  c #4A4946",
"g  c #44454A",
"h  c #4B454B",
"j  c #454A4E",
"k  c #4D4D4B",
"l  c #474846",
"z  c #534145",
"x  c #5A4446",
"c  c #52464D",
"v  c #5A464B",
"b  c #544B4B",
"n  c #5B494D",
"m  c #4D504D",
"M  c #54514C",
"N  c #595146",
"B  c #464A51",
"V  c #4A4E53",
"C  c #4A4E58",
"Z  c #5F4951",
"A  c #4D5156",
"S  c #4E525A",
"D  c #535454",
"F  c #5B5654",
"G  c #565A57",
"H  c #5B5955",
"J  c #52555B",
"K  c #56595A",
"L  c #5C5C5C",
"P  c #664545",
"I  c #6D4349",
"U  c #62494D",
"Y  c #6E4A4D",
"T  c #694045",
"R  c #634C52",
"E  c #6B4F55",
"W  c #704F55",
"Q  c #665357",
"!  c #6C5155",
"~  c #605952",
"^  c #665158",
"/  c #6E5459",
"(  c #625E5A",
")  c #6A5D5E",
"_  c #735257",
"`  c #7A5557",
"'  c #755359",
"]  c #7A565B",
"[  c #735A5D",
"{  c #7C5A5E",
"}  c #5E605E",
"|  c #64625E",
" . c #69645E",
".. c #525661",
"X. c #555963",
"o. c #5A5C62",
"O. c #725F61",
"+. c #7D5C63",
"@. c #5E6162",
"#. c #636464",
"$. c #6A6563",
"%. c #666867",
"&. c #6D6964",
"*. c #646769",
"=. c #66696B",
"-. c #6B6D6D",
";. c #746264",
":. c #7D6265",
">. c #716B66",
",. c #7F6967",
"<. c #7B6769",
"1. c #736C6C",
"2. c #7B6B6C",
"3. c #72676A",
"4. c #73726E",
"5. c #79736B",
"6. c #6A6E71",
"7. c #7E6E72",
"8. c #766D70",
"9. c #6D7173",
"0. c #747575",
"q. c #7A7373",
"w. c #7B7975",
"e. c #747679",
"r. c #777A7C",
"t. c #7B7B7B",
"y. c #7B7779",
"u. c #825A5D",
"i. c #967D58",
"p. c #825E64",
"a. c #806064",
"s. c #84656B",
"d. c #89676B",
"f. c #856A6E",
"g. c #89696E",
"h. c #846C71",
"j. c #896C71",
"k. c #837376",
"l. c #8C7175",
"z. c #84757A",
"x. c #8D757A",
"c. c #817C7B",
"v. c #8E7A7D",
"b. c #91767A",
"n. c #927A7D",
"m. c #967576",
"M. c #83827E",
"N. c #89837E",
"B. c #95817E",
"V. c #98817F",
"C. c #A38E67",
"Z. c #A5916B",
"A. c #8E7E80",
"S. c #847D82",
"D. c #937D82",
"F. c #9B7F80",
"G. c #848281",
"H. c #8B8484",
"J. c #8C878A",
"K. c #958286",
"L. c #9B8584",
"P. c #96858A",
"I. c #99868B",
"U. c #938B8D",
"Y. c #9A898D",
"T. c #9C8886",
"R. c #9C8D92",
"E. c #968B90",
"W. c #959194",
"Q. c #9D9295",
"!. c #9C9599",
"~. c #9E999D",
"^. c #A08F8D",
"/. c #A29393",
"(. c #A49A9C",
"). c #A89D9D",
"_. c #ADA39F",
"`. c #A39DA2",
"'. c #A99EA1",
"]. c #A5A1A6",
"[. c #ABA2A5",
"{. c #A7A5AA",
"}. c #ABA6AA",
"|. c #AEAAAD",
" X c #B1ACAE",
".X c #AFACB1",
"XX c #B1AEB1",
"oX c #B3B0B3",
"OX c None",
/* pixels */
"OXOXOXOXOXOXOXOXOXOXOXOXOXOXOXOXOXOXOXOXOXOXOXOXOXOXOXOXOXOXOXOXOXOXOXOXOXOXOXOXOXOXOXOXOXOXOXOXOXOXOXOXOXOXOXOXOXOXOXOXOXOXOXOX",
"OXOXOXOXOXOXOXOXOXOXOXOXOXOXOXOXOXOXOXOXOXOXOXOXOXOXOXOXOXOXOXOXOXOXOXOXOXOXOXOXOXOXOXOXOXOXOXOXOXOXOXOXOXOXOXOXOXOXOXOXOXOXOXOX",
"OXOXOXOXOXOXOXOXOXOXOXOXOXOXOXOXOXOXOXOXOXOXOXOXOXOXOXOXOXOXOXC.Z.OXOXOXOXOXOXOXOXOXOXOXOXOXOXOXOXOXOXOXOXOXOXOXOXOXOXOXOXOXOXOX",
"OXOXOXOXOXOXOXOXOXOXOXOXOXOXOXOXOXOXOXOXOXOXOXOXOXOXOXOXOXOXOXOXi.OXOXOXOXOXe OXOXOXOXOXOXOXOXOXOXOXOXOXOXOXOXOXOXOXOXOXOXOXOXOX",
"OXOXOXOXOXOXOXOXOXOXOXOXOXOXOXOXOXOXOXOXOXOXOXOXOXOXOXe OXOXOXb N OXOXw w OXOXOXOXOXOXOXOXOXOXOXOXOXOXOXOXOXOXOXOXOXOXOXOXOXOXOX",
"OXOXOXOXOXOXOXOXOXOXOXOXOXOXOXOXOXOXOXOXOXOXOXOXOXOXOX9 p j B B A X.o.D k OXOXOXOXOXOXOXOXOXOXOXOXOXOXOXOXOXOXOXOXOXOXOXOXOXOXOX",
"OXOXOXOXOXOXOXOXOXOXOXOXOXOXOXOXOXOXOXOXOXOXOXOXOXOX; ; r B V V J L ( o.D D F OXOXOXOXOXOXOXOXOXOXOXOXOXOXOXOXOXOXOXOXOXOXOXOXOX",
"OXOXOXOXOXOXOXOXOXOXOXOXOXOXOXOXOXOXOXOXOXOXOXOXOXOXp p a j B B V D D K D A D D OXOXOXOXOXOXOXOXOXOXOXOXOXOXOXOXOXOXOXOXOXOXOXOX",
"OXOXOXOXOXOXOXOXOXOXOXOXOXOXOXOXOXOXOXOXOXj B B S a a C C S ..S S S S J J J S S S S S J OXOXOXOXOXOXOXOXOXOXOXOXOXOXOXOXOXOXOXOX",
"OXOXOXOXOXOXOXOXOXOXOXOXOXOXOXOXOXOXa g g j B V C C ..S S ........X.X.X...o.X.J K J A A J D D OXOXOXOXOXOXOXOXOXOXOXOXOXOXOXOXOX",
"OXOXOXOXOXOXOXOXOXOXOXOXOXOXOXOXp p p a j j B A S C S ..X.X.X.@.o.X.X.o.X.o.o.o.@.@.K D D D D m m OXOXOXOXOXOXOXOXOXOXOXOXOXOXOX",
"OXOXOXOXOXOXOXOXOXOXOXOXOXOXOXr = = p g j B V S S C S ..X.X.X.X.o.K ..K L ( %.$.&.&.| ( L D G G A k OXOXOXOXOXOXOXOXOXOXOXOXOXOX",
"OXOXOXOXOXOXOXOXOXOXOXOXOXOX= ; = = p p V a C S C C C S S J S S ..C A D K ( $.%.&.&.&. . .} M G D b l OXOXOXOXOXOXOXOXOXOXOXOXOX",
"OXOXOXOXOXOXOXOXOXOXOXOXOX; $ $ $ p V V S A S S ..S S S S G S D D V D D H @.$.&.1.5.5.5.>. . .H D M f s OXOXOXOXOXOXOXOXOXOXOXOX",
"OXOXOXOXOXOXOXOXOXOXOXOXOX$ # + # j @.@.6.6.6.6.6.@.@.6.-.=.@.%.=.#.#.%.=.-.q.w.c.M.N.N.N.w.w.} M k f 0 OXOXOXOXOXOXOXOXOXOXOXOX",
"OXOXOXOXOXOXOXOXOXOXOXOXOX# + o # m @.6.9.6.6.=.@.@.} @.@.-.6.9.6.=.( L ( @.&.e.t.M.H.H.N.M.w. .M M s - OXOXOXOXOXOXOXOXOXOXOXOX",
"OXOXOXOXOXOXOXOXOXOXOXOXOX+ o o + k @.*.1.6.*.L D D m D G } @.9.-.} G G D D L -.0.r.M.M.M.w.5. .k f 0 9 OXOXOXOXOXOXOXOXOXOXOXOX",
"OXOXOXOXOXOXOXOXOXOXOXOXOX+ o X o j @.*.6.6.6.o.G G G G } } %.=.-.=.#.} } | | 4.r.t.M.M.t.w.4.| k q 0 & OXOXOXOXOXOXOXOXOXOXOXOX",
"OXOXOXOXOXOXOXOXOXOXOXOXOX+ o X o s L @.-.6.6.6.6.6.-.-.-.6.6.9.0.0.e.e.0.r.e.r.t.M.t.t.0.5.5.( m 0 0 9 OXOXOXOXOXOXOXOXOXOXOXOX",
"OXOXOXOXOXOXOXOXOXOXOXOXOX+ X . o 3 D H #.=.6.e.e.e.e.e.0.9.9.0.9.9.0.r.t.t.t.r.r.r.0.0.4.>. .F q q 0 & OXOXOXOXOXOXOXOXOXOXOXOX",
"OXOXOXOXOXOXOXOXOXOXOXOXOXo X . X $ d b F o.=.-.9.9.9.9.=.} G G G G @.0.r.r.r.9.4.4.-.&.$. .( M q 0 9 % OXOXOXOXOXOXOXOXOXOXOXOX",
"OXOXOXOXOXOXOXOXOXOXOXOXOXo X . . o 3 d d k K o.#.%.*.@.m l s s g l l D =.0.9.%.@.} | H ~ ~ N d 0 0 & OXOXOXOXOXOXOXOXOXOXOXOXOX",
"OXOXOXOXOXOXOXOXOXOXOXOXOXOXX .   . o OX3 0 s d k m A m l 9 9 0 9 9 9 l D D G D M M N N OXOX3 0 9 9 @ OXOXOXOXOXOXOXOXOXOXOXOXOX",
"OXOXOXOXOXOXOXOXOXOXOXOXOXOXOX.     . OXOXOXOXOX& & & & - & & 1 & & & & & 3 0 s OXOXOXOXOXOX3 & % @ OXOXOXOXOXOXOXOXOXOXOXOXOXOX",
"OXOXOXOXOXOXOXOXOXOXOXOXOXOXOXOX    OXOXOXOXOXOXOXOXOXOXOX4 d c b N q OXOXOXOXOXOXOXOXOXOXOXOX@ @ OXOXOXOXOXOXOXOXOXOXOXOXOXOXOX",
"OXOXOXOXOXOXOXOXOXOXOXOXOXOXOXOXOXOXOXOXOXOXOXOXOXOXOXOXOXOXL $.&.>.OXOXOXOXOXOXOXOXOXOXOXOXOXOXOXOXOXOXOXOXOXOXOXOXOXOXOXOXOXOX",
"OXOXOXOXOXOXOXOXOXOXOXOXOXOXOXOXOXOXOXOXOXOXOXOXOXOXOXOXOXOXo.6.q.w.OXOXOXOXOXOXOXOXOXOXOXOXOXOXOXOXOXOXOXOXOXOXOXOXOXOXOXOXOXOX",
"OXOXOXOXOXOXOXOXOXOXOXOXOXOXOXOXOXOXOXOXOXOXOXOXOXOXOXOXOXOX6.e.y.c.OXOXOXOXOXOXOXOXOXOXOXOXOXOXOXOXOXOXOXOXOXOXOXOXOXOXOXOXOXOX",
"OXOXOXOXOXOXOXOXOXOXOXOXOXOXOXOXOXOXOXOXOXOXOXOXOX|.{.].].~.~.~.`.`.`.[.[.{..X|.OXOXOXOXOXOXOXOXOXOXOXOXOXOXOXOXOXOXOXOXOXOXOXOX",
"OXOXOXOXOXOXOXOXOXOXOXOXOXOX].{.XXoX X}.[.(./.R.(.{.].{.|.oX.X.X.XXXXXoXXX|.|.].W.H.U.E.!.~.`.{.{.].].OXOXOXOXOXOXOXOXOXOXOXOXOX",
"OXOXOXOXOXOXOXOXOXOX(.(.].`.`.Q.!.}._./.L.l.f.,.z.!.`.].|..X.X.X.XXXoXXX X X|.!.2.[ O.;.z.S.U.~.W.Q.`.`.].).).OXOXOXOXOXOXOXOXOX",
"OXOXOXOXOXOXOX2.k.x.v.P.(.!.H.q.y.Q.B.,.,.OXOXOX2.W.`.].|..X.X.X|.|. X XoX X X(.x.OXOXOX/ ) z.U.0.1.S.!.!.Y.K.v.k.OXOXOXOXOXOXOX",
"OXOXOXOXOXOXOX[ [ Q Q ;.v.2.2.1.1.J.OXOXOXOXOXOXy.`.|.'.}.}.}.'.`.{.}.}.|. XXX[.T.OXOXOXOXOXOXH.1.$.) O.<.2.[ / [ [ OXOXOXOXOXOX",
"OXOXOXOXOXOXOXOXv.n.N.P.H.f.2.7.7.OXOXOXOXOXOXOXS.`.|.|.XX}.XX}.}.|.}.|.|. X X X^.OXOXOXOXOXOXOXq.7.O.) A.U.K.K.v.OXOXOXOXOXOXOX",
"OXOXOXOXOXOXOXOXOXOXOXD.K.OXOXOXOXOXOXOXOXOXOX8.W.|.XX.XXX|.XX}.|.|. XXXoX X X X).n.OXOXOXOXOXOXOXOXOXA.K.D.OXOXOXOXOXOXOXOXOXOX",
"OXOXOXOXOXOXOXOXOXOXOXOXOXOXOXOXOXOXOXOXOXOXOXy.`.|.}.|.XX|.|.XX}.|.|.|. X X X X[.T.OXOXOXOXOXOXOXOXOXOXOXOXOXOXOXOXOXOXOXOXOXOX",
"OXOXOXOXOXOXOXOXOXOXOXOXOXOXOXOXOXOXOXOXOXOX3.U.{.}.|..X|.|.|.'.[.|.|.|. X|.|.|.|./.b.OXOXOXOXOXOXOXOXOXOXOXOXOXOXOXOXOXOXOXOXOX",
"OXOXOXOXOXOXOXOXOXOXOXOXOXOXOXOXOXOXOXOXOXOXy.`..X.X|.|.|.|.XX|.}.|.|.|.|.|.|.XXoX[.B.OXOXOXOXOXOXOXOXOXOXOXOXOXOXOXOXOXOXOXOXOX",
"OXOXOXOXOXOXOXOXOXOXOXOXOXOXOXOXOXOXOXOXOXOXJ..XoX.X.X.XXXXXXXXXXXXX|.XXXX|.oXoXoX X^.OXOXOXOXOXOXOXOXOXOXOXOXOXOXOXOXOXOXOXOXOX",
"OXOXOXOXOXOXOXOXOXOXOXOXOXOXOXOXOXOXOXOXOX8.W.oXoXoXoXoXoXoXXXoXXXoXoXoXoXoXoXoXoXoX).V.OXOXOXOXOXOXOXOXOXOXOXOXOXOXOXOXOXOXOXOX",
"OXOXOXOXOXOXOXOXOXOXOXOXOXOXOXOXOXOXOXOXOXt.[.XXoXoXoXoXoXoXXXXXoXXXoXoXXXoXoXoXoXoX X^.OXOXOXOXOXOXOXOXOXOXOXOXOXOXOXOXOXOXOXOX",
"OXOXOXOXOXOXOXOXOXOXOXOXOXOXOXOXOXOXOXOXOXJ.XXoXXXoXXXXXXXXXXX X X XoX X X XXXoXoXoX X/.OXOXOXOXOXOXOXOXOXOXOXOXOXOXOXOXOXOXOXOX",
"OXOXOXOXOXOXOXOXOXOXOXOXOXOXOXOXOXOXOXOX3.!.XXoXXXXX.X|. X XXX X|.XX X X|.}.XXXXoXoXoX).n.OXOXOXOXOXOXOXOXOXOXOXOXOXOXOXOXOXOXOX",
"OXOXOXOXOXOXOXOXOXOXOXOXOXOXOXOXOXOXOXOXq.(.XXXX|.XXXX.X X|.|. X X|.|.|.|.|.XXXX XXX X).V.OXOXOXOXOXOXOXOXOXOXOXOXOXOXOXOXOXOXOX",
"OXOXOXOXOXOXOXOXOXOXOXOXOXOXOXOXOXOXOXz.<.l.I.Q.`.'.'.'.'.'.'.|.[.[.'.(.'.'.'.'.(.R.D.x.j.I.OXOXOXOXOXOXOXOXOXOXOXOXOXOXOXOXOXOX",
"OXOXOXOXOXOXOXOXOXOXOXOXOXOXOXOXOXOXk.:.p.s.f.l.D.D.D.D.D.Y.F.Q././.I.P.I.D.D.D.n.j.h.p.p.s.K.OXOXOXOXOXOXOXOXOXOXOXOXOXOXOXOXOX",
"OXOXOXOXOXOXOXOXOXOXOXOXOXOXOXOXOXz.:.a.j.x.D.D.D.D.D.D.R.D.R.D.K.I.I.P.I.P.D.D.D.D.D.A.h.+.f.K.OXOXOXOXOXOXOXOXOXOXOXOXOXOXOXOX",
"OXOXOXOXOXOXOXOXOXOXOXOXOXOXOXG.z.f.g.l.D.K.I.I.E.E.R.Q.D.R.D.D.n.D.F.I.E.E.I.Y.R.I.I.D.D.j.g.l.T./.OXOXOXOXOXOXOXOXOXOXOXOXOXOX",
"OXOXOXOXOXOXOXOXOXOXOXOXOXOXz.z.x.n.n.K.L.Y.R.Q.R.Y.Y.E.R.I.F.D.D.D.D.D.!.F.R.F.R.R.R.Y.D.D.D.D.B.T.^.OXOXOXOXOXOXOXOXOXOXOXOXOX",
"OXOXOXOXOXOXOXOXOXOXOXOXOXq.z.z.K.K.n.z.D.Y.R.Q.Q.R././.R.R.R.F.(.D.].F.!.Q.!.R.R.!.R.Y.D.S.D.D.K.n.L.T.OXOXOXOXOXOXOXOXOXOXOXOX",
"OXOXOXOXOXOXOXOXOXOXOXOX7.h.l.D.D.I.I.P.U.Y.R.R.R.R.R.R.R.R.I.D.D.D.F.`.R.R.Q.Q.R.E.R.E.D.D.I.Y.D.n.n.V.OXOXOXOXOXOXOXOXOXOXOXOX",
"OXOXOXOXOXOXOXOXOXOXOXk.k.z.D.P.I.Y.I.I.I.K.K.D.I.I.I.I.F.D.l.g.D.D.D.D.D.F.F.D.I.D.D.I.I.R.I.D.P.I.F.n.F.F.OXOXOXOXOXOXOXOXOXOX",
"OXOXOXOXOXOXOXOXOXOX<.j.l.b.n.K.K.I.D.n.n.x.n.D.D.D.D.l.d.p.] p.d.p.] p.d.D.D.D.D.D.b.b.D.x.D.D.K.D.D.A.l.b.m.OXOXOXOXOXOXOXOXOX",
"OXOXOXOXOXOXOXOX/ :.j.g.s.g.j.j.l.l.j.n.n.b.n.n.j.g.d.p.] ` W W ] W W ' +.p.s.d.D.D.D.b.x.A.x.x.l.j.j.g.s.g.b.d.u.OXOXOXOXOXOXOX",
"OXOXOXOXOXOXOX! [ f.l.g.s.s.s.a.s.j.j.l.b.j.s.s.+.' W ` ] ] ] p.p.] ] ] ] ' W ' +.s.s.j.D.l.j.j.s.+.s.s.s.g.l.g.a.u.OXOXOXOXOXOX",
"OXOXOXOXOXx n ! _ { { ' ! E _ { +.p.s.s.s.p.E E R R R R U U E W ' W W Z Z R R R R E / p.s.s.s.+.+.O.W ^ W ' +.] ` ` Y I OXOXOXOX",
"OXOXOXOXx U _ _ Q U Y n n U U R U R ^ ^ R R c c c c c c c c c Z Z Z c C c c c c c c c ^ Z ^ ^ ^ R R R Z n Z R R U _ ` Y P OXOXOX",
"OXOXOX1 3 4 x x x x U v v v v n c h h k h h h g d h h h c c h h h t h c c h h h h h h h h B h h c c c n c v R x u x u 7 < < OXOX",
"OXOXOX& & % 2 8 7 2 7 7 4 x z b h h h h h h h g g h h g h h h h h h c h h g h h g y h h h y h y c u u t t u 2 2 8 6 > O O : OXOX",
"OXOXOXOXOXOXOXI I 6 , < < < 7 8 7 1 1 1 4 y 4 4 t t y y d h z c h c c t y h y y t y t t t y * 1 u u 7 < < > , 7 I T OXOXOXOXOXOX",
"OXOXOXOXOXOXOXOXOXOXOX8 8 5 2 5 6 , 2 i < < < < 6 6 , 1 < 2 2 2 u t t t * > 1 6 6 < < < 5 i 2 , 6 6 6 6 8 8 OXOXOXOXOXOXOXOXOXOX",
"OXOXOXOXOXOXOXOXOXOXOXOXOXOXOXOXOXOX8 Y 7 , < < > < 6 5 6 6 < 5 5 5 < u 6 6 6 > , < < > 7 E OXOXOXOXOXOXOXOXOXOXOXOXOXOXOXOXOXOX",
"OXOXOXOXOXOXOXOXOXOXOXOXOXOXOXOXOXOXOXOXOXOXOXOXOXOXOXOXOXOXOXOXOXOXOXOXOXOXOXOXOXOXOXOXOXOXOXOXOXOXOXOXOXOXOXOXOXOXOXOXOXOXOXOX",
"OXOXOXOXOXOXOXOXOXOXOXOXOXOXOXOXOXOXOXOXOXOXOXOXOXOXOXOXOXOXOXOXOXOXOXOXOXOXOXOXOXOXOXOXOXOXOXOXOXOXOXOXOXOXOXOXOXOXOXOXOXOXOXOX"
};
