/* XPM */
static char *_0334_f6e7483aa8023485f5d29ffead4245a84df031d3867b84ff1070ab6cea7d020f[] = {
/* columns rows colors chars-per-pixel */
"64 64 177 2 ",
"   c #0C131B",
".  c #10161F",
"X  c #14181F",
"o  c #0B1726",
"O  c #0F1926",
"+  c #0A1B2D",
"@  c #141B24",
"#  c #131C2A",
"$  c #1A1E23",
"%  c #131E31",
"&  c #17212E",
"*  c #1C242D",
"=  c #0C2036",
"-  c #0E233C",
";  c #152334",
":  c #1C2532",
">  c #1D2836",
",  c #15263B",
"<  c #1A273A",
"1  c #14283D",
"2  c #1C2B3C",
"3  c #21262E",
"4  c #28292D",
"5  c #212326",
"6  c #252B34",
"7  c #2A2E33",
"8  c #232E3B",
"9  c #2E3135",
"0  c #26303E",
"q  c #2C323A",
"w  c #2F393E",
"e  c #323535",
"r  c #3A3737",
"t  c #343935",
"y  c #3B3837",
"u  c #323539",
"i  c #3A3738",
"p  c #33393B",
"a  c #3C3839",
"s  c #43393A",
"d  c #4B3C3D",
"f  c #513D3E",
"g  c #3C413C",
"h  c #40433F",
"j  c #162C46",
"k  c #1C2D42",
"l  c #152D4C",
"z  c #182F4A",
"x  c #193047",
"c  c #1C324B",
"v  c #1C3753",
"b  c #1C3956",
"n  c #173458",
"m  c #193B5C",
"M  c #202F40",
"N  c #233244",
"B  c #2B3440",
"V  c #2C3844",
"C  c #22354A",
"Z  c #25394B",
"A  c #353B44",
"S  c #393D45",
"D  c #393F4A",
"F  c #173A60",
"G  c #1A3F63",
"H  c #4D3E42",
"J  c #433C42",
"K  c #533F40",
"L  c #3D4143",
"P  c #3D414B",
"I  c #2C4256",
"U  c #3C4554",
"Y  c #184064",
"T  c #1A436A",
"R  c #444444",
"E  c #4C4245",
"W  c #454B47",
"Q  c #44444B",
"!  c #4E474C",
"~  c #45494B",
"^  c #4C4B4D",
"/  c #544243",
"(  c #5A4446",
")  c #544649",
"_  c #5C4749",
"`  c #534A4F",
"'  c #5D4A4D",
"]  c #4D524E",
"[  c #444551",
"{  c #464B55",
"}  c #4C4D53",
"|  c #464959",
" . c #4B4E5C",
".. c #524C52",
"X. c #5C4D52",
"o. c #504F5D",
"O. c #4C5152",
"+. c #4E535C",
"@. c #525554",
"#. c #545957",
"$. c #595A57",
"%. c #53545B",
"&. c #5B545B",
"*. c #555A5C",
"=. c #5A5C5C",
"-. c #614B4D",
";. c #634E51",
":. c #635255",
">. c #685355",
",. c #65565A",
"<. c #6A5458",
"1. c #66595D",
"2. c #6A5B5D",
"3. c #5F615F",
"4. c #474F61",
"5. c #4C5263",
"6. c #485368",
"7. c #515563",
"8. c #555A66",
"9. c #5A5C63",
"0. c #5A5E6A",
"q. c #5E5662",
"w. c #635B63",
"e. c #6B5E62",
"r. c #645E6A",
"t. c #5D6161",
"y. c #5B616C",
"u. c #5F6271",
"i. c #646564",
"p. c #6C6165",
"a. c #676867",
"s. c #686967",
"d. c #65646B",
"f. c #6D646A",
"g. c #6B6B6C",
"h. c #716266",
"j. c #72666B",
"k. c #746A6D",
"l. c #6F706F",
"z. c #7C7465",
"x. c #626672",
"c. c #686571",
"v. c #666973",
"b. c #6C6D73",
"n. c #60677B",
"m. c #636C7C",
"M. c #696B7A",
"N. c #756D72",
"B. c #786E72",
"V. c #716D79",
"C. c #6E7174",
"Z. c #6E727D",
"A. c #747374",
"S. c #797175",
"D. c #777877",
"F. c #75747B",
"G. c #7B767A",
"H. c #76787B",
"J. c #7C7A7D",
"K. c #807C7F",
"L. c #9E886F",
"P. c #676F80",
"I. c #667185",
"U. c #6D7383",
"Y. c #697488",
"T. c #6E788A",
"R. c #747783",
"E. c #767984",
"W. c #7C7C83",
"Q. c #767D8C",
"!. c #797E8C",
"~. c #827E81",
"^. c #7D828E",
"/. c #838285",
"(. c #84848A",
"). c #88868A",
"_. c None",
/* pixels */
"_._._._._._._._._._._._._._._._._._._._._._._._._._._._._._._._._._._._._._._._._._._._._._._._._._._._._._._._._._._._._._._._.",
"_._._._._._._._._._._._._._._._._._._._._._._._._._._._._._._._._._._._._._._._._._._._._._._._._._._._._._._._._._._._._._._._.",
"_._._._._._._._._._._._._._._._._._._._._._._._._._._._._._._._._._._._._._._._._._._._._._._._._._._._._._._._._._._._._._._._.",
"_._._._._._._._._._._._._._._._._._._._._._._._._._._._._._._._.L._._._._._._._._._._._._._._._._._._._._._._._._._._._._._._._.",
"_._._._._._._._._._._._._._._._._._._._._._._._._._._._._._._._._._._._._._._._._._._._._._._._._._._._._._._._._._._._._._._._.",
"_._._._._._._._._._._._._._._._._._._._._._._._._._._._._._._._.U I _.z._._._._._._._._._._._._._._._._._._._._._._._._._._._._.",
"_._._._._._._._._._._._._._._._._._._._._._._._._._._._._.N k < < 2 N C _._._._._._._._._._._._._._._._._._._._._._._._._._._._.",
"_._._._._._._._._._._._._._._._._._._._._._._._._._._._._.: 3 7 7 7 7 8 k _._._._._._._._._._._._._._._._._._._._._._._._._._._.",
"_._._._._._._._._._._._._._._._._._._._._._._._._._._._.z k C Z Z N Z C c b _._._._._._._._._._._._._._._._._._._._._._._._._._.",
"_._._._._._._._._._._._._._._._._._._._._._._._._._.F F b v v v v v v v b m Y T _._._._._._._._._._._._._._._._._._._._._._._._.",
"_._._._._._._._._._._._._._._._._._._._._._._._.n v C C N 8 8 8 0 2 > 2 2 x c v b Y _._._._._._._._._._._._._._._._._._._._._._.",
"_._._._._._._._._._._._._._._._._._._._._._._.l k 0 0 0 7 6 q q 7 7 6 6 > 8 2 k 2 c m Y _._._._._._._._._._._._._._._._._._._._.",
"_._._._._._._._._._._._._._._._._._._._._._.l < 6 q 7 9 7 4 e u p p 7 6 6 6 6 6 ; 1 j v m _._._._._._._._._._._._._._._._._._._.",
"_._._._._._._._._._._._._._._._._._._._._.j ; : 6 9 9 9 7 7 e u p p u e 7 7 7 3 & ; , k b _._._._._._._._._._._._._._._._._._._.",
"_._._._._._._._._._._._._._._._._._._._.l , : 3 7 e 9 u 9 9 t a a a p u e 9 7 3 * : : k c n _._._._._._._._._._._._._._._._._._.",
"_._._._._._._._._._._._._._._._._._._._.j % # 7 Q Q Q } O.@.=.3.3.=.=.#...^ Q Q R P A M M v _._._._._._._._._._._._._._._._._._.",
"_._._._._._._._._._._._._._._._._._._._.1 # # q ~ #.#.#.3.g.D.D.J.H.A.s.t.=.3.*.+.{ P B 2 z _._._._._._._._._._._._._._._._._._.",
"_._._._._._._._._._._._._._._._._._._._.- O @ u ^ #.#.@.$.s.l.A.D.D.s.i.$.O.#.*.*.{ P q 2 z _._._._._._._._._._._._._._._._._._.",
"_._._._._._._._._._._._._._._._._._._._.- O $ u ^ #.#.@.$.s.l.A.D.D.l.a.=.@.+.8.*.{ P 0 2 z _._._._._._._._._._._._._._._._._._.",
"_._._._._._._._._._._._._._._._._._._._.- @ @ 7 W O.$.=.i.l.D.D.D.H.H.H.s.t.t.*.#.{ S q > z _._._._._._._._._._._._._._._._._._.",
"_._._._._._._._._._._._._._._._._._._._.- O O 4 h ] #.3.g.D.~.J.J.J.J.H.v.t.3.#.O.U p q 2 z _._._._._._._._._._._._._._._._._._.",
"_._._._._._._._._._._._._._._._._._._._.- o . 5 y h ] $.t.g.l.s.a.a.g.C.g.t.+.O.U L w 2 2 j _._._._._._._._._._._._._._._._._._.",
"_._._._._._._._._._._._._._._._._._._._._.o   $ 9 g W O.#.#.] h g g g ] t.*.] R S V N > < j _._._._._._._._._._._._._._._._._._.",
"_._._._._._._._._._._._._._._._._._._._._.+   X > 0 g g W L g t t e g g ~ ~ L A V _._.> , _._._._._._._._._._._._._._._._._._._.",
"_._._._._._._._._._._._._._._._._._._._._.= o   _._._.q u p t t e t e t w w V _._._.: * 1 _._._._._._._._._._._._._._._._._._._.",
"_._._._._._._._._._._._._._._._._._._._._._.+   _._._._._._._.u y t 9 _._._._._._._.* ; _._._._._._._._._._._._._._._._._._._._.",
"_._._._._._._._._._._._._._._._._._._._._._._._._._._._._._._.0.3.%.8._._._._._._._._._._._._._._._._._._._._._._._._._._._._._.",
"_._._._._._._._._._._._._._._._._._._._._._._._._.Y.T.R.R.T.E.E.H.H.W.R.Z.U.Z.U.I._._._._._._._._._._._._._._._._._._._._._._._.",
"_._._._._._._._._._._._._._._._._._._._._._.I.T.Q.^.^.W.W.H.E.H.W.W.~.^.E.E.W.W.E.Q.U.P._._._._._._._._._._._._._._._._._._._._.",
"_._._._._._._._._._._._._._._._._._._.M.U.Q.!.!.^.^.H.C.C.F.H.W.W.W.W.W.R.C.d.g.A.H.R.E.R.U.m._._._._._._._._._._._._._._._._._.",
"_._._._._._._._._._._._._._._._._._.c.M.G.~.(.!.Z.v._.8.v.F.J.W.W.J.J./.E.Z.7._.&.d.b.W.!.W.U.P._._._._._._._._._._._._._._._._.",
"_._._._._._._._._._._._._._._._._._.f.N.G.W.W.b.y._._.0.C.J.J./.K.J.K.W./.E.0._._._.i.D.A.N.H.F.m._._._._._._._._._._._._._._._.",
"_._._._._._._._._._._._._._._._._.&.1.k.k.F.E.n._._._.0.F.G.~.~.~.K.~././.W.x._._._._.b.b.N.V.V.v._._._._._._._._._._._._._._._.",
"_._._._._._._._._._._._._._._._._.X.' p.h.j.V.M.n._._.u.F.F.F.H.F.G.F.E.J.R.v._._._.u.r.d.f.N.g.x._._._._._._._._._._._._._._._.",
"_._._._._._._._._._._._._._._._._._.) ' >.;.1.f.d.w.r.r.w.w.,.&.O.{ %... .q.q.q.r.r.r.f.f.e.p.d._._._._._._._._._._._._._._._._.",
"_._._._._._._._._._._._._._._._._._._./ ( _ ;.2.>.;.K X.X._ ` ..[ L } } ! ! ` H ' ,.f.g.j.w.w._._._._._._._._._._._._._._._._._.",
"_._._._._._._._._._._._._._._._._._._._.E / ( ' / H d ) ) / ) ^ ~ L } } ! ^ ..H H ' ,.1.,.&._._._._._._._._._._._._._._._._._._.",
"_._._._._._._._._._._._._._._._._._._._._._._.d s a J E E E ! ^ R L ....^ ....! H / / _._._._._._._._._._._._._._._._._._._._._.",
"_._._._._._._._._._._._._._._._._._._._._._._._._._.q.d.$.` ^ ^ } %.@.@.&.w.b.b.5._._._._._._._._._._._._._._._._._._._._._._._.",
"_._._._._._._._._._._._._._._._._._._._._._._._._.} b.G.D.B.k.k.A.W.H.H.W.(.(.~.y._._._._._._._._._._._._._._._._._._._._._._._.",
"_._._._._._._._._._._._._._._._._._._._._._._._._. .N.G.G.G.D.G.G.K./././.).)./.v._._._._._._._._._._._._._._._._._._._._._._._.",
"_._._._._._._._._._._._._._._._._._._._._._._._._.%.S.G.G.D.B.B.B.K./.)././.).).M._._._._._._._._._._._._._._._._._._._._._._._.",
"_._._._._._._._._._._._._._._._._._._._._._._._._.q.N.B.B.k.p.e.h.S.~.K./././.K.b._._._._._._._._._._._._._._._._._._._._._._._.",
"_._._._._._._._._._._._._._._._._._._._._._._._. .9.p.j.h.e.2.:.1.B.B.k.k.k.h.,._ { _._._._._._._._._._._._._._._._._._._._._._.",
"_._._._._._._._._._._._._._._._._._._._._._._.+.r.N.V.B.N.e.1.<.<.e.1.,.,.:.&.' ' )  ._._._._._._._._._._._._._._._._._._._._._.",
"_._._._._._._._._._._._._._._._._._._._._._.4.y.F.S.G.G.G.B.k.h.,.,.e.e.e.w.1.1.,.' ^ 5._._._._._._._._._._._._._._._._._._._._.",
"_._._._._._._._._._._._._._._._._._._._._._.8.A.G.K.G.G.G.S.B.k.p.,.1.e.e.e.p.p.w.,.:.%.6._._._._._._._._._._._._._._._._._._._.",
"_._._._._._._._._._._._._._._._._._._._._. .c.J.~.G.S.B.B.B.k.h.j.2.e.p.f.p.f.f.p.,.,.,.5._._._._._._._._._._._._._._._._._._._.",
"_._._._._._._._._._._._._._._._._._._._.[ 7.F.K.G.G.B.B.K.2.2.h.2.p.h.j.j.j.f.f.p.,.,.1.&.4._._._._._._._._._._._._._._._._._._.",
"_._._._._._._._._._._._._._._._._._._._.[ r.N.W.G.B.k.B.h.h.h.2.2.2.2.h.p.p.p.p.p.p.p.w.,.o._._._._._._._._._._._._._._._._._._.",
"_._._._._._._._._._._._._._._._._._._.J &.e.j.S.k.e.2.h.2.2.<.2.,.:.;.<.2.e.p.,.,.e.e.e.w.,. ._._._._._._._._._._._._._._._._._.",
"_._._._._._._._._._._._._._._._._._.D &.j.j.k.h.<.-.( _ >.>.-.-._ _ h ) -.>.:.<.:.X.,.,.,.X.X.| _._._._._._._._._._._._._._._._.",
"_._._._._._._._._._._._._._._._._.D Q e.B.B.k.2.( K f f K -.-.-./ h f f f ( ' :.:.:.:.' ' ' ' @.| _._._._._._._._._._._._._._._.",
"_._._._._._._._._._._._._._._._.A [ w.e.h.h.h.<.-./ K ( ( ( -.-._ / f f f d f / -.;.' _ / _ _ ' ..[ _._._._._._._._._._._._._._.",
"_._._._._._._._._._._._._._._.S Q :.e.<.<.>.-.>.-.-.K ( ( f f f f d f s s s s s h _ ) h d d d f H J U _._._._._._._._._._._._._.",
"_._._._._._._._._._._._._._.A S H ;._ _ K K / _ K K f f f s d s a s a s a y s a d s s d s s s s s d Q D _._._._._._._._._._._._.",
"_._._._._._._._._._._._._.S S A s s s d s d s d d s s s s y a i r r r a a r r r r i i i a s s s s s s D D _._._._._._._._._._._.",
"_._._._._._._._._._._._._.D S i r i a s a a s s s s s s a a a y r r a r r r r r i i r i a s a a s d s S D _._._._._._._._._._._.",
"_._._._._._._._._._._._._._._._._.a a a r r r r r a s a a a a a a a a r r r a r s a i s s s s s s K _._._._._._._._._._._._._._.",
"_._._._._._._._._._._._._._._._._._._._.a r r r r r a a i y y a a s s s s s s s a d s s s s d _._._._._._._._._._._._._._._._._.",
"_._._._._._._._._._._._._._._._._._._._._._._._._._.a a i i a a s s s s s s a s _._._._._._._._._._._._._._._._._._._._._._._._.",
"_._._._._._._._._._._._._._._._._._._._._._._._._._._._._._._._._._._._._._._._._._._._._._._._._._._._._._._._._._._._._._._._.",
"_._._._._._._._._._._._._._._._._._._._._._._._._._._._._._._._._._._._._._._._._._._._._._._._._._._._._._._._._._._._._._._._.",
"_._._._._._._._._._._._._._._._._._._._._._._._._._._._._._._._._._._._._._._._._._._._._._._._._._._._._._._._._._._._._._._._."
};
