/* XPM */
static char *_6178_c9cb0ec2126c100fde87c10fa19f2d119b7136c24f15f2e030806d420e006214[] = {
/* columns rows colors chars-per-pixel */
"45 45 167 2 ",
"   c #39372E",
".  c #353433",
"X  c #373832",
"o  c #3B3C35",
"O  c #3E3E3B",
"+  c #403B2F",
"@  c #433F37",
"#  c #413F3A",
"$  c #3D402F",
"%  c #3F4234",
"&  c #3E423C",
"*  c #404336",
"=  c #42443C",
"-  c #46493D",
";  c #494B3E",
":  c #3E4242",
">  c #434542",
",  c #464A43",
"<  c #4A4C45",
"1  c #454A49",
"2  c #4A4D4B",
"3  c #4D5146",
"4  c #4D524C",
"5  c #505045",
"6  c #51544D",
"7  c #54584F",
"8  c #474F51",
"9  c #4C4E51",
"0  c #4E5253",
"q  c #4E5458",
"w  c #525553",
"e  c #555A54",
"r  c #595E57",
"t  c #52575A",
"y  c #555B5B",
"u  c #595E5C",
"i  c #5C615E",
"p  c #61665F",
"a  c #4E5765",
"s  c #565C61",
"d  c #5A5E61",
"f  c #575C6A",
"g  c #5C6263",
"h  c #5E6569",
"j  c #5F696D",
"k  c #5B6573",
"l  c #5E6974",
"z  c #616563",
"x  c #626866",
"c  c #686B64",
"v  c #61676A",
"b  c #646A6C",
"n  c #696E6D",
"m  c #6D706F",
"M  c #646371",
"N  c #646C73",
"B  c #696E73",
"V  c #6B6A78",
"C  c #667073",
"Z  c #6B7274",
"A  c #6D747B",
"S  c #6F7A7F",
"D  c #727376",
"F  c #74757B",
"G  c #7A757F",
"H  c #727A7D",
"J  c #606D81",
"K  c #706F80",
"L  c #6B7481",
"P  c #6E7983",
"I  c #737483",
"U  c #787687",
"Y  c #737B82",
"T  c #7A7E83",
"R  c #7A7688",
"E  c #757E8A",
"W  c #7B7C8E",
"Q  c #7D7F91",
"!  c #817E89",
"~  c #798185",
"^  c #77838D",
"/  c #7B848B",
"(  c #778391",
")  c #7C8594",
"_  c #7E8B95",
"`  c #7D899A",
"'  c #7D8DA4",
"]  c #828089",
"[  c #838494",
"{  c #898390",
"}  c #818A93",
"|  c #8C8C97",
" . c #83869B",
".. c #838B9D",
"X. c #888899",
"o. c #918E9C",
"O. c #86929C",
"+. c #8B939D",
"@. c #858DA1",
"#. c #8A8EA3",
"$. c #908FA5",
"%. c #8593A4",
"&. c #8A93A5",
"*. c #8B9AA6",
"=. c #8E95AA",
"-. c #8C9BAC",
";. c #9495A3",
":. c #9A97A4",
">. c #9499A7",
",. c #9295AB",
"<. c #929CAC",
"1. c #8799B3",
"2. c #8B9DB4",
"3. c #949BB2",
"4. c #989FB4",
"5. c #979FB8",
"6. c #9A9FB8",
"7. c #93A1AF",
"8. c #8FA3BA",
"9. c #93A3B3",
"0. c #9CA3B3",
"q. c #98A8B3",
"w. c #95A4BB",
"e. c #9BA4BC",
"r. c #96A8B9",
"t. c #9BABBC",
"y. c #A1A7B6",
"u. c #A2A8B7",
"i. c #A4ABBD",
"p. c #9DA7C0",
"a. c #96A9C1",
"s. c #9DACC3",
"d. c #9CAFCA",
"f. c #9EB0C6",
"g. c #9EB2CD",
"h. c #A0A6C0",
"j. c #A1ACC4",
"k. c #A4B2C5",
"l. c #A4B3CB",
"z. c #AAB7CD",
"x. c #A6B9C8",
"c. c #A9BACE",
"v. c #A4B7D2",
"b. c #A8B7D3",
"n. c #A5B8D2",
"m. c #AABCD5",
"M. c #A7BDDA",
"N. c #ACBEDA",
"B. c #AEC2D5",
"V. c #ADC2DC",
"C. c #B2C4DC",
"Z. c #AEC6E6",
"A. c #B1C6E2",
"S. c #B4C9E6",
"D. c #B5C7E8",
"F. c #B5CDEB",
"G. c #B8CDEA",
"H. c #B9D0ED",
"J. c #BBCEF0",
"K. c #BCD4F3",
"L. c #BFD8F7",
"P. c #C0D7F7",
"I. c #C1D9F7",
"U. c #C0D7F8",
"Y. c #C2DBFB",
"T. c #C6E0FF",
"R. c None",
/* pixels */
"R.R.R.R.R.R.R.R.R.R.R.R.R.R.R.R.R.R.R.R.R.R.R.R.R.R.R.R.R.R.R.R.R.R.R.R.R.R.R.R.R.R.R.R.R.",
"R.R.R.R.R.R.R.R.R.R.R.R.R.R.R.R.R.R.R.R.R.R.R.R.R.R.R.R.R.R.R.R.R.R.R.R.R.R.R.R.R.R.R.R.R.",
"R.R.R.R.R.R.R.R.R.R.R.R.R.R.R.R.R.R.R.R.M.V.Z.F.K.R.R.R.R.R.R.R.R.R.R.R.R.R.R.R.R.R.R.R.R.",
"R.R.R.R.R.R.R.R.R.R.R.R.R.R.R.J 1.g.S.L.L.L.T.T.Y.Y.Y.Y.L.F.R.R.R.R.R.R.R.R.R.R.R.R.R.R.R.",
"R.R.R.R.R.R.R.R.R.R.R.R.R.a ' V.L.K.L.T.Y.T.T.T.T.L.L.T.Y.Y.L.L.R.R.R.R.R.R.R.R.R.R.R.R.R.",
"R.R.R.R.R.R.R.R.R.R.R.R.' d.Z.Y.Y.Y.T.L.V.B.B.F.K.L.T.Y.Y.Y.Y.L.f.R.R.R.R.R.R.R.R.R.R.R.R.",
"R.R.R.R.R.R.R.R.R.R.R.r.B.S.F.Y.K.A.s._ P S h P _ ( %.7.m.L.L.L.s.-.8.R.R.R.R.R.R.R.R.R.R.",
"R.R.R.R.R.R.R.R.R.L -.t.V.L.H.-.A C C h C C g r i g & = y 2.Z.J.D.Z.a.k R.R.R.R.R.R.R.R.R.",
"R.R.R.R.R.R.R.R.k =.9.s.L.S.^ 3 - e x c m i z i < < , & & 1 g *.H.v.f.w.8.R.R.R.R.R.R.R.R.",
"R.R.R.R.R.R.R.f @.t.z.K.g.C 4 3 ; e e i ~ x b i % 3 0 0 e , & g O.8.r.K.K.Z.R.R.R.R.R.R.R.",
"R.R.R.R.R.R.R.@.9.k.l.2.i 3 7 3 6 < - i C i i i & 4 0 g j i 4 1 : P F.T.L.K.R.R.R.R.R.R.R.",
"R.R.R.R.R.R.#.3.b.S.%.e e i i 6 7 4 * i m i 7 p ; < e i h S j q 1 8 7.L.K.L.M.R.R.R.R.R.R.",
"R.R.R.R.R.R.>.j.G.m.g r h b h i i 7 & i b p x Z ; * ; 5 3 C j i q 4 s f.Z.A.H.` R.R.R.R.R.",
"R.R.R.R.R.W #.j.S._ 4 r i g h e i ; 7 n x i H m - $ % e ; i j y s y q C A.L.L.g.R.R.R.R.R.",
"R.R.R.R.M &.;.l.t.r 6 6 7 7 i i i % 3 i ; * b i 6 e i x & 1 g y s g t 0 ' L.Y.L.2.R.R.R.R.",
"R.R.R.R.V ,.6.l.C = = ; < 4 4 6 ; i / C z i i H / / _ j % : 7 8 , , 2 2 t B.Y.L.V.R.R.R.R.",
"R.R.R.R.W #.p.*.; $ * p ; - ; - A 7.7.~ A b y u R.R.R.A > : 4 t d r > 1 1 3.Y.K.V.R.R.R.R.",
"R.R.R.R.#.3.l.( 3 ; 3 ~ m c m i / R.R.R.R.R.R.R.R.R.R.^ 2 < 4 y b b > # O W K.S.l.R.R.R.R.",
"R.R.R.1.#.,.b.) H Z D m ~ m m m H R.R.R.R.R.R.R.R.R.R.L 2 > , , w z t = O d Z.F.V.f.R.R.R.",
"R.R.R.! #.3.m.Y H H q.Z H } p ; x R.R.R.R.R.R.R.R.R.R.l 0 , & i u v s t o 9 N.L.C.a.R.R.R.",
"R.R.R.U #.6.l.u e ~ 7.H ~ H e ; r R.R.R.R.R.R.R.R.R.R.R.0 < - u w S g h O > w.L.B.f.R.R.R.",
"R.R.R.V #.e.e.6 = b H H ~ H ; ; h R.R.R.R.R.R.R.R.R.R.R.j A e r r / N u O o 1.K.x.t.R.R.R.",
"R.R.R.K =.N.r.< = < b c n ~ 7 ; h R.R.R.R.R.R.R.R.R.R.R.g g 4 e r D d d # & w.K.t.7.R.R.R.",
"R.R.R.U w.K.f.3 ; 3 g i b b i 4 N R.R.R.R.R.R.R.R.R.R.R.q 3 ; e w z w d > < B.S.q.9.R.R.R.",
"R.R.R.@.e.D.N.e = < x 7 7 h g < h R.R.R.R.R.R.R.R.R.R.R.2 4 6 e r v u h # q V.n.q.7.R.R.R.",
"R.R.R.e.p.b.D.h < g ~ C C m i & 4 R.R.R.R.R.R.R.R.R.R.R.d w u 4 e u g y 9 M t.q.-.( R.R.R.",
"R.R.R.R.5.j.D.^ = 0 N 3 - e e = q &.R.R.R.R.R.R.R.R.R.R.h = > , 1 # > > 2 L e.*.O.N R.R.R.",
"R.R.R.R.5.j.D.t.3 y e & & - 3 & 2 Z R.R.z B C V Y A C x > : q t 9 1 > O . =.K.w._ R.R.R.R.",
"R.R.R.R.p.p.m.N.h - = 4 0 3 & > o & , , : > & & > : : : & 1 t d t 9 9 O s B.I.t.^ R.R.R.R.",
"R.R.R.R.,.3.h.D.` % & 2 y g h g 4 0 h g 2 1 1 & 1 > : 1 8 9 s N d 1 > O ` H.H.t.Y R.R.R.R.",
"R.R.R.R.R.=.5.m.M.h o & 8 i b h q N b g 2 1 , > > q w : q s g s t 8 : d s.G.B.7.R.R.R.R.R.",
"R.R.R.R.R.,.,.p.N.w.3 $ 2 q h t h N g 9 w d d e : N s : 8 9 s q 8 > q ( *.c.t.O.R.R.R.R.R.",
"R.R.R.R.R.R.#.@.w.A.=.> o > 9 e s d s 1 = = @ u g z # # > 1 1 > O 9 ( 1.I } +.R.R.R.R.R.R.",
"R.R.R.R.R.R.R...#.e.b.) : = < 2 2 2 2 2 2 w > t z t 2 > o O o . 1 #.n.l.&.v R.R.R.R.R.R.R.",
"R.R.R.R.R.R.R.R.#.=.p.N...> o # = > @ 2 d z # y > > w M b d 2 t 9.H.A.m.E . R.R.R.R.R.R.R.",
"R.R.R.R.R.R.R.R.&.=.1.d.m.&.s # @ + @ w w # w V # # @ < u N %.n.A.C.B.>.u R.R.R.R.R.R.R.R.",
"R.R.R.R.R.R.R.R.R.$.@.@...w.j.@.V w = = o   w H , @ o > x =.C.m.s.z.u.D R.R.R.R.R.R.R.R.R.",
"R.R.R.R.R.R.R.R.R.R.! L I =.3.e.l.s.@.I N v V A M I &.j.m.V.m.k.0.0.R.R.R.R.R.R.R.R.R.R.R.",
"R.R.R.R.R.R.R.R.R.R.R.R.Q [ ) X.,.e.h.z.N.N.b.l.C.C.C.N.i.j.q.y.;.R.R.R.R.R.R.R.R.R.R.R.R.",
"R.R.R.R.R.R.R.R.R.R.R.R.R.R.W Q Q Q [ #.6.h.4.0.u.u.u.i.u.0.+.F R.R.R.R.R.R.R.R.R.R.R.R.R.",
"R.R.R.R.R.R.R.R.R.R.R.R.R.R.R.R R I I ! [ X.{ ] | $.;.>.:.R.R.R.R.R.R.R.R.R.R.R.R.R.R.R.R.",
"R.R.R.R.R.R.R.R.R.R.R.R.R.R.R.R.R.R.R.R.! ! R G G { R.R.R.R.R.R.R.R.R.R.R.R.R.R.R.R.R.R.R.",
"R.R.R.R.R.R.R.R.R.R.R.R.R.R.R.R.R.R.R.R.R.R.R.R.R.R.R.R.R.R.R.R.R.R.R.R.R.R.R.R.R.R.R.R.R.",
"R.R.R.R.R.R.R.R.R.R.R.R.R.R.R.R.R.R.R.R.R.R.R.R.R.R.R.R.R.R.R.R.R.R.R.R.R.R.R.R.R.R.R.R.R.",
"R.R.R.R.R.R.R.R.R.R.R.R.R.R.R.R.R.R.R.R.R.R.R.R.R.R.R.R.R.R.R.R.R.R.R.R.R.R.R.R.R.R.R.R.R."
};
