/* XPM */
static char *_363_029e25b8144c415e4a3e69c0cad5808826fa9811d927cb2737788fc2aa5c0fc4[] = {
/* columns rows colors chars-per-pixel */
"64 64 207 2 ",
"   c #29262D",
".  c #2A2E3A",
"X  c #2C313B",
"o  c #32343D",
"O  c #37383D",
"+  c #2E3543",
"@  c #323541",
"#  c #353A45",
"$  c #3A3C45",
"%  c #353B4B",
"&  c #3B3E4A",
"*  c #363E50",
"=  c #393E52",
"-  c #3D414C",
";  c #3A424B",
":  c #374051",
">  c #3C4354",
",  c #3F4856",
"<  c #3D465A",
"1  c #3F4A5D",
"2  c #3D4C63",
"3  c #43454D",
"4  c #424552",
"5  c #454A55",
"6  c #4B4C55",
"7  c #414659",
"8  c #444B5B",
"9  c #4A4D5B",
"0  c #504F57",
"q  c #504F5B",
"w  c #47505D",
"e  c #4C525D",
"r  c #52535D",
"t  c #56585D",
"y  c #5A595F",
"u  c #515056",
"i  c #625E5D",
"p  c #454E62",
"a  c #494E62",
"s  c #455165",
"d  c #4C5363",
"f  c #4D5966",
"g  c #465269",
"h  c #4C556A",
"j  c #4C596C",
"k  c #525563",
"l  c #585663",
"z  c #555965",
"x  c #5B5C65",
"c  c #525669",
"v  c #545B6C",
"b  c #5A5D6B",
"n  c #4D5670",
"m  c #4E5B72",
"M  c #555D72",
"N  c #595E72",
"B  c #575E78",
"V  c #615E64",
"C  c #605F6D",
"Z  c #57606F",
"A  c #5D616D",
"S  c #5D6067",
"D  c #566174",
"F  c #5C6374",
"G  c #5F6976",
"H  c #55637C",
"J  c #5C657A",
"K  c #5D6A7C",
"L  c #616266",
"P  c #62636D",
"I  c #6A676D",
"U  c #69696E",
"Y  c #6A6967",
"T  c #626673",
"R  c #6B6773",
"E  c #656975",
"W  c #6A6B74",
"Q  c #61667A",
"!  c #646B7B",
"~  c #6B6D7B",
"^  c #716F7B",
"/  c #6D717D",
"(  c #6B7079",
")  c #727074",
"_  c #73727D",
"`  c #7B777C",
"'  c #5A6781",
"]  c #5D6C84",
"[  c #5D6E88",
"{  c #576882",
"}  c #5F7084",
"|  c #606781",
" . c #646D82",
".. c #6A6E82",
"X. c #616E89",
"o. c #696F89",
"O. c #657184",
"+. c #6C7284",
"@. c #6E7986",
"#. c #65738C",
"$. c #6C758A",
"%. c #6D798D",
"&. c #737583",
"*. c #747985",
"=. c #7B7B85",
"-. c #72768A",
";. c #737A8C",
":. c #7B7D8B",
">. c #787586",
",. c #657691",
"<. c #6A7591",
"1. c #667996",
"2. c #6C7A93",
"3. c #6C7D9A",
"4. c #747D93",
"5. c #797E93",
"6. c #737E99",
"7. c #7A7F9A",
"8. c #737792",
"9. c #807E8C",
"0. c #887D83",
"q. c #827F90",
"w. c #75818F",
"e. c #7C818D",
"r. c #6E819E",
"t. c #758195",
"y. c #7C8294",
"u. c #75829A",
"i. c #7C859B",
"p. c #7D899D",
"a. c #7686A2",
"s. c #7D86A0",
"d. c #7D8BA3",
"f. c #748AAB",
"g. c #7C8DAA",
"h. c #838386",
"j. c #82828D",
"k. c #89858D",
"l. c #87888D",
"z. c #838494",
"x. c #8A8591",
"c. c #858A96",
"v. c #8A8994",
"b. c #828699",
"n. c #848A9C",
"m. c #8A8C9C",
"M. c #928E9A",
"N. c #918E97",
"B. c #8D919E",
"V. c #93929C",
"C. c #98979F",
"Z. c #9A999E",
"A. c #A2999A",
"S. c #8086A2",
"D. c #848CA3",
"F. c #8A8EA2",
"G. c #848DA9",
"H. c #898FA9",
"J. c #8590A4",
"K. c #8C92A4",
"L. c #8693AA",
"P. c #8C95AA",
"I. c #8E9AAD",
"U. c #9295A4",
"Y. c #9996A3",
"T. c #9499A6",
"R. c #9A99A4",
"E. c #9296AB",
"W. c #949AAC",
"Q. c #9B9DAC",
"!. c #8C96B2",
"~. c #8D9AB3",
"^. c #8998B5",
"/. c #9097B2",
"(. c #949DB3",
"). c #9A9EB2",
"_. c #919FB9",
"`. c #989EB8",
"'. c #9DA1AD",
"]. c #8CA0B9",
"[. c #94A1B6",
"{. c #9CA2B4",
"}. c #95A4BB",
"|. c #9BA5BA",
" X c #9DA9BE",
".X c #A2A2AE",
"XX c #A5A0A6",
"oX c #A2A5B5",
"OX c #A4A9B5",
"+X c #AAAAB6",
"@X c #A2A6BA",
"#X c #A4AABC",
"$X c #AAADBC",
"%X c #AFB2BF",
"&X c #97A7C1",
"*X c #9DABC2",
"=X c #A4ADC2",
"-X c #A9AFC4",
";X c #A1AFCA",
":X c #ADB3C4",
">X c #A3B2CC",
",X c #B2B5C4",
"<X c #B5BBCB",
"1X c #B9BCCC",
"2X c #B5B8C8",
"3X c #B3BED0",
"4X c #C2C4D0",
/* pixels */
"*.F 6 X p ] u.2.#.2.$.Q 6 z @.4.;.-.~ $ A y.7.5.&.8.R :.@X|.-X:X|.+X4XV.I y.P K X.J ' d 8 1.d.t.#.v e J 8.7.F./.E.).W.(.*.H 3.f.",
"B.:.~ - % v  .K J +.6.%.S ! ;.2.%.@.$.3 k 5.8.5.+.>.W ~ @X{.@X#XoXQ.$XXX_ ~ J  .$.J { Z ,  .a.d.t.D 8 v ..-.D.H.E.(.`.(.=.M ,.r.",
"~.W.K.b X < k z h F 6.p./ t.t.6.4.+.t.r 4 ..o.5.&._ ~ A W.@XQ.XXC.N.v.R._ v H #.2.] X.E , H t.d.d.! 6 r N ..s.H.H./.`.(.=.h ,.1.",
"c.U.U.:.o 7 M v v c ! @.K i.J.d.t.;.y.W 9 v ..5.:.*.&.b b.oXQ.x.0.k._ C u v J #.%.[ O.E e J %.u.6.! l T b o.s./.H.F.(.`.n.M 1.a.",
"i.J.K.c.3 8 v d f k z A z 4.D.I.y.%.5.p.+.k J ;.*.&.-.l -.Q.R.x.` =.I 6 3 8 j ! #.,.#.F e ' %.-. .J k -.Q | 8.S.H.G.^.{.z.d r.f.",
"c.n.m.e.z s k z F G G T z O.t.p.t.4.i.(.E.T l ! ~ E W r Q b.V.k.` ) x e w > 8 M [ #. .D e N +...D x 9 -...M  .8.s.H.P.W.) 8 ,.3.",
"c.c.y.+.! v t =.c.'.K.'.V.b ! E t.d.P.(.@Xb.r x x l 0 6 e L W ) L x v D } z > d m J Z d e w k J v d 9 k Q k ..-.4.S.F.z.r = g { ",
"D.c.;.! @.Q P R.oXOX@X$X+XE Q 2.^._.~.E.|.Q._ e k 9 9 z r i i S A K H H } ! ; , d d 3 X 5 8 8 v b h 8 5 b q v ..+.+.&.L c p : < ",
"n.n.~  .-.~ ~ #X#X$X@X=X2X=.! L.}.].~.W.W.oXm.u 9 d f J S L x D [ #.K H ' 2.- e b x 3   & p s g B v d 4 x q 6 b N l r 6 v M : # ",
"y.*.J +.$.~ &.{.@X@X*X#X,Xm.h 2.s.a./.(.K.m.m.t w 8 f K z f E 1.2. .' K { O.9 y.P.z.W 6 > s h D D H J 8 R R t e q x 3 d N v h h ",
"E E F ..@.! :.|.-X-X-X:X1XoXb K 7.6.K.{.W.J.m.z 4 5 w A S 4 a H #.#.<. .K O.b K.W.n.c.( 8 a h v D { F e $.-.W E P x 4 M M v v a ",
"C A J ..+.! t.@X:X:X:X:X2X,X_ v 2.5.D.).(.U.x.r 5 w w Z A 3 # s K 2.#.O.H O.F J.K.n.K.z.9 h p v D D v a %.7.4.:.e.P 4 v v n h 2 ",
"9./ Q $.5.+.n.@X#X#XoXQ.@X1XM.d | i.i.(.W.T.j.r c D v Z ! e ; 8 d J J  .] ! A J.'.K.K.e., h 8 H v M v 8 2.i.-.;.t.+.# p v v p < ",
"x.&.R 4.y.! ..F.F.m.m.9.v.@XoXx c -.5.y.m.v.~ P z v b D ! t % 8 d f f Q J +.b p.{.W.K.e.; ; % j v g k v u.p.8.7.y.;.4 < c M h 7 ",
"x.-.~ $.y.A k W =.>.:.=.9.U.Q.P a F W ! :._ T _ S d v Z G z @ > e w e K J ! S y.(.{.W._ 3 , , d v p 9 M 6.p.t.t.4.*.x % a M M 8 ",
"n.*.~ Q *.F 9 q W 4.z.m.9.z.9.R N z k l R P +.b.~ e w z Z S $ # 5 4 8 ! ~ A e :.[.{.Q.x x :.*.E x 6 3 B 2.;.n.i.4.4.&.& = d M 9 ",
"n.:.&.b T ..X.J E T E e.*.=.y.i.t.*.( ~ P E 4.m.j.A 9 k e T E A A x 5 6 b Z e -.[.#XK.t -.(.W.U.m.:.T b $. .i.i.%.%.T d 9 8 9 9 ",
"F.q.>.C v 2.3.u.O.A r ( :.y.i.L.~.P.v.9.P ~ b.K.K._ d d d ( K.U.c.j.T - e T A -.I.@Xc.T K.@X).{.).{.v.Z O.Q 7.i.-...v ! ! v a k ",
"b.q.>.b H 3.1.g.d.! z +.L.W.t.%.D.K.b.9.P T D.Q.B.v.b 8 z n.@X:X,X:X|.A F / -./ t.Q.z.i.).{.m.*.-.T.m.T O.Q +.;./ P d $.D.t. .Q ",
"7.b.+.c } 3.<.3.D.+.A ! 4.P.c...;.K.n.=.b ~ =.b.m.x.>.9 G W.{.=X,X:X2Xe.Q +.*./ ~ y.:.K.`.=Xm.E T *.e.x Q J A v x v H O.t.4.$...",
"4.:.W j [ 1.3.+.u./ ( Q ! i.F.&. .K.B.=.N ^ _ _ v.b.m.b $.{.).oX$X#X:X'.! / &.( ( / +.P.E.|.b.>.>./ _ v F E A r k D H / ;.;.$.+.",
"&.E F [ [ 2.u.%.+.T ;.;.+.7.W.b.$.c.E.9.l ^ >.>.z.F.W.9.n.@X|.=X,X#X#X|.~ ( ( +.G.w.F i.F.b.=.y.m.y.>.F ! &.*.A ~ J J ..i.t.7...",
"~ Q  .<.[ #.%.+.+.b ;.5.+.$.U.F.y.z.v.W 4 x _ z.j.b.n.x.y.(.@X{.,X%X'.OX&.+.y.p.I.B.b T ~ =.+.&.:.&.&...4.i.n.P O.J  .$.t.i.p.$.",
"T F ,.3.%.K K J F k ;.:.+.! z.c.z.5.9.T 4 6 P :.:.:.=.z.*.F.$XW.#X%XT.Z.j.y.P.P.P.W.T l W :.:.*.&.=.W $.u.i.D.Q J J $.y.i.d.G.5.",
"z m 3.2.t.O.c 6 9 P @.:.+.F T >.+.-.:.+.v 4 e T :.=.^ =.:.:.'.W.W.'.V.B.K.'.g.I.B.K.y.( e.U.Q.V.B.C.W v 2.@.:.T k Q 6.P.G.g.G.i.",
"N 8 [ #.t.! 5 d ~ t.J.P.D.n.b.j.b ..t.%./ Z z v T ^ R W >.*.B.j.*.B.T.I.I.W.p.L.[.I.K.z.U.'.%X$XoX%Xj.d  .+.! Z v  .^.*X}.^.G.D.",
"! 4 g F K z 5 z y.I.!.W.!.oX{.Y.z  .6.t.t.$.+.E T W P ^ :.c.N.:.T n.W.{.I.K.p.I.{.}.W.F.K.'.@X:X+X,XY.z ! ~ E x v o.L.|.&X!.7.7.",
"$.k @ 4 $ 5 z k $.n.n.n.U.Q.oX.XE O.$.y.t.r.B.c.v.~ y :.T.W.W.m.( p.I.[.I.K.d.p.[. X(.z.t.B.B.'.Q.OXoX/ +.-.! k D %.a.s.H.S.+...",
"! b o % 4 d K k b 4.K.H.E.).T.V.! $.%.:.t.u.z.V.R.j.( K.#X{.P.OXe.t.n.K.J.J.J.p.p.F.m.( / m.n.m.U.OX$X=...5.+.9 c <.7.8.-.! Q F ",
"F N 4 4 d h } n d T c.F.P.#XT.M.E $.;.@.2.p.z.C.XXv.;.n.T.I.K.OXm.%.y.K.K.K.K.p.*.&.*.E W m.m.z.B.Q.'.` N 7.*.6 = o.7.<...Q ! J ",
"N x k h g p ' B j e ~ 4.F.oX).Y.Q O.y.1.[ J.K.B.A.l.Q +.W n.Q.W.T.:.n.D.W.W.I.y.*.E @.@.T x.Y.z.v.v.:.T d $.>.q @ c 8.-.........",
"Q b 9 g a g M h D h 8 k F _ =.M.~ Q :.#.J ! :.e.0.=.+.:.+.4.{.Q.'.e.i.L.B.p.@.*.5.5.4.:.+.*.R.z.=.>.@.Z v F o.l & $ b Q F >.o...",
"N A 8 a s h j g H j 3 3 0 y R b.~ K @.D k z P P I W @.m.y.5.Q.oX'.y.4.D.y.:./ *.y.p.y.*.&.E l.y._ ! ~ D v k F v 4 o 5 k k ..Q C ",
"h Z w h j g j m M F v f x b ~ *...! E 9 d z A Z Q z ~ K.K.y.x.|.{.B.+.:.w.e.y.c.y.7.+.! +.x A =.! F T b k k x r 3 $ 5 4 7 l l 0 ",
"d v d j j g B M h K +.2.:.y.i.D.i.y./ A / y.y.n.B.=._ y.b.c.z.T.{.B.*.*.y.y.y.n.n.7.-.$.b 3 z _ E F b M h b :.P r & $ O O & 6 k ",
"8 z B B j n B M D ! 6.d.i.L.D.!.P.P.p.*.e.K.T.{.%X.XB.&.-.b.i.c.W.c.e.w.J.t.y.t.y.5.-.~ x 6 c ! ~ F v v k ..E.x.>.R q $ o 4 x Q ",
"9 F ;. .F D N v $.#.2.t.4.i.u.S.^.~.[.z.*.y.(.W.#X2X%X` +.5.:.:.B.:.e.P.I.i.%.*.;.5.&.b ! b v F ~ F N v k -.`.).oXoXh.t 9 T -.:.",
"2.D.W.W.U.J.5.M u.3.1.6.2.y.p.u.d.d.K._ &.t.W.K.W.R.+XT.~ y.e.y.e.+.i.P.W.c.*.%.*.+.~ m.W.:.v A ! T b N c  .H.U.).oXQ.>.a ~ $.~ ",
"L.(.[.|.#X XJ.M 3.2.1.3.2.6.i.t.t.t.d.W @.d.P.K.K.B.'.+XU =.y.y.&.P i.L.K.n.:.+.( &.p.-X<XK.b b Q C N F v  .5.m.m.E.Q.9.d  .+.W ",
"P.J.c.J.I.@XW.v #.o. .2.+.$.3.%. .+.p.( O.P.P.'.'.R.W.OX` E K.c.&.r 3.F.n.t.4.! F w.>X3X1XR.z Z C N D b F %.-.z.9.F.U.&.h +.$.$.",
"n.p.y.n.J.[.K.k K J v Q +.#. .Q F G ! ! v p.D.(.=X%X{.{.k.+.{.OXT.E v e.:.;.! T ;.G.*X<X<X'.r Z v z D l Q 7.q.z.z.F.U.^ h -...$.",
"J.D.D.L.L.~.P.d v Z h M F F ! J F N N ! r *.y.D.@X:X#XU.c.:.{.,X#Xy.d ~ &.( L A i.L.P.#X$XQ.r k z 8 k l o.D.b.i.b.S.E.&.a -.$.-.",
"~.I.~.(.(.}.{.z d F J f z d E ! N Z v ! x +.;.+.n.{.{.c.:.;.K.$XOXI.A P ( _ U S 4.n.c.P.{.W.t e k > 4 q 8.F.x.5.y.b.E.b.9 4.5.4.",
"}.[.}.}.~.[.@XT F x e e k z z x z Q E t >.5._ P P &.c.:.;.;.D.W.W.'.z.x ( B.U._ $.i.P.(.:X%XU M A 9 - $ ~ n.F.F.n.b.F.M.z -.5.5.",
"}.}.~._.I.(.[.F J Q r , 5 z r q r T T q 5.U.9.&.~ W W &.5.;.n.J.K.W.U.L *.|.#Xm.+.i.K.P.<XoX( ! @.! z 6 y :.F.F.F.b.z.U.z Q *.i.",
"(.~.L.~.I.(.J.d F &.l $ % 9 r k k k b v ..(.E.m.V.=.I / y.;.n.D.J.U.J.Y c.#X#XOX=.5.n.y.|.B.! %.t.i.:.R 6 T m.n.D.n.5.x.q 9 T 4.",
"].~.}.~.[.}.K.d B ~ l & % p z q r k b x a q.E.q.M.V.M._ ~ ] c.i.J.W.c.L e.(.OX:Xx.@.z.W *._ ..t.$.2.4.&.E z E q.i.5.>.R # + 9 F ",
"|.}.&X}.|.*XK.9 h R d 4 7 p l r r k l a > F m.k.0.M..Xl.W J n.:.b.K.j.L ;.W.{.:Xl.A &.T P E Q $.+.O.*.%.+.b r &.z.^ P r # # 9 d ",
";X*X*X>X*X{.y.8 e Q d 8 a a M x 9 r 9 > 4 9 j.x.` h.XXR.=.J m.y.5.B.9.Y @.J.W.OXe.r Q +.F ;.P Q O.+.;. .! ! 6 A _ x 8 8 8 h c h ",
"=X;X>X X[.e.t.Z > b b 8 p 7 8 c c k 8 9 - @ Q k.x.z.E.).v.T e.P.P.c.W l A *.V.N.) ~ O.;.~ %.*.Z O.4.O.+.Q T G t 6 > d v v D B F ",
"|.[. XW.b.O.4.%.k 9 z 7 a 7 4 9 d k z d 9 > e &.b.y.K.Q.Z.*.;.P.B.:.T y b x h.h.P +.+.:.$.;.w.! J 2.O.O.K J ! t o : n K J D v d ",
"p.t.D.c.+.3.4.i. .6 6 8 p 4 7 4 8 h K v ! ~ 6 P :.5.q.F.Z.v.+.y.:.E E I x r Y _ Q +.;.$.%.:.4.;.Z ! +. .! H A e o < M K F j a # ",
"W A x +.O.6.4.2.-.b k r 7 8 a a = v +.! P.@X=.9 T _ >.*.:.N.L W T E ! ~ ! I i l +.+.@.+.! ;.t.4.! A +. . .J Z 9 & 8 M j > * 7 & ",
"_ W 0 N [ u.4.%.+.! @.+.M N D N 4 h ..5.|.,XoXE z C ~ _ ^ h.x x A Q ~ +.Q / I 6 J J Q F z J *.@.~ F ! ! Q v e d 5 > = s 2 % 8 c ",
"c.v.R c B %.;.$.E #.G.F.4.5.;.:.v k ..E.`.@X1XQ.C k T ~ W U x v T Q  .-.N / ^ 3 z z v P z e F F J T A J M d 8 h c 5 . < n 7 a ..",
"n.m.M.E 8 K +.G Q 3.D.P.D./.P.W.b.v 5.!.K.F.oX:XY.k 9 P t r P A l ! D @.Q W W 5 @.$.+.*.O.A b F e r 5 d f j j j B D 4 & d 9 b 8.",
"F.b.Q.l.k v +.v ! u.L./.!.(.P.W.(.T S.P.H.z.F.Q..X9.u 6 r z F b N Q J Q F P V d %.i.y.y.y.+. .O.J z % g m H B { H D x ; e N ~ o.",
"K.q.E.OX&.z  .M [ d.P.~.~.U.F.n.Q.&.7.U.K.n.b.b.Q.+XW O e F b b D F N v v x y N +.p.D.t.i.u.u.6.3.G = m { [ H { ' v K 5 9 ....o.",
"K.D.K.OXoXW ! #.[ 3.i.g.L.P./.K.U.~ -.E.P.F.n.F.oX+Xx.3 v T x d v v D b 9 r l $.4.;.b.y.t.;.%.K ] F : 2 m [ H j { { [ e l T R -.",
"W.F.P.W.%X:.J 3.<.#.$.3.i.K./.!.F.~ -.E.E.F.F.F.W.oXV.e k z r d k c b v r r z 5.i.5.i.i.%.$.+.D D x < 2 g H j 1 f H J k q l N ..",
").D.T.n.oXz.N 6. .J ] +.>.4.b.D.U.^ 5.E.).K.K.K.m.U.:.d 9 9 9 r d d d z k r z 7.G.p.b.p.;...! J j e > g g j 2 = : h B c q q n ~ ",
"@XW.U.m.m.=.d X.N a c J F F Q ~ F.&.8.P.).E.K.m.v.v.l 5 5 5 9 q 9 d k 6 9 u v 7.F.y.5.;.;.! ! F H e : g j M h 7 < 1 p c C N C R ",
"b.z.:.9.:._ 8 Q v d a c b k r k 5.W  .b.H.Y.E.m.m.=.- - 4 5 9 9 9 k r 5 9 6 M $.q.-.&.! ! ! E D J e % s s j h > * < 7 q C ~ R R ",
"R I P ^ =.~ < ! b z a 9 b e 9 6 >.Q F >.F.E.E.m.E.) o % & 5 8 8 e e e 9 q 9 B E :.~ ~ E b E J D v 6 + 1 2 h w % * : 7 4 Q ..R ~ "
};
