/* XPM */
static char *_547_ed71b221b6c3fab5c17d45b45f909fbe948983048c8ce31c986c53e7700cf7e3[] = {
/* columns rows colors chars-per-pixel */
"64 64 182 2 ",
"   c #38271A",
".  c #3F291B",
"X  c #49301F",
"o  c #55351E",
"O  c #5F3D1E",
"+  c #423324",
"@  c #4A3A2A",
"#  c #523621",
"$  c #573922",
"%  c #5B3D23",
"&  c #513E2A",
"*  c #633F23",
"=  c #5F4126",
"-  c #52402C",
";  c #5C422C",
":  c #5A4432",
">  c #644427",
",  c #6B4625",
"<  c #644529",
"1  c #684729",
"2  c #6C4A2C",
"3  c #714D2B",
"4  c #784F2B",
"5  c #6D532F",
"6  c #71502F",
"7  c #7A532E",
"8  c #674B33",
"9  c #654E39",
"0  c #734F34",
"q  c #6C5335",
"w  c #6A553A",
"e  c #735333",
"r  c #795632",
"t  c #7D5B35",
"y  c #795739",
"u  c #735A3E",
"i  c #7B5B3B",
"p  c #6E5A42",
"a  c #735D43",
"s  c #7D5F41",
"d  c #7D6345",
"f  c #746148",
"g  c #7E664A",
"h  c #825C35",
"j  c #8C5F32",
"k  c #815D39",
"l  c #8B6237",
"z  c #85623C",
"x  c #89653E",
"c  c #986B3C",
"v  c #805F40",
"b  c #826444",
"n  c #8C6744",
"m  c #866946",
"M  c #8C6B45",
"N  c #836649",
"B  c #836B4D",
"V  c #8A6D4B",
"C  c #936D44",
"Z  c #996F41",
"A  c #936F4A",
"S  c #8F7046",
"D  c #8D714B",
"F  c #977347",
"G  c #94734A",
"H  c #9A744B",
"J  c #9D794E",
"K  c #896F50",
"L  c #8D7554",
"P  c #887458",
"I  c #947652",
"U  c #987552",
"Y  c #967B55",
"T  c #9C7C54",
"R  c #957C5C",
"E  c #9B7F5A",
"W  c #A17749",
"Q  c #A37B4D",
"!  c #A97D4E",
"~  c #A37E52",
"^  c #AA7F51",
"/  c #927D63",
"(  c #9D825B",
")  c #A68155",
"_  c #AA8456",
"`  c #A3845B",
"'  c #AA865B",
"]  c #A7885D",
"[  c #AC8A5D",
"{  c #B28C5C",
"}  c #BA8F5F",
"|  c #B6915C",
" . c #B9905D",
".. c #9C8463",
"X. c #9F8864",
"o. c #998369",
"O. c #9E8C69",
"+. c #A28662",
"@. c #A58A64",
"#. c #AB8C63",
"$. c #A38D6B",
"%. c #AA8E6A",
"&. c #B38E63",
"*. c #B88F60",
"=. c #AE9067",
"-. c #A6916D",
";. c #AB926D",
":. c #B39265",
">. c #BA9364",
",. c #BC9A67",
"<. c #B3946B",
"1. c #BA966A",
"2. c #B59A6D",
"3. c #BC9B6D",
"4. c #A69472",
"5. c #AC9572",
"6. c #AE9875",
"7. c #AB9779",
"8. c #AE9A7A",
"9. c #B29672",
"0. c #B49B74",
"q. c #BA9D73",
"w. c #B49D7A",
"e. c #BA9E7A",
"r. c #B7A075",
"t. c #BBA174",
"y. c #B6A07D",
"u. c #BCA27C",
"i. c #BEA87E",
"p. c #C09A67",
"a. c #C39D6C",
"s. c #C19E72",
"d. c #C5A16E",
"f. c #C8A26F",
"g. c #C5A374",
"h. c #C9A574",
"j. c #C7A877",
"k. c #C9A977",
"l. c #C4A57B",
"z. c #CAA67A",
"x. c #C5AA7C",
"c. c #CAAB7D",
"v. c #D0AE7D",
"b. c #CCB07F",
"n. c #D1B17E",
"m. c #B5A385",
"M. c #BCA582",
"N. c #BEA984",
"B. c #BFAB8B",
"V. c #C1A681",
"C. c #C4AC83",
"Z. c #CBAE82",
"A. c #C3AE8B",
"S. c #CBAE8A",
"D. c #D1AE82",
"F. c #C7B085",
"G. c #CDB284",
"H. c #C6B18C",
"J. c #CDB48B",
"K. c #CFB88E",
"L. c #D2B485",
"P. c #D5B986",
"I. c #D8BA85",
"U. c #D2B68A",
"Y. c #D4BA8C",
"T. c #D9BE8D",
"R. c #CBB692",
"E. c #CFB991",
"W. c #D2B791",
"Q. c #D4BD92",
"!. c #D8BF92",
"~. c #D5BE99",
"^. c #D7C08F",
"/. c #DAC08E",
"(. c #D7C095",
"). c #DAC194",
"_. c #D7C19A",
"`. c #DAC49B",
"'. c #DDC89E",
"]. c #DAC6A1",
"[. c #DDC9A2",
"{. c #D9C8A8",
/* pixels */
"C.Z.C.Z.F.c.x.c.x.Z.Z.x.Z.Z.C.c.c.Z.c.Z.c.Z.J.G.Z.G.S.G.J.K.H.J.J.J.R.H.K.H.K.J.K.H.E.J.J.J.J.S.Z.G.G.S.F.J.J.G.H.J.F.F.Z.G.S.H.",
"C.5.$.Z.x.Z.F.Z.Z.c.c.Z.Z.Z.S.Z.F.F.F.G.H.S.F.G.G.H.H.G.F.Z.Z.Z.C.Z.Z.Z.Z.Z.Z.Z.Z.Z.Z.C.c.C.c.Z.C.c.C.Z.C.Z.Z.c.Z.Z.Z.Z.Z.O.8.F.",
"l.t.r.x.Z.F.F.G.F.F.G.F.G.F.C.F.F.Z.b.F.Z.Z.c.F.Z.Z.Z.Z.Z.x.c.c.c.Z.c.Z.Z.c.c.C.Z.l.x.c.z.c.l.c.c.c.j.Z.Z.c.Z.x.x.c.c.c.j.e.g.Z.",
"x.j.j.j.j.j.j.k.j.j.j.j.j.j.j.c.k.k.x.c.x.c.c.x.c.c.x.Z.Z.c.Z.c.Z.c.c.c.c.Z.c.j.c.z.k.k.k.x.j.j.j.j.j.g.j.g.j.j.j.l.j.j.j.j.j.j.",
"C.c.b.x.x.b.x.k.k.j.k.k.c.c.c.x.j.c.c.k.k.c.c.b.Z.Z.Z.Z.G.G.G.J.H.G.G.Z.Z.Z.F.G.b.G.F.G.G.F.G.F.G.G.G.Z.Z.Z.b.b.b.b.F.b.F.F.b.b.",
"F.0.5.F.G.b.F.b.F.b.J.G.G.G.G.Z.b.J.J.J.J.J.J.J.J.J.K.J.K.K.K.K.W.E.E.K.K.J.J.K.J.J.G.G.G.G.G.F.G.G.G.F.G.F.G.F.F.F.F.G.G.5.r.G.",
"F.u.0.b.b.G.G.b.G.L.J.G.J.J.J.J.J.J.J.K.K.J.J.J.J.J.J.J.K.J.U.J.U.E.E.U.U.K.U.J.K.J.J.J.P.K.^.J.K.K.K.J.J.U.K.K.L.J.J.J.J.0.u.J.",
"w.w.y.y.r.8.r.8.5.;.5.;.5.5.6.0.0.0.2.0.0.t.u.u.u.u.u.u.e.e.e.e.e.e.u.u.w.e.0.e.r.0.r.0.8.w.6.6.4.%.%.5.;.;.;.5.8.0.0.0.y.y.0.r.",
"N.N.r.u.u.i.N.4.u V D V D K - o * , 3 , 6 k t t h h h y * h * h r 4 r 3 6 7 r t 7 3 3 < < 1 = #   + ( @.@.( ( f R 0.e.e.u.e.e.i.",
"H.L.k.b.b.K.Y.u.( t.x.j.2.;.0.x j Z W A I &.{ [ _ { { *.^ ^ ^ ^ _ _ ' ~ ' _ _ [ _ Q W V D G S 5 - O.4.i.x.g.t.L ..k.Z.c.Z.g.j.J.",
"G.6.t.b.b.i.y.r.` k.F.J.0.-.G.V.Q Q { ' $.C.g.j.s.h.s.S.V.s.a.p.s.s.s.s.l.a.a.l.3.>.{ ..( ] D w ;.G.4.r.k.k.t.L +.q.5.c.Z.q.5.Z.",
"G.4.2.b.b.w.r.i.] x.b.K.J.J.G.K.C.' _ #.;.Z.c.c.h.c.D.S.V.z.z.s.s.s.z.V.Z.g.g.C.g.1.:...( D p 5.L.K.G.x.b.b.x.L +.0.5.j.Z.q.$.G.",
"K.G.k.G.b.J.J.u.] 2.2.b.K.^.J.J.P.F.#.` ;.F.F.b.c.G.J.W.Z.V.z.s.Z.V.V.D.S.z.z.C.t.<.:.R B f 6.L.K.G.b.b.F.9.0.L +.G.c.c.Z.j.Z.J.",
"H.G.b.b.b.L.P.u...2.4.n.b.K.^.K.J.K.J.$.@.Z.b.G.b.U.K.Q.S.V.z.D.D.D.S.V.V.Z.C.C.t.:.] B p 0.K.Y.G.G.b.F.G.-.2.K +.F.Z.c.Z.h.c.J.",
"J.G.k.G.b.J.K.i.: @.b.J.K.J.E.(.J.G.Y.H.%.l.F.J.b.U.Y.Q.S.D.Z.D.D.S.S.e.m.Z.s.V.e.[ G a 8.Y.E.J.G.G.b.P.G.G.4.@ +.G.Z.c.Z.h.c.J.",
"J.G.b.b.b.J.J.F.e < =.b.P.K.G.K.(.Y.K.U.W.t.g.c.G.J.E.Q.S.S.D.Z.Z.S.D.e.e.z.s.M.<.G u r.Y.E.K.G.b.b.G.K.J.e.:   %.J.Z.Z.G.l.Z.U.",
"K.F.b.b.b.J.U.G.W h 3 =.U.Y.K.L.K.(.K.K.K.K.r.j.c.U.U._.J.S.Z.D.D.D.S.w.w.g.t.0.( d y.K.(.Y.G.G.G.G.G.K.V.m o X 5.G.G.Z.Z.j.Z.U.",
"K.J.c.b.n.U.K.J._ ! j 0 5.Y.U.Y.J.K.(.K.Y.(.(.t.g.G.U.W.S.U.D.Z.S.S.S.9.0.t.>.( g r.K.(.K.L.L.n.P.K.^.N.( z , o 5.K.Z.c.Z.z.Z.U.",
"K.G.Z.G.b.K.Y.J._ { { v 8 w.Y.Y.Y.L.K.^.^.K.(.Q.q.x.U.W.R.S.D.D.D.Z.C.<.5.2.T N y.Y.(.K.J.J.L.J.K.K.F.( I G 2 $ 5.J.Z.c.G.j.Z.J.",
"K.G.c.J.G.K.U.K.&.} p.@.y y e.Y.^.Y.L.(._.(.U.(.Q.l.l.U.S.Z.z.Z.V.V.l.;.;.) g w.(.(.(.J.L.L.J.K.Y.H.;.( ( T r % 6.U.S.Z.J.k.c.J.",
"J.L.b.L.G.P.K.K.&.p.p.9.U A 0 m.(.^.Y.J.^._.Y.Q.!.~.l.C.C.Z.z.z.s.s.s.%.( g M.Q._.(.K.J.J.L.Y.Y.K.r.2.@.+.E r % 6.U.L.Z.D.k.Z.U.",
"J.G.b.G.L.K.Y.Y.1.p.p.3.E *.n s y.(.(.Y.J.(._.(.Q.!.Q.V.s.z.s.s.s.s.<.~ g r.!._.E.K.L.L.U.Y.W.K.:.0.i.%.@.` y = 9.U.Z.Z.J.k.Z.U.",
"J.J.b.G.G.Y.K.K.1.p.a.D.s.s.&.A s r.^.(.(.K.(._.!.Q.~.].M.1.1.1.1.&.U / H.Y._.(.Y.Y.L.Y.Y.W.Y.2.| x.x.4.%.` t = 9.J.J.c.U.z.Z.U.",
"K.J.b.J.J.K.Y.Y.1.p.a.D.V.s.p.&.G i 2.Y.(.].(._.].~.Q.!.~.9.' &.#.U v S.Q.(.(.Y.Y.L.K.^.Q.Y.q.d.d.x.G.5.5.` t > <.J.U.Z.G.z.Z.K.",
"K.L.b.G.G.Y.Y.Q.2.p.f.D.D.s.a.s.<.A s q.T._.{.].].]._.(.).Q.` W n v M.!.~.!.Y.W.U.U.Y.Q.W.l.g.k.c.x.G.6.5.] i > %.U.U.Z.S.z.D.J.",
"J.J.b.L.G.Y.Y.Q.2.a.f.D.v.s.a.s.q.>.I i w.!._.]._._.'.(.(.(.J.M 0 M.).`.).Q.Q.Y.U.T.!.~.l.c.G.J.G.Z.E.7.5.#.k < =.U.U.Z.U.c.c.U.",
"K.U.b.L.J.Y.Y.Q.1.f.f.c.z.z.s.h.s.s.9.V a u.(.!._._._._.(.Y.F./ m.!.].~.T.Y.Y.L.W.Q.J.S.l.U.U.U.E.J.E.8.0.#.k < 9.U.U.D.U.z.b.L.",
"K.U.b.L.J.K.Q.W.1.a.h.h.s.v.h.s.s.s.s.%.L V u.T.(._.].'._.F.o.M.W.~.~.Q.Q.Y.U.!.~.W.p.s.J.Y.Q.W.Q.J.Q.7.w.#.k < 9.L.U.Z.U.c.Z.L.",
"K.U.b.L.L.Y.Q.Q.1.g.f.k.h.z.z.z.z.h.s.e.%.+.m u.T.T.)._.R.8.M.(.`.~.Q.Q.Y.U.!.!.~.s.a.D.E.!._.!.~.E.~.8.w.%.k < 9.L.U.G.U.c.L.U.",
"K.Y.n.J.J.Q.Q.Q.2.g.h.k.z.v.s.z.z.z.V.3.9.S.( b u.T.Y.C.O.A.!._.`.T.Q.T.Y.Q._.W.z.s.h.J.U.!.`._.Q.Q.Q.m.w.&.b 1 9.U.U.G.U.c.G.U.",
"K.U.G.J.L.Y.(.Y.,.a.h.v.z.z.z.h.z.z.D.e.9.J.l.U y 0.x.O.M.(.`._.Y.Q.T.U.Q.~.W.a.g.c.v.V.S._.]._.Y.W.~.m.m.=.v < 0.U.Y.U.U.v.D.U.",
"K.U.L.L.L.(.Y.Y.,.g.h.z.z.z.z.z.z.z.Z.e.w.S.V.q.z ; P N.)._._.T.!.T.U.Y.!.E.:.,.c.Z.D.M.A.`.]._.Y.W.~.m.M.<.x 1 e.U.W.U.W.c.G.U.",
"K.U.G.L.U.Y.!.W.p.f.f.v.D.z.z.h.z.z.C.V.u.F.l.q.A 0 M.~.].`.W.!.Q.U.Y.!.A.8.&.>.Z.D.D.V.A.'.].'.T.W.~.M.m.<.b 1 u.Y.Y.U.W.c.D.U.",
"K.P.L.L.L.Q.Q.U.p.s.f.D.Z.v.z.h.z.z.Z.M.e.C.e.` N V.~.`.~.!.!.!.U.Y.!.A.7.W.W.s.s.Z.v.V.J.].].~.Y.Y.~.m.N.<.x 1 m.Q.W.U.W.D.Z.L.",
"K.L.J.L.U.!.Q.Y.1.s.h.D.D.s.z.h.v.s.V.l.q.l.] B M.!.`.).W.!.!.U.Y.~.C.7.U.!.`.Q.s.z.z.U.~.'.].`.Q.Y.~.M.M.<.x 1 M.Q.Y.Y.U.D.v.L.",
"K.Y.L.L.L.Q.T.Y.a.s.f.z.V.D.v.h.z.s.s.q.0.$.K M.`.~.~.W.!.T.I.W.!.S.7.W.'.`.).`.].s.a.D.W.~.`.`.Y.Q.~.m.m.:.x 1 e.~.U.W.U.L.Z.L.",
"K.Y.L.L.Y.!.T.Q.s.s.h.z.z.z.z.s.s.s.q.<.E L u.!.`.!.T.!.!.U.T.~.A.7.Q.!.`.'.`.).`.`.a.s.J.(.]._.Y.Y.~.m.m.=.z 1 w.!.U.W.W.L.c.L.",
"K.Y.P.L.L.!.Q.W.1.s.h.h.V.z.z.a.s.1.&.E K M.!.`.~.T.Q.Q.I.W.!.S.o.Q.'.`.~.`.'.`.`.'.~.C.c.W._.!.U.U.!.m.w.=.z 1 9.Q.U.W.Q.L.D.L.",
"K.K.Y.L.L.!.Q.Q.p.f.f.h.s.z.s.a.1.&.~ L J.!.`.!.T.Q.Q.U.W.`.D.n 0 e.'.`.'./.`.].`.).'.].x.Z.Q.Q.L.L.U.B.M.&.z 1 <.L.L.U.U.L.c.L.",
"Y.Y.P.P.U.!.!.W.p.f.f.h.s.s.3.&.&.U v M.!.`.!.U.Q.!.I.U.~.W.} ! Z k l./.).).!.].].`.`.'.!.C.Z.K.G.L.J.R.C.%.z 1 q.L.L.Y.U.L.v.n.",
"E.Y.P.L.Y.^.Y.Q.1.g.f.z.g.1.1.{ H v M.!.~.!.Y.Q.!.P.!.~.!.s.p.} 1.H v s.!.T.Y.].].'.).).).'.x.Z.c.Z.J.R.N.#.h 1 m.U.L.U.U.L.v.L.",
"K.Y.P.L.Y.^.Y.Y.>.g.a.g.s.>.&.H v e.!.!.!.T.Q.!.P.U.!.~.1.a.f.a.s.a.~ v M.!.I.!.[.].[.).).`.`.V.g.x.Z.R.l.#.t 1 e.U.D.U.Y.D.v.n.",
"Y.U.L.L.U.!.(.L.:.a.,.g.0.{ U v M.!.!.!.U.Y.!.P.T.!.W.e.^ V.z.f.z.s.s.K s A.`.~.[.[.'.)./.).).).q.3.x.H.i.] t 1 1.U.D.L.U.L.v.L.",
"E.T.Y.L.Y.T.(.U.*.1.,.,.&.H v e.!.!.!.Y.I.!.I.U.).~.s.e.m.D.D.z.v.z.V.#.I A S.{.`.[.[.).).).).`.Q.1.2.S.t.] t > 9.U.D.L.Y.L.v.L.",
"Q.Y.I.P.P.(.(.L.[ :.} { U v q.T.!./.I.U.T.I.I.!.W.z.D.V.V.D.D.D.D.D.D.9.9.~ n A.[.'.[.`.)././.).`.(.2.w.0.` t > >.U.L.U.Y.L.v.L.",
"Q.Y.Y.P.L.(.(.U._ { _ J N q.T.!.!.U.Y.Y.U.U.!.~.h.v.U.S.s.!.D.D.D.D.D.e.M.V.~ n S.[.].[.`.).)./.^.).W.0.%.) 7 > <.I.L.U.T.L.v.L.",
"Q.Y.Y.L.L.(.).K.Q ) C b Z.T.!.!.I.T.T.L.U.Q.~.z.h.D.~.S.V.W.D.D.U.D.W.s.V.D.s.~ n A.[.'.[.`.)./.T.).).!.#.M 3 % :.W.L.U.T.L.v.L.",
"Q.Y.Y.L.I.!./.J.F n i q.T.!.!.P.U.Y.L.P.T.Q.z.v.D.I.~.S.V.W.!.D.U.I.W.D.B.D.D.s.~ M V.`.).'.`./.T.T.^.!.C.n O o 9.W.U.P.U.L.v.U.",
"Q.Y.T.L.L.(.(.G.i q 2./.(./.I.Y.U.I.n.T.Y.g.j.U.P.T.!.!.W.T.W.I.W.D.U.W.Q.U.v.c.g.T z q././.`.).)./.Y.Y.^.w.- . 0.U.U.P.U.L.v.L.",
"Q.Y.T.L.L.!.).C.9 <.^.(.Y.P.Y.Y.n.L.T.J.<.h.L.Y.P.Q.!.!.U.W.U.D.U.D.U.!.!.U.v.c.c.g.H i 2.I./.)./.)./.I.P.G.X.+ 5.Y.Y.P.U.L.v.L.",
"Q.Y.Y.L.I.^.).N.@.u.w.^.I.L.I.L.D.T.U.%.#.Z.L.T.P.T.!.`.U.D.L.D.I.D.U.Y.!.Y.v.v.c.j.,.m i t.I.T./.)./.I.b.O.;.w ;.Y.Y.L.P.D.v.n.",
"Q.T.^.I.L.(.).N.0.F.N.P.L.I.P.n.Y.D.*.=.w.D.Y.Y.D.U.!.!.W.D.D.D.D.D.D.D.W.L.v.L.L.j.a.@.D n t.I.^.).^.Y.n.t.2.u 5.I.L.U.U.I.v.I.",
"E.F.G.U.I.G.J.N.6.I.I.L.L.n.L.T.G.' { 3.t.b.L.J.D.U.Y.Y.G.Z.D.z.z.z.D.D.L.Z.k.Z.c.z.a.%.#.( s 2.n./.^.U.G.b.2.q 5.Z.V.L.P.D.g.L.",
"U.4.i.L.P.y.r.A.;.L.L.I.e.;.I.Z.^ ! } 1.t.k.b.b.z.v.b.J.z.h.s.s.h.s.s.D.G.g.f.j.l.g.p.#.=.2.S 5 2.n.O.i.G.b.r.q %.q.5.L.L.h.$.J.",
"Y.Y.^.I.I.^.(.N.:.L.n.n.l.x.l.F c Q _ #.1.3.t.d.p.d.t.g.9.>.*.*.p.<.p.s.g.1. .2.2.1.} ` ( 2.] t ; ] 2.d.k.i.<.5 %.I.L.L.L.v.L.Y.",
"H.N.F.i.i.F.H.7.L =.#.%.;.%.m k l F H ` ] [ [ #._ [ [ :.#.^ ^ ~ ~ ~ ^ ^ =.' _ ' ' ) ~ I J ( ( S ; & L ( ( Y V - / l.V.l.C.t.V.S.",
"B.N.i.i.i.i.i.i.r.t.r.r.t.x.C.H.K.R.R.K.K.F.b.L.L.L.K.!.(.U.L.G.S.S.U.W.W.D.U.D.J.L.G.G.G.G.G.G.H.N.N.N.N.i.r.w.l.V.C.A.A.B.H.H.",
"^.i.r.P.^.^.^.^./././././.`.`.`.'.).`.)./.n.n./.).`.`.'.[.`.)./.!.!./././././.).(.`.'.[.'.`.`.).`.).).)././.`.^.).T.I./.).M.i.).",
"^.i.i.^.^.^.^.^.^.^.^.^.(.(.`.).^._.'.'.).^.^.^././.)./.).).(.`.`.).`.`.`.`.'.`.'.'.`.(.^.I.L.I.I.I.I.I.^.Y.^.^.T.Y.T.^.^.i.x.).",
"(.^.^.^.P.P.P.^.P.Y.I.Y.I.I.I.^.^.^.(._.).`.).^.^.(.(.).`.).(.(.!.`.!.!.!.`.).!.(._._.^.(.(.(.(.^.(.(.^.(.).(.^.).).).(.(.(.(._.",
"H.^.F.b.I.b.b.I.b.^.b.P.J.P.G.P.b.P.^.G.P.^.P.^.U.Y.Y.Y.Y.P.K.P.K.Y.Y.Y.U.Y.Y.Y.^.^.^.^.K.^.K.^.J.Y.K.Y.^.^.^.^.^.^.^.^.^.^.G.^.",
"F.i.i.b.b.b.b.b.b.b.G.b.b.G.F.b.b.b.b.b.F.F.F.L.G.b.G.b.b.b.b.b.b.G.G.G.D.D.G.G.b.b.x.b.b.b.b.b.b.b.b.b.b.b.x.b.b.b.x.b.x.r.r.F.",
"i.r.r.i.i.i.k.i.i.i.x.x.x.b.x.x.x.x.x.b.x.x.x.x.x.x.b.x.x.b.x.x.x.x.x.x.x.Z.x.x.x.x.x.x.i.x.x.F.x.x.x.x.b.x.x.b.i.i.x.x.x.O.4.b.",
"2.2.2.2.t.2.2.2.t.t.r.2.t.r.t.r.t.t.r.r.r.i.t.r.t.t.i.t.t.t.t.t.t.t.t.t.t.t.t.t.2.t.t.2.t.t.t.t.r.t.r.r.2.r.2.r.r.r.r.r.r.2.2.r."
};
