/* XPM */
static char *_2800_42760f4d766d52e7d5865ebef0fdcfe2600c6baec04e04637821df71b71f65b1[] = {
/* columns rows colors chars-per-pixel */
"64 64 56 1 ",
"  c #2C2B25",
". c #312E25",
"X c #3C2C25",
"o c #302F2C",
"O c #37352E",
"+ c #39352E",
"@ c #3D392D",
"# c #442D25",
"$ c #423126",
"% c #4A3127",
"& c #40352E",
"* c #4B352E",
"= c #433D2C",
"- c #54352E",
"; c #5B352E",
": c #632F27",
"> c #662E28",
", c #762F28",
"< c #663027",
"1 c #63352E",
"2 c #6C352E",
"3 c #73352E",
"4 c #7B352D",
"5 c #4E4327",
"6 c #47402B",
"7 c #4B4128",
"8 c #524726",
"9 c #853F27",
"0 c #83352F",
"q c #8C352F",
"w c #93352F",
"e c #9C352F",
"r c #97392C",
"t c #9B3A2C",
"y c #A4342E",
"u c #AC352F",
"i c #A43C2B",
"p c #AA3C2C",
"a c #B3352F",
"s c #BB352F",
"d c #B63A2E",
"f c #BE3E29",
"g c #BD3A35",
"h c #CA2E2B",
"j c #C5352E",
"k c #CB352F",
"l c #C53D2C",
"z c #C93A2D",
"x c #CB3630",
"c c #C63C36",
"v c #C53E38",
"b c #904226",
"n c #BA4427",
"m c #BD4228",
"M c #C4412B",
"N c None",
/* pixels */
"hhhhhhhhhhhhhhhhkhhhhhhhhhhhhhhhhhhhhhhhhhhhhhhhhhhhhhhkhkkhkhhh",
"kkkkkkkkkkkhkhkkkkkkkkkkkkkkkkkkhkkkkkkkkkkkkkkkkkkkkkkkkkhkkkkk",
"kkkkkkkkkkkkkhkkkkkkkhkhkkkkhkkkkkkkkkkkkkkkkkkhkhkkkkkkkkkkkkkk",
"kkkjjjkjjkjjlzjzjjjjjjjljljhjkkxkkkkjhjkjkjjhjkjkjjjjjkjhjljkkhk",
"khNNNNNNNNNNNNNNNNNNNNNNNNNNNNxkNNNNNNNNNNNNNNNNNNNNNNNNNNNNNkkk",
"kkNNNNNNNNNNNNNNNNNNNNNNNNNNNNjkNNNNNNNNNNNNNNNNNNNNNNNNNNNNNkkk",
"kkNNNNNNNNNNNNNNNNNNNNNNNNNNNNkkNNNNNNNNNNNNNNNNNNNNNNNNNNNNNkkk",
"kkNNNNNNNNNNNNNNNNNNNNNNNNNNNNkkNNNNNNNNNNNNNNNNNNNNNNNNNNNNNhkk",
"kkNNNNNNNNNNNNNNNNNNNNNNNNNNNNkkNNNNNNNNNNNNNNNNNNNNNNNNNNNNNkkk",
"kkNNNNNNNNNNNNNNNNNNNNNNNNNNNNkkNNNNNNNNNNNNNNNNNNNNNNNNNNNNNkkk",
"kkNNNNNNNNNNNNNNNNNNNNNNNNNNNNkkNNNNNNNNNNNNNNNNNNNNNNNNNNNNNhkk",
"kkNNNNNNNNNNNNNNNNNNNNNNNNNNNNkkNNNNNNNNNNNNNNNNNNNNNNNNNNNNNkkk",
"kkNNNNNNNNNNNNNNNNNNNNNNNNNNNNkxNNNNNNNNNNNNNNNNNNNNNNNNNNNNNkkk",
"kkkkxkkkkkkxkkkkkkxkkkxkxkkkkkxxkkkkkkkkkkxkkkkxkkxkkkxkkkkkkkkk",
"kkkkkkkkkkkkkkkxkkkkkkkkkkkkkkkkkxkkkkkkkxkkkkkkkxkkkkkkkkkkkkkk",
"kkMjkkxkkxkkxkkkkxkkxkkkxkkxkkhkkkkkkkkxkkkkkxkkkkkkkxkkkxkllkkk",
"MMmllklzxkjzkkMkkkMxxklkklzkkkkkkkxkzkkklkkjlkklzxkllkkMxzMlmlzk",
"mlMlnzmlxknzklnkklnkklMkkMMkkkkkkkklnzkjnzklMkkMmkkMlkknjzllMmlk",
"kkmjkkkkkkkkkkkkkkkkkkzkkkkkkkkkxkkkzkkkkkkkkkkkkkkkkkkkzkklmkkk",
"kkkkkkkkkxkkkxkkkxkkkkkkkkkkkkkkkkkkkkxxkkkkkkkkkkkkxkkkkkkkkkkk",
"kxkkkkkkxkkxkxxxkkkxkkkkkkkkkkkkkkkkxxxxkkkkxxxxkkkkkxkkkkkkkkkk",
"kkkkkkkayxkkxxxeakkkkkkyakkkkkkkxkxkxuuxkkkkjeakkkkkxyskkxkkkkkk",
"kkkxxkkw3jkkkkj2qxkkkkj2wkkkkkkkkkkkj00zkkkks1exkkkxa2ekkkkxkkkk",
"xkkkkkx41skxkka-2jkxkxs10kkkkkkkkxkkj32jxkkxu-4jkkkka-qkkxkkkkkk",
"kkMzxkkw2sxkkka*1jxxkkj2qkkkkkkhkkxxk04jkkkxu&3kkkkxs1wxkkzllkkk",
"MMMlMkle3jMzkkn@-dlxkzl3qclkkkhkkxxzMw4jlkkli&1slkxls2eMzzMlMlzk",
"flMlnznr2jmzxkb&*tmkklm3qmlkkkkkkkxknq4lmkxfb+-ilkxmf2emjlMjMmlk",
"kkmljkke2jkxaw;++;qaxxj40jkkkkkkkkkkxq4jkkaq*O+1wsxxj2exkkklmkkk",
"kkkkkkke2jjq;@OOOO+-qsj30kkkxkkkkkxkjq3jsq-+O+OO&;wjj2wxkkkkkkkk",
"kkkkkkxe2a3&OO++++OO+2a40kkkkkkkkkkkxq4a2+OO+O+++O&3a2wxkkkkkkkk",
"kkkkkkky;2+O+++OO+++++110kkkkkkkxkxxxq1;++O+O++OO+O+1;rkkkkkkkkk",
"kkkkkkke&++++OO++OOO++O+0kkkkxkkkkxxxq&+OOO+OO+O+++++&wkxkkkkkkk",
"kkkkkxxe&OO++OO+++++O+++0kkkkkkkkxkkkq++O+++O+++++O+O+wxkkkkxkkk",
"kkMjkkke&OO+OOOOOOO++O++0kkkkkhkkkkkkw++O+OOOOOOOO+O+&wkkkxllkkk",
"MMMllkMe+@=+++6+O@=++@=+0lzzkkhkkxkkMq+&=OO==+O@&OO=&+rlkzMllllx",
"MlMlnznt&@5@O=5++=5++=7@0Mlkkkkkkkkznw+=5++=7O+76+O5=&qnlzmlMMlx",
"kknlkkke&O++OO+O+O++O+O+0kjjjkkkkkjjjq++O+O+O+++O+O++@wkkkklmjkk",
"kkkkkkke&O++O+++O++O+OO+0a,:<ekks,::wq+OO++O++OOOO+O++ekkkkkkkkk",
"kkkkkkke&OO+OOO+++OO+O++0yX  ,kka#  <q++O+++O+O+O+++++wkkkkkkkkk",
"kkkkkkke&O+O+O+OOO+O+OO+0yX. ,kka#O >q++O+OO+O+O+OO+++wkkkkkkkkk",
"kkkkkkke&O+++O+++O+O+OO+0y$ .,kka# .20+++++O+O++O+O+++wkkkxkkkxk",
"kkkkkkke&OOOO+++++++O+++0sq49pkklq,0iq&+OOO+O++OO+O+++wkkkkxkkkk",
"kkMzxxky&OOO+OO+OOOOOOO+0kkgckkhkkfvkw++OOOOO+OOOOOO++wkkkkMMkkx",
"MlmllxMt&@=+O@=+O@=+O=&@0lljkkkkkkkxMq&&=+O&=+O==OO6&&wlzkMMlMkk",
"mlMlnznt&@5@+@5+O=5++=7+0mlkkkkhxkkjnq+=5+O=7+O76++7=+wmlzmzMmlk",
"kzMjkkje&++O+O+OOOO++O++0kkkkkkkkkkkzq+++OO++++OOO+O+&ekkkklmkkk",
"kkkkxkxe&++O+OOO+O+O++++0kkkkkkhkkkxkw+++OOOOO++O+OO++wkkkkkkkkk",
"kkkkkkke+O++O+++O+++++++qkkkkkkkkxkkkq++O+OO++OO++O+++wkkkkkkkkk",
"kkkkkkke&OO+OO+++O++O+++0xkkkkkkkkkxkq++O++OOO+O+O+++&wxkkkkkkkk",
"kkkkkkke&OO++O+O+O+OO+++0xkkkkkkxkkkkw++++O+OOO+O++O++wxkkkkkxkk",
"kkkkkkky&+++O++OOOO++O++0kxkkkkkkkkkxq+++OO+++O++OOO+&wkxkkkkxxk",
"kkMzkkke+++O+OO+++O+OOO+0kkkkkkkkkkkxq@+OOOOOO++O++O++wxkkxzMkkk",
"Mzmllkzr@+6+O+6OO@@+O@=+0ljkkkkkxkkklq+&=OO@@+O@@O+&@@wlkzMlllzk",
"mMMlnznr&+8@+&8+O=5++65+0mlkkkkkkkxlnq+=5++65O+7=++5=+rnljmlMMlk",
"kkmlkkke&+++O++OO+++++++0jxxkkkkkkxkkq@+++++++++@++++&wkkkklmkkk",
"kkkkkkke@OOO+O++++OO+O++0xxxkkkkkkkkxq+OO+OO+O+O++OO++wkkkkkkkkk",
"kkkkkkke&O++O+OOO+O++OO+qxkkkkkkxkkkkw+++O++O+O+++O++&wkkkkkkzkk",
"kxkkkkke&OOOO++OOOOO++O+0kkxkkhhkkkxxw++O++OOOOOOO++O+wkkkkkkkkk",
"kkxkkkke+OOOOOOOOOOOOOO+0kkkkkkkkkkkkq++OOOOOOOOOOOOO+rkkkkkkkkk",
"kxkkkkky;;--------------wxkkkkkkkxkkke;--------------;ekkkkkkkkk",
"kkMlkkkksssssssssssjssssjxxkkkkkkkxxkjssssssssssssssssjkkkkzMkkk",
"MzMlMkzzkkzkkzlkkkMkkklkxljkkkkkxkkzlxxkzkkzzkklzkxlzkkzzzMllMzk",
"mlMlnzMlklnzklnkklnkkMmkkmMkkkkkkkkznzklnkkMmkkMmkxMlkknlkmllmlk",
"kknlkkzkkkkkkkkkkkkkkkkkkkkkkkkkkkkkkkkxkkkkkkkkkkkkkkkjkkklnkkk"
};
