/* XPM */
static char *_355_9a2713cb602f5e888f1f8e4e5e06857893c344de99e98f213697cba2277254ad[] = {
/* columns rows colors chars-per-pixel */
"64 64 86 1 ",
"  c #51739C",
". c #5276A0",
"X c #557AA4",
"o c #577EA9",
"O c #587FAB",
"+ c #5780AD",
"@ c #5A81AD",
"# c #5C85B3",
"$ c #5E88B6",
"% c #5F8DBD",
"& c #608EBF",
"* c #6591BE",
"= c #5F8FC0",
"- c #618FC0",
"; c #6592C3",
": c #6B96C6",
"> c #6B97C8",
", c #6D99CA",
"< c #749BC4",
"1 c #729ECF",
"2 c #7BA0C6",
"3 c #7EA2C8",
"4 c #76A2D1",
"5 c #7BA5D6",
"6 c #7CA7D8",
"7 c #7EA8D9",
"8 c #84A1C5",
"9 c #86A7C9",
"0 c #8EA9C8",
"q c #92AFCD",
"w c #83A7D0",
"e c #8FACD2",
"r c #82ABDC",
"t c #89AEDB",
"y c #91AED4",
"u c #8FB2DF",
"i c #9AB5D2",
"p c #94B4DC",
"a c #99B7DD",
"s c #99B9DF",
"d c #A7B9CF",
"f c #A4BAD3",
"g c #A0BAD8",
"h c #87B0E1",
"j c #8BB3E3",
"k c #93B6E4",
"l c #99B6E0",
"z c #96BAE6",
"x c #9BBAE3",
"c c #93B9EA",
"v c #9BBDEB",
"b c #9ABFF1",
"n c #A0BEEA",
"m c #ACC0D7",
"M c #BAC9DB",
"N c #9EC1ED",
"B c #9DC3F3",
"V c #9EC6F9",
"C c #ABC4E3",
"Z c #A2C2ED",
"A c #A8C6EC",
"S c #A7C8EF",
"D c #BACFEA",
"F c #BFD0E3",
"G c #A1C5F4",
"H c #A3C8F7",
"J c #ACCCF6",
"K c #A2C7F8",
"L c #A3C9FA",
"P c #AACCF9",
"I c #B1CFF6",
"U c #B9D1F2",
"Y c #C1CCDA",
"T c #C5D0DD",
"R c #C2D3E5",
"E c #C7D8EE",
"W c #CAD9EC",
"Q c #D2DAE2",
"! c #D9DDE3",
"~ c #D4DDEA",
"^ c #DBDFE9",
"/ c #DEE2E7",
"( c #D7E1EC",
") c #DBE1E9",
"_ c #E1E2E4",
"` c None",
/* pixels */
"````````````````````````````````````````````````````````````````",
"````````````````````````````````````````````````````````````````",
"````````````````````````````````````````````````````````````````",
"````````````````````````````````````````````````````````````````",
"````````````````````````````````````````````````````````````````",
"````````````````````````````````````````````````````````````````",
"````````````````````````````````````````````````````````````````",
"````````````````````````````````````````````````````````````````",
"````````````````````````````````````````````````````````````````",
"````````````````````````````````````````````````````````````````",
"````````````````````````````````````````````````````````````````",
"````````````````````````````````````````````````````````````````",
"````````````````````````````````````````````````````````````````",
"````````````````````````````````````````````````````````````````",
"````````````````````````````````````````````````````````````````",
"````````````````````````````````````````````````````````````````",
"````````````````````````````````````````````````````````````````",
"``````````````````````````epvvnvvzpp````````````````````````````",
"````````````````````````lBGJJPPLLLLHVzy``SLSJ```````````````````",
"``````````````````````gDPIE!^)~ILLLLLLBl0sKNHJ``````````````````",
"`````````````````````C~/W^_____^ULLLLKcBGGvbH```````````````````",
"```````````````````yA~__!_______~PLLLLkzzkkcKP``````````````````",
"``````````````````yGW___________)JLLLLcbGvzzvbA`````````````````",
"`````````````````yBJ~W~_________)JKLLKBvvBvGGk8`````````````````",
"`````````````````NLHkwQ_/_______(PLLLLLNBVKzckv`````````````````",
"````````````````xJER<<Q_________CVLLLLLvcjbcGGLb````````````````",
"```````````````uHE__q*Y________Y:hLLLLLLGvvBLLLLv```````````````",
"```````````````NGR_Q3%9Q_____/m*%,VHVVBVVLLLLLLLHa``````````````",
"``````````````zLr<i3&&-2dYYMd8&&&;hr1>&:<7cKLLLLLZ``````````````",
"``````````````BB>#O+#$$%&@@&&%&&&&&@+o#&#&#<kzVLLLa`````````````",
"`````````````xLB;@@oX     @@&&&&&&&&OX    Xo&tKLLLv`````````````",
"`````````````NLB;&--&&&$@@o&&&&&&&&#oO@&&&&&&:cLLHG`````````````",
"````````````yKLb;==%=--$#OOO&&-%&&&@oo#&&&&-%%,BLLG`````````````",
"````````````pLLB>%--&=-%$%-&&&=-&&&-&&&&&&-%-=%7VLLx````````````",
"````````````zLLc---%&&-=-=-=&&-%&&&&&&&&&&=-=&%;bLLN````````````",
"````````````vLK4--&&&&%==-%-%&&&&&&&&&&&=-%%&&-%hLHN````````````",
"````````````xLB>&-=&&-%-%-=&&&&=&&&&&&&&&&&-%-=%7LLA````````````",
"````````````xLc;-%&&&&-%-%&&&&-%&%&&&&&&&&-%-%-=5LLx````````````",
"````````````pHc&-%&&&&=--%&&-=-&&&&&&&&&&&=&=&%%rLV`````````````",
"`````````````VB>%-&&&&&%=-%-%-%&&&&&&&&&&&&&&&%;cLN`````````````",
"`````````````nL4%-&&&&&&&&-&&-=&&&&&&-%-=%-=&&%1GG``````````````",
"``````````````Lj-=&&&&%-&&%=-%%-&&&&&&-%&&&&&&;cLZ``````````````",
"``````````````nG5&&--=-%&&=-%&&&&&&&=&%&=-&&&;hHZ```````````````",
"```````````````vb5-%%%=-&&&%-=&&&&&&-%-=&%-%;uGx````````````````",
"````````````````lNc7,;--=%%%&%%&&$%&%%=-&-;5jz``````````````````",
"``````````````````NBBvcjrw77555557667rrtrrpp````````````````````",
"``````````````````````lxnnnGGGGZGGZZNZvxx```````````````````````",
"````````````````````````````````````````````````````````````````",
"````````````````````````````````````````````````````````````````",
"````````````````````````````````````````````````````````````````",
"````````````````````````````````````````````````````````````````",
"````````````````````````````````````````````````````````````````",
"````````````````````````````````````````````````````````````````",
"````````````````````````````````````````````````````````````````",
"````````````````````````````````````````````````````````````````",
"````````````````````````````````````````````````````````````````",
"````````````````````````````````````````````````````````````````",
"````````````````````````````````````````````````````````````````",
"````````````````````````````````````````````````````````````````",
"````````````````````````````````````````````````````````````````",
"````````````````````````````````````````````````````````````````",
"````````````````````````````````````````````````````````````````",
"````````````````````````````````````````````````````````````````",
"````````````````````````````````````````````````````````````````"
};
