/* XPM */
static char *_2556_361c30baa15b562f378becca22040444fd4ba2328b97ffb4406cb0f24ecb8f1d[] = {
/* columns rows colors chars-per-pixel */
"64 64 56 1 ",
"  c #5E91C7",
". c #6294C9",
"X c #6899CE",
"o c #6E9DD2",
"O c #709ED3",
"+ c #75A2D5",
"@ c #79A4D6",
"# c #7FA8D7",
"$ c #7AA6D9",
"% c #7DA8DA",
"& c #81A8D6",
"* c #84ADDC",
"= c #89AFDC",
"- c #87B0DF",
"; c #8CB1DE",
": c #92B4DE",
"> c #96B9DD",
", c #98BCDB",
"< c #87B0E0",
"1 c #8CB3E2",
"2 c #92B6E3",
"3 c #94B9E6",
"4 c #9ABCE6",
"5 c #97BBE8",
"6 c #9CBEE8",
"7 c #9DC1DC",
"8 c #A0C4DE",
"9 c #9FC1E9",
"0 c #A4C4E2",
"q c #ACCCE5",
"w c #A3C4EA",
"e c #A9C7EB",
"r c #A7C8EB",
"t c #ACCBEC",
"y c #B2CFEE",
"u c #B0D1E2",
"i c #B4D3EC",
"p c #BAD7ED",
"a c #BBDAEC",
"s c #B5D3F0",
"d c #B9D6F1",
"f c #BEDBF3",
"g c #C2DBEC",
"h c #C1DDF3",
"j c #C5E2F5",
"k c #C9E5F6",
"l c #CBE6F8",
"z c #CDE9F9",
"x c #D0E9F6",
"c c #D2ECF9",
"v c #D9EFF9",
"b c #DDF1FB",
"n c #E7F4FC",
"m c #EBF7FC",
"M c #F3FAFD",
"N c None",
/* pixels */
"NNNNNNNNNNNNNNNNNNNNNNNNNNNNNNNNNNNNNNNNNNNNNNNNNNNNNNNNNNNNNNNN",
"NNNNNNNNNNNNNNNNNNNNNNNNNNNNNNNNNNNNNNNNNNNNNNNNNNNNNNNNNNNNNNNN",
"NNNNNNNNNNNNNNNNNNNNNNNNNNNNNNNNNNNNNNNNNNNNNNNNNNNNNNNNNNNNNNNN",
"NNNNNNNNNNNNNNNNNNNNNNNNNNNNNNNNNNNNNNNNNNNNNNNNNNNNNNNNNNNNNNNN",
"NNNNNNNNNNNNNNNNNNNNNNNNNNNN+$*=1NNNNNNNNNNNNNNNNNNNNNNNNNNNNNNN",
"NNNNNNNNNNNNNNNNNNNNNNNNN=<<<112211121NNNNNNNNNNNNNNNNNNNNNNNNNN",
"NNNNNNNNNNNNNNNNNNNNNNN;=1132533522222=NNNNNNNNNNNNNNNNNNNNNNNNN",
"NNNNNNNNNNNNNNNNNNNNNN:22233333333333221&NNNNNNNNNNNNNNNNNNNNNNN",
"NNNNNNNNNNNNNNNNNNNNN;343333333333333332=$NNNNNNNNNNNNNNNNNNNNNN",
"NNNNNNNNNNNNNNNNNNNN,t53333333333333333321*NNNNNNNNNNNNNNNNNNNNN",
"NNNNNNNNNNNNNNNNNNN7yt63333333333333333332;&NNNNNNNNNNNNNNNNNNNN",
"NNNNNNNNNNNNNNNNNN,ipw433333333333333333353=@NNNNNNNNNNNNNNNNNNN",
"NNNNNNNNNNNNNNNNNNuir63333333333333333333352=NNNNNNNNNNNNNNNNNNN",
"NNNNNNNNNNNNNNNNN7dt3333333333333333333333252=NNNNNNNNNNNNNNNNNN",
"NNNNNNNNNNNNNNNN,it633335333333333333333333322=NNNNNNNNNNNNNNNNN",
"NNNNNNNNNNNNNNNNqdw3333393333333333333333333332NNNNNNNNNNNNNNNNN",
"NNNNNNNNNNNNNNNqat533335w53333333333333325333332NNNNNNNNNNNNNNNN",
"NNNNNNNNNNNNNNNaf9333359w33333333333333353333332NNNNNNNNNNNNNNNN",
"NNNNNNNNNNNNNNgki533524e933333333333333333333335>NNNNNNNNNNNNNNN",
"NNNNNNNNNNNNNNkxt33325et5333333333352333333333334NNNNNNNNNNNNNNN",
"NNNNNNNNNNNNNNxkw3335wde3333333333333333333333335:NNNNNNNNNNNNNN",
"NNNNNNNNNNNNNazkw323wdh93333333533333333333333333:NNNNNNNNNNNNNN",
"NNNNNNNNNNNNNgzkr35wykh433333333533333353333333332NNNNNNNNNNNNNN",
"NNNNNNNNNNNN7kzzswedhkt333333335N33333323333333332;NNNNNNNNNNNNN",
"NNNNNNNNNNNN0kzzhsdjzf9333333335N63333333323333352:NNNNNNNNNNNNN",
"NNNNNNNNNNNNazzzzkkzzy5333333333N333333333333333252NNNNNNNNNNNNN",
"NNNNNNNNNNNNjzzzzzzzzr33333333335533333333333333532&NNNNNNNNNNNN",
"NNNNNNNNNNNukcczzzzzjt33333333335333333333333333334=NNNNNNNNNNNN",
"NNNNNNNNNNNazbmczzzzzt33333333333333333333333333333;NNNNNNNNNNNN",
"NNNNNNNNNNNacmMvzzzzlr333333333333333333333333353352NNNNNNNNNNNN",
"NNNNNNNNNNNfcMMczzzzj9333333333333333333333333523322NNNNNNNNNNNN",
"NNNNNNNNNNNjcmmzzzzjs5333333333333333333333333253332NNNNNNNNNNNN",
"NNNNNNNNNN,kzvvzzzld9333333333333333333333333333333>NNNNNNNNNNNN",
"NNNNNNNNNN7zlljjljdr53333333333333332333333333333352NNNNNNNNNNNN",
"NNNNNNNNNN0zhdttfs953333333333333333333333333359333:NNNNNNNNNNNN",
"NNNNNNNNNNtftw96rr5333333333333333333333333331243331NNNNNNNNNNNN",
"NNNNNNNNNNii333353333333333333333333333333333;*33332NNNNNNNNNNNN",
"NNNNNNNNNNqw333333333333333333333333333333331@-3333;NNNNNNNNNNNN",
"NNNNNNNNNN0533333333333333333333333333333332-+15333>NNNNNNNNNNNN",
"NNNNNNNNNN23333333333333%3333333333333333331+*133333NNNNNNNNNNNN",
"NNNNNNNNNN:525333333333<$<13553333333333331%+133524:NNNNNNNNNNNN",
"NNNNNNNNNN>5523333333351$+$%33333333333333<$<333255:NNNNNNNNNNNN",
"NNNNNNNNNN>5233333333333<$$$%133333333333<$$1533523NNNNNNNNNNNNN",
"NNNNNNNNNNN533333333333331<+O$<3333333331+O<3333353NNNNNNNNNNNNN",
"NNNNNNNNNNN1333333333333531<%$+%<1115333<.+3333332;NNNNNNNNNNNNN",
"NNNNNNNNNNN;33333333333333331%Oo$<<13333% %333333;NNNNNNNNNNNNNN",
"NNNNNNNNNNN&133333333333333531*$$OO$3333<+1333332*NNNNNNNNNNNNNN",
"NNNNNNNNNNNN1533333333333333355<$oX$33333<333333:NNNNNNNNNNNNNNN",
"NNNNNNNNNNNN:4333333333335253332<+o<333332333552NNNNNNNNNNNNNNNN",
"NNNNNNNNNNNNN22333333333323333331%%133333333322;NNNNNNNNNNNNNNNN",
"NNNNNNNNNNNNNN24533533333333333331113333333332;NNNNNNNNNNNNNNNNN",
"NNNNNNNNNNNNNN:223323333333333335323333333332:NNNNNNNNNNNNNNNNNN",
"NNNNNNNNNNNNNNN:2535333333333333333333333332;NNNNNNNNNNNNNNNNNNN",
"NNNNNNNNNNNNNNNN;;22553333333333333333333351NNNNNNNNNNNNNNNNNNNN",
"NNNNNNNNNNNNNNNNN*;113333252333333333333332NNNNNNNNNNNNNNNNNNNNN",
"NNNNNNNNNNNNNNNNNNN+%=22535353533333321<12NNNNNNNNNNNNNNNNNNNNNN",
"NNNNNNNNNNNNNNNNNNNNO&=223253233333111=%NNNNNNNNNNNNNNNNNNNNNNNN",
"NNNNNNNNNNNNNNNNNNNNNNN*;;;22<;11;;=$$NNNNNNNNNNNNNNNNNNNNNNNNNN",
"NNNNNNNNNNNNNNNNNNNNNNNNNNN;=$*=-*-NNNNNNNNNNNNNNNNNNNNNNNNNNNNN",
"NNNNNNNNNNNNNNNNNNNNNNNNNNNNNNNNNNNNNNNNNNNNNNNNNNNNNNNNNNNNNNNN",
"NNNNNNNNNNNNNNNNNNNNNNNNNNNNNNNNNNNNNNNNNNNNNNNNNNNNNNNNNNNNNNNN",
"NNNNNNNNNNNNNNNNNNNNNNNNNNNNNNNNNNNNNNNNNNNNNNNNNNNNNNNNNNNNNNNN",
"NNNNNNNNNNNNNNNNNNNNNNNNNNNNNNNNNNNNNNNNNNNNNNNNNNNNNNNNNNNNNNNN",
"NNNNNNNNNNNNNNNNNNNNNNNNNNNNNNNNNNNNNNNNNNNNNNNNNNNNNNNNNNNNNNNN"
};
